<?xml version="1.0" encoding="utf-8"?>
<!-- Generator: Adobe Illustrator 23.0.1, SVG Export Plug-In . SVG Version: 6.00 Build 0)  -->
<svg version="1.1" id="Режим_изоляции"
	 xmlns="http://www.w3.org/2000/svg" xmlns:xlink="http://www.w3.org/1999/xlink" x="0px" y="0px" viewBox="0 0 71.8 73.6"
	 style="enable-background:new 0 0 71.8 73.6;" xml:space="preserve">
<style type="text/css">
	.st0{fill-rule:evenodd;clip-rule:evenodd;fill:#101010;}
</style>
<title>apple</title>
<path class="st0" d="M38.7,75.2c-0.3-0.1,0.2-0.3,0.2-0.4c-1.2,0.1-2.4-0.1-3.6-0.4c-3.4-0.8-6.3-1.6-9.6-4c-2.5-1.8-3.4-3.9-5.1-6
	c-0.3,0.2,0.2,0.8-0.2,1c-0.3-0.4-0.6-0.9-0.9-1.4c-0.3,0.2-0.1,0.7-0.5,0.8c-0.5-0.1-0.3-0.7-0.5-1c-0.2,0.1-0.4,0.5-0.6,0.4
	c-0.5-0.2-0.2-0.6-0.4-0.9c-0.8,1.1-2.1,0.1-0.8-1.1c-0.4,0.1-1.4-0.1-1.5-0.8c-0.5-0.3-1,0.4-1.5-0.2c-0.1-0.4,0.4-0.1,0.5-0.4
	c-2-0.6-3.9-1.5-5.6-2.6c-0.5-0.3-1.2-0.3-1.6-0.7c-0.9-0.7-0.9-2.3-1.8-2.9c-0.3-0.3-0.5,0.2-0.8-0.1c0-0.2,0.2-0.4,0.2-0.6
	c-0.4-1.2-1.7-1.9-2.3-2.9c-0.3-0.7-0.5-1.3-0.6-2c-0.9-2.2-1.3-4.6-1.2-6.9c-0.1-1.2-0.1-2.4,0-3.5c0.9-4.2,2.1-8.4,3.7-12.5
	c-0.4,0.1-0.7,0.7-1.1,0.4c1.9-1.5,2.3-4,3.5-6.1c2.8-5,6.7-7.6,10-10.5c1.7-0.6,3.2-1.5,4.5-2.7c0.2-0.1,0.4,0.1,0.6,0.1
	c4.5-2,10.3-2.8,15.7-0.1c4.5,2.3,7.9,6.5,11.4,9.6c1,0.9,1.8,1.3,2.6,1c3.1-3.2,4.7-8.4,6.3-12c0.1-0.4,0.1-0.7,0-1.1
	c0.3-0.1,0.4-0.4,0.5-0.8c1.3-0.7,3.7-0.2,3.3,1.8c-0.7,4-5,10.6-8.1,14.2c1,0.7,2,1.4,3,2c-1-0.2-2.3-1.5-3.3-1.8
	c0.6,1.3,3,2.2,4.1,2.4c-0.2-0.2-0.4-0.4-0.6-0.6c3.2,2.3,7.5,3.8,9.8,6.7c0.3,0.1-0.1-0.4,0.2-0.4c1.5,2,3.3,3.7,4.2,5.7
	c0.5,1.1,1.1,2.3,1.6,3.4c0.4,1.1,0.3,2.6,0.6,3.8c0.2,0.7,0.6,1.2,0.5,2c-0.3,1.4-0.6,2.7-1.1,4c-1.3,4.4-3,9.9-6.7,14.2
	c-1.2,1.5-2.5,3-3.9,4.3c-2.5,2.2-5.3,4.1-8.3,5.6c-1.4,0.5-2.9,0.9-4.4,1.2c-1.6,0.4-3.2,1.6-4.6,2.1
	C42.5,75.1,40.5,74.9,38.7,75.2z M57.1,68.7c-1.2,0.4-2.2,1.4-3.4,1.8c-0.1-0.2,0.3-0.2,0.2-0.4c-1.2,0.7-2.7,1.2-3.7,1.9
	C52.8,71.5,55.2,70.4,57.1,68.7L57.1,68.7z M60.5,7c0.4-0.6,0.5-1.4,0.3-2.1C60.2,5.3,60.6,6.4,60.5,7z M58.5,4.4
	c0.2,0.2,0.7,0.4,1,0.1c0-0.3-0.3-0.5-0.6-0.4C58.7,4.1,58.6,4.2,58.5,4.4L58.5,4.4z M57.9,5.5c0.7,1.4-0.1,3.2-0.9,4.9
	c0.4,0.1,0.6-0.7,1.1-0.6c-0.4,1-1.7,1.6-2.1,2.7c0.3,0.1,0.6,0,0.9,0.2c1.9-2.5,1.7-4.8,3.2-7C59.3,5.3,58.6,5.5,57.9,5.5L57.9,5.5
	z M59.4,7.9c0.2-0.4,0.4-0.8,0.3-1.2C59.5,7.1,59.3,7.5,59.4,7.9L59.4,7.9z M56,15.3c2-2.1,4-5.6,4.2-8.1C59,10,57.6,12.7,56,15.3
	L56,15.3z M55.6,11.3c0.9-1.4,1.5-2.9,1.7-4.5C56.4,8.4,56.3,9.8,55.6,11.3z M55.3,13.6c0.2-0.3,0.6-0.3,0.8-0.7
	C55.8,12.5,55.2,13.3,55.3,13.6L55.3,13.6z M54.7,14.4c0.4,0.1,1.8-0.2,1.6-1.2C55.8,13.7,55.2,14.1,54.7,14.4L54.7,14.4z M53.6,16
	c0.4-0.3,1.1-0.5,1.3-1C54.5,15.1,53.6,15.2,53.6,16L53.6,16z M54.1,16.1l0.4,0.3c0.1-0.4,0.7-0.6,0.5-0.9
	C54.7,15.6,54.4,15.8,54.1,16.1L54.1,16.1z M52.8,19.6c1.1-0.9,2-1.9,2.6-3.2C54.6,17.6,53.3,18.5,52.8,19.6L52.8,19.6z M52.3,17.8
	c-0.1,0.2,0.1,0.3,0,0.6c-0.3,0.1-0.6,0.3-0.8,0.5l0.5,0.3c0.9-0.7,1.6-1.5,2.1-2.5C53.5,17.1,52.9,17.5,52.3,17.8L52.3,17.8z
	 M52,17.7c0.5-0.1,1-0.5,1.3-0.9C52.8,16.8,52.4,17.2,52,17.7L52,17.7z M31,6.5c2.5,1.1,5.1,1.1,7.4,2.5c1.3,0.7,2.2,1.8,3.8,2.3
	C39.2,8.5,35.2,6.8,31,6.5z M25.4,6.6c3.4-0.4,6.7-0.8,10.4,0.7C32.6,5.8,28.8,5.5,25.4,6.6z M35.5,8.3C37.9,9.4,40.1,11,42,13
	c0.6,0.6,1,1.7,1.9,1.5C41.5,12.2,39,8.7,35.5,8.3z M40.9,11c0.6,0.7,1.3,1.3,2.1,1.7C42.5,11.9,41.8,11.3,40.9,11z M45.8,15.6
	c0.7,0.6,1.4,1.8,2.1,1.2c-1.3-1.4-2.8-2.5-4.3-3.6C43.9,14,45,14.7,45.8,15.6z M61.3,25.4c0.8,0.6,1.7,1.1,2.7,1.5
	C63.3,26.4,62.1,25.4,61.3,25.4L61.3,25.4z M50.4,18.1l0.2,0.1c0.1-0.1,0.3-0.3,0-0.3C50.6,18,50.5,18,50.4,18.1L50.4,18.1z
	 M43.2,16.8c-0.6-0.2-2.8-0.3-2.1-1.1c0.1,0.2-0.2,0.4,0.1,0.5c1,0.4,1.8,0.4,2.8,0.7c0-0.6-0.2-1.2-0.7-1.6
	c-1.1-1.1-2.3-2.4-3.4-3.3c-1.6-1.3-4-2-5.9-2.9c-1.5-0.6-3-0.9-4.6-1.1c3.1-0.2,6.6,2,10,3.3c-4.8-4.3-10.3-4.6-14.4-2.9
	c1.2,0,2.6-0.6,3.8-0.3C27,8,25.1,8.4,23.3,9.1c0,0.6-0.9,0.4-1.2,0.7c1.2,0.2,2.4-0.5,3.5-0.3c-1.4,0.4-2.9,0.3-4.2,1
	c0.7,0.4,1.2-0.3,1.9,0c-0.1,0.6-0.8,0.1-1.1,0.6c0.4,0.2,0.7,0.1,0.9,0.5c0.2,0,0.3-0.3,0.3-0.3c1.1,0.2,2.1-0.3,3.1-0.4
	c0.2-0.6-0.3-1.4-0.1-1.8c0.4,0.5,0.2,1.2,0.4,1.7c0.6,0.1,1.3-0.5,1.8-0.2c-0.6,0.3-1.7-0.1-1.8,0.8c-0.8-0.6-2.2,0.1-3.1,0.5
	c0.4,0.4,1.1,1,1.5,0.9c1.7-0.1,3.8-1.3,5.3-1c-1.7,0.3-3.4,0.7-5.1,1.1c0.3,0.4,1.3,0.7,1.4,1.2c-1.3-1.1-2.4-1.4-3.3-0.7
	c-0.3,0.9,0.3,1.5,1.1,1.9c-0.7-0.2-1.3-0.6-1.8-1c0.2-0.1,0.4,0.2,0.5,0.2c0.1-0.3,0.1-0.7,0.2-1c-0.5-0.2-1,0.2-1.5,0.3
	c0.1,0.1,0.4,0.2,0.3,0.3s-0.4-0.3-0.5,0l0,2.2c0.5,0.6,1.1,0.4,1.4,0.5c0,0.1-0.3,0.2-0.1,0.3c1.7,1.4,2.9,0.2,4.3-0.1
	c-0.7-0.6-1.5-1.1-2.4-1.5c1,0.4,1.9,0.9,2.7,1.5c0.8,0,1.7-0.6,2.4-0.4c-0.7,0.3-1.4,0.3-2.1,0.6c0,0.2,0.6,0.3,0.5,0.6L27.4,17
	c-1,0.2-2,0.5-3,0.8c0,0.1,0.3,0.2,0.2,0.3c-0.9-0.3-1.9-0.1-2.7,0.4c0.4,0.3,0.8,0.4,1.1,0.7c1.3-0.2,2.4-0.8,3.7-1
	c0,0.4-0.5,0.1-0.6,0.5c0,0.3,0.5,0.1,0.3,0.4c-1.2-0.8-2,0.1-2.9,0.4c0.5,0.4,1.2,0.6,1.5,1c-0.6-0.2-1.2-0.6-1.7-1
	c-0.9,0.1-1.7,0.4-2.5,0.8c1.2,1.3,2.7-0.5,3.7,0.5c-0.5,0.5-1.1,0.3-1.6,0.7c0.5,0.3,1.1,0.7,1.7,1c0.3,0,0.5-0.6,0.9-0.4
	c-0.2,0.2-0.4,0.2-0.6,0.5c0.1,0.2,0.7,0.3,0.8,0.6c-0.3-0.1-0.6-0.3-0.9-0.5c-0.7,0.5-1.9,1-2.2,1.8c-0.3-0.1-0.6,0.1-0.9,0.5
	c0.7,0.8,1.3,1.6,2.1,2.3c0.2-0.1,0.3-0.2,0.4-0.3c-0.1-0.2-0.4,0-0.4-0.2c0.3-0.1,0.6-0.1,0.8,0c0,0.4-0.5,0.3-0.7,0.6
	c0.3,1,2,1.2,2.7,1.9c-0.9-0.4-1.9-1-2.8-1.3c0-0.1,0.1-0.3-0.1-0.4c0,0.4-0.5,0.3-0.6,0.1c0.1-0.2,0.3,0.1,0.4-0.3
	c-0.6-0.8-1.3-1.6-2.1-2.3c-0.4,0.3-0.8,0.6-1.2,0.9c0.5,0.6,2,0.9,2.7,1.6c-1-0.6-1.9-0.9-2.8-1.6c-0.4,0.2-0.9,0.5-1.3,0.8
	c0.3,0.7,1.1,0.3,1.4,0.3c-0.2,0.3-0.4,0.1-0.6,0.5c0.5,0.5,1.2,0.9,1.8,1.2c0.6-0.2,1-0.8,1.6-0.9c-0.4,0.6-0.9,0.5-1.2,1.1
	c0.9,0.6,1.8,0.8,2.7,1.5c0.5,0,0.9-0.6,1.2-0.8c0.1,0,0.2,0,0.3,0.1s0,0.1,0,0.1c-0.3,0.3-0.9,0.4-1,0.8c0.5,0.3,0.8,0.3,1.1,0.6
	c-0.4,0.3-0.8-0.5-1.3-0.5c-0.5,0.3-0.9,0.6-1.4,0.9c0.5,0.7,2,0.2,2,1.3c-0.7-0.4-1.5-0.8-2.2-1.1c-0.4,0.2-0.8,0.5-1.2,0.8
	c1,0.8,1.7,1.9,2.9,2.4c-0.1,0.1,0.1,0.5-0.1,0.5c-0.5-0.3-0.6-0.7-1.2-0.9c-0.7,0.5-1.4,0.9-2.1,1.4c0.5,0.4,1.5,1.1,2,0.7
	c0.1-0.2-0.4,0-0.2-0.3c0.2,0.1,0.3,0.2,0.4,0.2c0.5-0.3,1-0.6,1.4-1c0.4,0.6-0.9,0.7-1.2,1.1c0.4,0.5,1.6,0.8,1.7,1.5
	c-0.8-0.1-1.5-0.9-2.3-1c-0.5,0.4-1.1,0.7-1.6,1.2c1,0.6,2.3,0.8,3.1,1.3c-1.1,0-2.3-0.8-3.4-1.1c-0.2,0.2-0.6,0.3-0.6,0.6
	c1.1,0.9,2,2.2,3.4,2.5c0.5-0.2,1.1-0.9,1.5-0.8c-0.4,0.5-0.9,0.5-1.2,1c0.3,0.3,0.9,0.4,0.9,0.7c-0.5,0.1-1-0.3-1.5-0.4
	c-0.8,0.4-1.6,1-2.3,1.5c1.6,2.3,3.7,1,4.9-0.5c0.2,1.1-1.8,1.2-2.1,2.2c-0.5-0.2-0.7,0.4-1.1,0.6c0.3,0.2,0.6,0.2,0.7,0
	c0.2,0.6,1.5,0.5,1.5,1.1c-1.5,0-3.2-1.3-4.3,0.3c1.6,1.9,3.8,1.9,5.6,2.6c-0.7,0.1-1.4-0.3-2.1-0.4c-0.7,0.4-1.3,0.8-2,1.2
	c0.9,1.2,2.5,0.9,3.6,1.1c-0.6-0.3-1.4-0.2-1.9-0.7c1.1,0.4,2.8,0.4,3.5,1.3c-2.6-0.1-6.1-2-8.1-0.1c0.4,0.1,1,0,1.3,0.3
	c-0.5,0.2-1.2-0.2-1.7,0.1c0.1,0.2,0.5,0.4,0.8,0.6c2.7,0,5.3,0.3,7.9,0.9c-2.4-0.2-4.9-0.6-7.3-0.7c-0.1,0.4-0.6,0.8-0.6,1.1
	c0.9-0.2,1.9-0.3,2.8-0.2c-0.6,0.3-1.2,0.1-1.8,0.3c-0.2,0.4-0.6,0.8-0.7,1.1c2.1,0,4.3,0.5,6.4,0.7c0.2,0,0.4-0.3,0.6,0.1
	c-0.8,0.2-1.8-0.3-2.7-0.1c0.2,0.1,0.2,0.2,0.2,0.3c-1,0.1-2,0.1-2.9,0.2c-0.2,0.3-0.6,0.7-0.6,1c0.4,0.1,0.7,0,1.1,0.1
	c0.1,0.1-0.1,0.3,0,0.4c0.3,0,0.7-0.2,0.8,0c-0.8,0.2-1.7,0.2-2.5,0.2c-0.2,0.3-0.3,0.5-0.5,0.8c1.4,0.1,3,0,3.9-1.4
	c0,0.3-0.4,0.7-0.3,0.9c0.8,0.2,1.3-1.1,2.1-1.3c-0.2,0.4-0.8,0.7-1,1.1c0.5,0.1,0.9-0.2,1.5,0.1c-0.6,0.4-1.5-0.1-2.1,0.5
	c1.2-0.1,2.4-0.1,3.6-0.1c-1.3,0.3-2.8,0-4.1,0.4c-0.1,0.5-0.2,1-0.3,1.5c1.3,0,2.5-0.6,3.9-0.6c0.1,0.5-0.5,0.3-0.8,0.7
	c0.8,0.1,1.5,0,2.3-0.1c0.3-0.2,0.7-0.9,1-0.5c-0.1,0.3-0.5,0.3-0.5,0.5c0.3,0.2,0.7-0.1,0.9,0.2c-1.1-0.2-2.1,0.6-3,1.4
	c1.5,0.3,3.2-0.2,4.5-0.1c-0.9,0.1-1.8,0.2-2.6,0.2c-0.8,0.1-1.9-0.2-2.5,0.4c1.5,0,3-0.1,4.5-0.2c0,0.1-0.1,0.2,0.1,0.3
	c3-1,6.2-2.2,9.2-2.4c-1.5,0.3-3,0.7-4.4,1.2c-0.2,1.1-1.4,2.2-1.7,3.1c1-0.5,1.6-1.5,2.7-1.5c0.7-0.6,0.1-1.4,0.9-1.4
	c0.2,0.3-0.3,0.8-0.4,1.2c2.1-0.3,4.1-1.2,6.2-1.7c-1.3,0.5-2.7,1-4.1,1.3c0,0.4-0.5,1-0.5,1.4c1.9-0.5,4-1.4,5.8-1.6
	c-1.3,0.2-2.5,1.1-3,2.3c0.9-0.5,2.8-0.3,3.7-1.1c0.6-0.6,0.7-1.7,1.1-2.5c-0.3-0.3-0.6,0.2-0.8,0c0.2-0.2,0.6-0.3,0.9-0.2
	c0.4,0.7-0.5,1.7-0.9,2.6c0.7,0.1,1.4-0.5,2.1-0.4c-1,0.7-2.3,0.2-3,2c0,0.2,0.3,0.1,0.2,0.2c-0.3,0.1-0.5,0.4-0.7,0.6
	c1.2,0.1,2.2-0.7,3.4-0.7c-0.8,0.5-1.5,1.1-2,1.9c0.8,0,1.5-0.1,2.3-0.4c-0.5-0.3-1,0-1.5-0.2c1-0.2,2-0.1,3-0.3
	c0.7-0.9,1.4-1.9,2.1-3c-0.4-0.1-0.6,0.7-1,0.7c0.5-0.6,1-1.3,1.6-1.2c-0.3,0.9-1.2,1.6-1.5,2.3c0.7,0.1,1.3-1,1.7-1.4
	c0.6,0.7,1.8,0,2.5-0.5c-0.1,0.3-0.3,0.2-0.5,0.5c0.8,0.1,1.6,0.3,2.2-0.9c-0.8-0.1-1.4,0.3-2.2,0c1.1-0.4,2.4,0.4,3.2-1.1
	c-0.6-0.2-1.1,0-1.7-0.1c1,0,1.9-0.3,2.8-0.8c0,0.2-0.2,0.2-0.3,0.4c1.6,0.1,3.1-0.6,4.1-1.8c-0.1,0.5-0.7,0.5-0.9,1.1
	c0.6-0.1,1-0.7,1.4-1.2c1.1-1.2,2.3-2.5,3.3-3.7c0.8-0.9,1.4-2,1.9-3.1c1.3-2.6,2.5-5.3,2.5-7.6c0.2,0.2-0.2,0.6,0.2,0.8
	c0.7-3,0.5-6.1-0.6-9c-0.9-2.5-2.2-6.3-4.4-8.3c-3.1-2.8-6.8-4.8-10.8-5.9c-0.1,0.3-0.5,0.4-0.9,0.5c0.7,0.5,1.9,0.3,2.1,0.9
	c-1.8,0.1-4.1,0-5.3,1c0.6,0.2,1.3,0.1,1.9-0.3c1.3,0.6,2.8,0,3.9-0.1c0,0.1,0.1,0.1,0,0.2c-1.2,0.3-2.6,0.2-3.8,0.5
	c0.1,0.2,0,0.5-0.2,0.6c-0.5,0.3-1.2-0.1-1.8-0.2c-1.2,0.5-2.5,0.6-3.7,0.5c1-0.1,2-0.3,3-0.6c-0.3-0.2-0.8-0.1-0.9-0.2
	c0.1-0.2,0.3-0.1,0.3-0.3c-1-0.5-2-1.1-3.1-1.7c-1,0.3-2.1,0.5-3.2,0.6c-1.1,0.2-2.1,0.3-3.2,0.3c2-0.5,4-0.3,5.9-1.1
	c-0.6-0.3-1.4,0-1.9-0.4c0.4-0.2,0.9,0.1,1.2-0.1c-1.4-1.5-2.6-0.2-4-0.5c0.9-0.1,1.8-0.3,2.6-0.6c-0.6-0.6-1-1.2-1.6-1.7
	c-1.9,0.2-3.8,0.6-5.8,0.7c1.9-0.5,3.9-0.4,5.7-1c-0.4-0.5-0.4-1.1-0.7-1.6c-2.2,0.2-4.6,0.7-6.6,0.9c2.2-0.5,4.4-0.9,6.7-1
	c0-0.3-0.4-0.2-0.4-0.5c0.2,0,0.3-0.2,0.4-0.2c1.3,0.6,2.1,1.9,3.6,1.6c-0.3-0.9-1.1-1.7-1.4-2.7c-0.3,0.1,0.2,0.2,0,0.4
	c-0.7-0.4-1.5,0.2-2-0.1C42.4,16.8,43.3,17.1,43.2,16.8L43.2,16.8z M56.3,22.7c0.7,0.3,1.2,0.9,1.9,0.8C57.7,23,57,22.7,56.3,22.7
	L56.3,22.7z M42.4,13.8c-0.7-1-1.6-1.9-2.6-2.6C40.5,12.2,41.4,13,42.4,13.8L42.4,13.8z M50.3,18.5c0.2-0.2-0.1-0.3-0.2-0.4
	C49.9,18.2,50.1,18.3,50.3,18.5L50.3,18.5z M51.1,19.1c0.1,0.1,0.2,0,0.3-0.2C51.3,18.8,51.2,18.9,51.1,19.1L51.1,19.1z M52.4,20.1
	c0.1-0.1,0.2,0,0.3-0.1c0-0.1-0.1-0.1-0.1-0.2S52.3,19.9,52.4,20.1L52.4,20.1z M47.6,17.1c0.3,0.3,1.1,1.2,1.5,1
	C48.8,17.8,48.2,16.7,47.6,17.1L47.6,17.1z M46.8,17c-0.8-0.6-1.5-1.2-2.2-1.9c-0.2,0.6,0.4,1,0.5,1.5c1.4,1,2.1,2,3.6,3
	c0.3-0.1,0.5-0.3,0.6-0.6c-1.2-0.7-1.9-2.3-3.2-1.8C46.4,17.1,46.7,17.3,46.8,17L46.8,17z M49.7,18.7c-0.1-0.2-0.3-0.4-0.5-0.5
	C49,18.4,49.6,18.8,49.7,18.7L49.7,18.7z M43.5,14.7c0.1,0.5,0.4,1,0.9,1.2C44.5,15.3,44.1,14.8,43.5,14.7L43.5,14.7z M71.8,41.8
	c-0.3,0-0.2,0.4-0.1,0.6c0.3-0.4,0.2,0.2,0.4,0.3c0.6-4.3-1.4-8.3-4.3-11.7C69.7,34.3,71,37.9,71.8,41.8L71.8,41.8z M49.6,18.9
	c0-0.2-0.5-0.3-0.7-0.5C48.8,18.6,49.5,19.1,49.6,18.9z M52.1,20.9c0.6,0.5,1.2,0.9,2,1C53.4,21.5,52.7,20.6,52.1,20.9z M23.4,7.7
	c0.5,0.3,0.8-0.2,1.4,0.3c2.1-1.2,5.1-0.9,7.1-1C29,6.4,26.1,6.6,23.4,7.7z M50.9,20.1c0.1,0,0.1-0.1,0.2-0.2l-0.2-0.1
	C50.8,19.9,50.8,20,50.9,20.1L50.9,20.1z M52.2,21.2c-0.2,0.2-0.2,0.2-0.5,0.4c1.2,0.9,2.2,0.7,3.3,0.9
	C54.1,22.2,53.1,21.7,52.2,21.2L52.2,21.2z M50,20.5c0.3,0.1,0.5-0.2,0.7-0.4C50.4,20,50,20.4,50,20.5L50,20.5z M49.7,20.3
	c0.2,0.1,0.5-0.1,0.4-0.3l-0.2-0.1C49.8,20,49.6,20.1,49.7,20.3L49.7,20.3z M54.5,23c-1.3-0.4-2.6-0.4-3.9-0.2
	c-0.2,0.3,0.4,0.5,0,0.8c0.7,0.2,1.5,0.2,2.2-0.1c-0.1-0.1-0.4-0.2-0.3-0.3c0.6,0.3,1.4,0.3,2,0.1c-0.1-0.3-0.7-0.1-0.7-0.3
	C54,23,54.3,23.2,54.5,23L54.5,23z M46,18.9c0,1.3,1.6,1.5,2.5,1c-0.9-0.9-1.9-1.6-2.9-2.3c0,0.4,0.1,0.8,0.4,1.1
	c0.2,0.1,0.6-0.1,0.6,0.1C46.3,18.7,46.1,18.6,46,18.9z M50.9,24.2c0.3,0.2,0.1,0.5,0.3,0.7c1.4-0.3,3.5,0.1,4.5-0.5
	C54.2,23.7,52.5,23.6,50.9,24.2L50.9,24.2z M51.2,21.7c-0.2,0.1-0.4,0.3-0.5,0.5c0.5,0.3,1.1,0.3,1.7,0.1
	C51.9,21.9,51.7,21.9,51.2,21.7L51.2,21.7z M48.4,21.3c0.4,0.2,0.7-0.5,1.1-0.6c0-0.1-0.1-0.1-0.1-0.2C49,20.7,48.6,20.9,48.4,21.3
	L48.4,21.3z M47.3,20.3c0,0.1,0.1,0.1,0.1,0.2c0.2,0.1,0.4,0,0.5-0.2C47.6,20.1,47.4,20.2,47.3,20.3L47.3,20.3z M50.1,22.6
	c0.3,0.2,0.6,0.2,0.8,0C50.6,22.4,50.3,22.3,50.1,22.6L50.1,22.6z M46,19.9c0.1-0.2,0-0.3-0.1-0.4C45.7,19.6,45.8,19.7,46,19.9
	L46,19.9z M44,19.9c0.1,0.4,0.9,0.5,1.2,0.3C44.8,19.8,44.4,19.6,44,19.9L44,19.9z M46.2,21.2c0.1,0.1,0.3,0.1,0.4-0.1
	c0,0,0,0,0-0.1l-0.3-0.2C46.2,21,46.2,21.1,46.2,21.2L46.2,21.2z M47.5,22.7c0.3,0.1,0.5,0.2,0.7-0.1C47.9,22.4,47.7,22.4,47.5,22.7
	L47.5,22.7z M52.3,26.3c0.2,0.1,0.4,0.2,0.6,0c-0.1-0.2-0.4-0.2-0.6-0.1C52.3,26.2,52.3,26.2,52.3,26.3L52.3,26.3z M43.3,20.4
	c0-0.1-0.1-0.2-0.2-0.2C42.8,20.2,43.1,20.5,43.3,20.4L43.3,20.4z M43.4,20.7c-0.2,0.3,0.4,0.5,0.5,0.3
	C43.7,20.8,43.7,20.5,43.4,20.7L43.4,20.7z M22.4,8.1c-0.2,0.6-0.7,0.6-1.1,1.1c1.1-0.2,2.1-0.6,3.1-1.1C23.8,7.9,23.1,7.9,22.4,8.1
	z M44.4,21.7c-0.2,0.1,0.6,0.8,0.8,0.5C45,22,44.7,21.8,44.4,21.7z M46.3,23.2c0,0.1,0.4,0.4,0.5,0.2C46.8,23.3,46.4,22.9,46.3,23.2
	L46.3,23.2z M45.8,22.8c-0.2,0.2,0.1,0.2,0.2,0.3C46.1,22.9,45.9,22.8,45.8,22.8L45.8,22.8z M72,46.1c0.3-1.3,1.1-2.6,0.7-3.8
	C72.4,43.5,71.6,44.9,72,46.1z M19.5,9.6c0.6,0.5,1.2-0.5,1.8-0.8C20.7,8.7,20.1,9.3,19.5,9.6z M71.8,43.3c0.3-0.3-0.1-0.7-0.2-0.8
	C71.7,42.8,71.5,43.1,71.8,43.3z M21.4,10c0.2,0.1,0.4,0.1,0.5-0.1C21.7,9.7,21.4,9.8,21.4,10z M23.5,12.1c-0.1,0.3-0.1,0.5-0.1,0.8
	c0.4,0.1,0.8,0,1.2-0.3C24.2,12.4,23.9,12.2,23.5,12.1L23.5,12.1z M21.4,12c0,0.4,0,0.9,0.1,1.3c0.6,0,1.1-0.2,1.6-0.4
	C23.8,11.5,22.3,11.6,21.4,12L21.4,12z M19.4,11.2c0.6,0,1.1-0.1,1.6-0.3c-0.2-0.1,0-0.2,0.1-0.4c-0.3-0.1-0.7-0.1-1,0.1
	c0.1,0.3,0.5,0,0.7,0.1C20.4,10.9,19.7,10.7,19.4,11.2L19.4,11.2z M21.4,11.5c0,0.1,0.1,0.1,0.1,0.2c0.4,0.1,0.7,0,1-0.2
	C22.2,11.2,21.8,11.1,21.4,11.5C21.4,11.4,21.4,11.5,21.4,11.5L21.4,11.5z M18.6,10.2c0.3-0.1,0.9,0,0.9-0.5
	C19.2,9.8,18.6,9.7,18.6,10.2L18.6,10.2z M19,10.7c0.3,0.3,0.8-0.1,1.1-0.4C19.7,10.1,19.4,10.5,19,10.7L19,10.7z M18,12.3
	c1.1,0,2.2-0.3,3.2-0.7C20.1,11.2,18.8,11.5,18,12.3L18,12.3z M18.8,13.1c-0.1,0.3-0.1,0.5-0.1,0.7c0.9,0,1.7-0.1,2.5-0.5
	C21.7,11.3,19.8,12.9,18.8,13.1L18.8,13.1z M17.8,11.4c0.5-0.1,1,0,1.4-0.5C18.7,10.7,18.1,10.9,17.8,11.4
	C17.8,11.4,17.8,11.4,17.8,11.4L17.8,11.4z M69.9,51.9c1-1.7,1.7-3.4,1.7-4.9C71,48.7,70,50.4,69.9,51.9z M21.3,13.7
	c-1,0-2.4,0.1-2.6,1.3c0.2,0.2,0.6,0.2,0.5,0.4c-0.9,0.6-0.4,1.6-0.5,2.4c0.5-0.1,0.9-0.3,1.3-0.6c-0.2-0.3-0.9-0.5-1-0.8
	c0.5,0.1,0.9,0.4,1.2,0.7C22,17,21,15.1,21.3,13.7L21.3,13.7z M16.2,12.8c0.7,0.2,1.3-0.4,1.8-0.9C17.3,11.6,16.8,12.1,16.2,12.8
	L16.2,12.8z M17.5,13.2c0.6,0,1.2-0.2,1.7-0.6C18.6,12.6,18,12.8,17.5,13.2L17.5,13.2z M18,14.1c0.1-0.1,0.7-0.1,0.4-0.4
	C18.3,13.8,17.9,13.9,18,14.1L18,14.1z M13.9,13.5c0.6-0.2,0.8-1.1,1.4-1.5c0-0.1-0.1-0.1-0.1-0.2C14.8,12.4,13.9,12.8,13.9,13.5
	L13.9,13.5z M20.5,17.4c0.3,0.2,0.7,0.5,1.1,0.8c0.7-0.1,1.4-0.3,2.1-0.7C22.4,16.3,21.4,16.9,20.5,17.4L20.5,17.4z M21.5,16.3
	c-0.1,0.1-0.1,0.3,0.1,0.4c0,0,0,0,0,0c0.1,0,0.3,0,0.4-0.1C21.9,16.4,21.7,16.3,21.5,16.3L21.5,16.3z M15.6,13.4c0.3,0,1.1,0,1-0.3
	C16.3,13.2,15.9,12.9,15.6,13.4L15.6,13.4z M15,15.3c0.3-0.1,0.6-0.3,0.9-0.5c0.2-0.1-0.2-0.2,0-0.3c0.4-0.3,1,0,1.4-0.7
	c0-0.1-0.1-0.1-0.1-0.2C16.3,13.8,15.4,14.4,15,15.3z M16.8,16.7c0.6-0.3,1.7-0.4,1.8-1.3c-0.2-0.2-0.4,0.2-0.6-0.1
	c0.1-0.4,0.5,0,0.6-0.4c-0.7-0.2-1.3,0.6-1.9,0.8c0.1,0.1-0.1,0.3,0.2,0.4c0.3,0.1,0.9-0.6,1.1-0.3C17.6,16.1,16.5,16.1,16.8,16.7
	L16.8,16.7z M15.1,14c0.3,0,0.9-0.1,0.9-0.5C15.7,13.6,15.2,13.5,15.1,14L15.1,14z M16.8,17c0,0.4-0.1,0.7,0.2,1
	c0.3-0.4,1.1-0.3,1.1-0.9c0.2-0.1,0.4,0,0.5-0.2c0-0.3,0.1-0.6-0.1-0.9C17.9,16.5,17.2,16.6,16.8,17L16.8,17z M18.8,18.9
	c0.9-0.2,1.7-0.4,2.5-0.7C20.6,17,18.4,17.8,18.8,18.9L18.8,18.9z M18.9,19.1c1.3,0.8,2.7,0.3,3.9,0.1
	C21.3,17.8,20.2,18.9,18.9,19.1L18.9,19.1z M14.8,14.2c-0.4,0.3-0.8,0.8-1.1,1.2c0.7,0,1.3-0.4,1.7-0.9
	C15.1,14.4,14.9,14.4,14.8,14.2L14.8,14.2z M14.7,16.2c0.5-0.3,1.3-0.4,1.6-0.9C15.7,15.6,14.9,15.8,14.7,16.2L14.7,16.2z
	 M12.9,14.8c0.3-0.3,0.6-0.6,0.9-0.9l-0.2-0.1C13.3,14.1,12.7,14.5,12.9,14.8L12.9,14.8z M14.6,16.7c0,0.2,0,0.4,0.1,0.5
	c0.5-0.5,2-0.5,1.8-1.4C15.7,16,15.1,16.3,14.6,16.7L14.6,16.7z M23.4,20.6c-0.4,0.1-0.9,0-1.3,0.3c0.4,0.3,0.9,0.2,1.2-0.2
	C23.3,20.7,23.3,20.7,23.4,20.6L23.4,20.6z M20.2,19.9c0.4,0.3,1.2-0.1,1.2-0.3C21,19.7,20.5,19.5,20.2,19.9L20.2,19.9z M16.8,18.4
	c0,0.2,0,0.4,0.2,0.5c0.5-0.4,1.2-0.4,1.6-1C18.1,17.3,17.3,18.2,16.8,18.4L16.8,18.4z M14.7,17.5c0.7-0.1,1.3-0.4,1.8-0.9
	C15.8,16.7,15.2,17,14.7,17.5L14.7,17.5z M16.8,19.3c0.6,0,1.2-0.1,1.7-0.4c0-0.2,0.1-0.4-0.1-0.5C17.9,18.8,17.1,18.8,16.8,19.3
	L16.8,19.3z M22.6,21.3c-1.1,0.2-2.1,0.5-3.1,0.9c0.3,0.2,0.8-0.4,0.9,0.1c-0.2,0.2-0.4,0.1-0.5,0.3c0.3,0.3,0.6,0.6,1,0.8
	c-0.1,0.1-0.2,0-0.2,0.1c0.2,0.3,0.5,0.6,0.8,0.9c1-0.6,2-1.3,2.9-2.1C23.9,22,23.1,21.8,22.6,21.3z M14.5,18c0.1,0.3,0,0.7,0.2,1
	c0.6-0.2,1.2-0.5,1.8-0.8c0-0.3,0.2-0.7-0.2-1C15.7,17.5,15.1,17.6,14.5,18z M20,20.2c0,0,0.1-0.1,0.1-0.1c-0.7-0.1-1.3,0.1-1.8,0.7
	C18.9,20.6,19.4,20.3,20,20.2L20,20.2z M18.3,21c0.3,0.4,0.6,0.7,1,1c1-0.2,1.9-0.5,2.8-0.9c-0.7-0.6-1.3,0.2-1.8-0.1
	c0.3-0.3,0.6-0.1,0.9-0.4C20.1,19.8,19.2,20.6,18.3,21L18.3,21z M64,62.4c2.6-2.7,4.6-6,5.8-9.5C68.1,55.9,65.7,59.6,64,62.4z
	 M18.6,19.6c-0.1-0.1,0-0.3-0.2-0.4c-0.5,0.1-1,0.2-1.5,0.4c0.5,0.5,1-0.4,1.4-0.1c-0.3,0.4-0.7,0.1-0.9,0.5
	c0.1,0.2,0.3,0.3,0.5,0.4c0.6-0.2,1.1-0.5,1.6-0.8l-0.5-0.3C18.8,19.5,18.7,19.7,18.6,19.6z M10.3,16.2c0.1,0,0.2,0.1,0.2,0.2
	c0.4-0.4,1.2-1,1.2-1.6C11.2,15.2,10.7,15.7,10.3,16.2z M12.7,16.5c0.3,0.1,0.6,0,0.8-0.3C13.2,16,13,16.2,12.7,16.5L12.7,16.5z
	 M12.6,18.1c-0.1-0.2,0.2-0.5,0.1-0.7c-0.3,0.3-0.6,0.6-0.9,0.9c0.8,0,2.6-0.6,2.3-1.7C13.5,16.9,12.9,17.4,12.6,18.1L12.6,18.1z
	 M14.5,19.4c0,0.2,0,0.4,0.2,0.5c0.6-0.2,1.2-0.4,1.8-0.8C16.6,17.9,15.2,19.2,14.5,19.4L14.5,19.4z M12.1,18.9c0,0.4,0,0.7,0.2,1
	c0.7-0.2,1.4-0.5,2-0.8C14.7,17.4,13,18.4,12.1,18.9L12.1,18.9z M68.2,54.7c0.1-0.2,0.3-0.4,0.1-0.6C68.2,54.4,68,54.6,68.2,54.7z
	 M14.6,20.5c0.7,0,1.4-0.2,1.9-0.6c0-0.1,0-0.2-0.1-0.2C15.8,19.8,15.1,20.1,14.6,20.5z M16.9,21c0.2,0,0.5-0.1,0.6-0.4
	C16.9,19.9,16.5,20.5,16.9,21z M14.8,22.4c0.4,0.1,0.9-0.5,1.2-0.2c-0.3,0.3-0.7,0.2-1,0.5c1,0.7,2.6-0.4,3.7-0.7
	C17.7,20.2,16.1,21.8,14.8,22.4L14.8,22.4z M14.7,21c0.1,0.2,0,0.5,0.2,0.8c0.6-0.1,1.2-0.3,1.7-0.6c0-0.3,0.2-0.6-0.1-0.8
	C15.8,20.5,15.2,20.7,14.7,21z M15.8,23.3c0.4,0.3,0.7,0.3,1,0.6c0.9-0.3,1.7-0.8,2.4-1.4C18.1,22.5,16.9,22.7,15.8,23.3L15.8,23.3z
	 M62.6,61.2c0.4,0,0.8-0.2,1.1-0.5c1.7-1.7,3.2-3.7,4.4-5.9C66.6,56.9,64.4,58.9,62.6,61.2L62.6,61.2z M19.3,22.8
	c-0.8,0.3-1.5,0.7-2.2,1.2c0.5,0.4,1,0.5,1.2,0.9c-0.8-0.4-1.6-1.2-2.2-0.5c0.4,0.4,0.8,0.7,1.2,1c0.4-0.2,1-0.2,1.1-0.7
	c0.5,0.3,0.9-0.2,1.4,0c-0.2,0.3-0.6,0.1-0.8,0.4c0.9,0.8,1.4-0.2,2-0.6C20.7,23.9,20.1,23.3,19.3,22.8L19.3,22.8z M12.4,20.5
	c0.7-0.1,1.7,0,2.1-0.9C13.7,19.6,13,20,12.4,20.5L12.4,20.5z M10.8,17.9c0.1-0.2,0.4-0.3,0.3-0.5C11,17.5,10.6,17.7,10.8,17.9
	L10.8,17.9z M9.4,17.8c0.3-0.2,0.5-0.5,0.6-0.9C9.8,17.1,9.3,17.5,9.4,17.8L9.4,17.8z M10.2,20.6c0.8,0.1,2.3-0.4,1.6-1.5
	C11.2,19.4,10.6,19.9,10.2,20.6L10.2,20.6z M9.2,18.8c0.2-0.1,0.7-0.5,0.5-0.8C9.6,18.1,9.2,18.6,9.2,18.8L9.2,18.8z M12.3,21
	c0.5,0.1,0.9-0.3,1.3-0.5C13.2,20.5,12.5,20.5,12.3,21z M12.4,21.8c-0.1,0.8,1,0.6,1,0.1c0.4,0.3,0.7,0,1.1-0.1
	c-0.1-0.2,0.1-0.6-0.2-0.8C13.7,21.3,13,21.5,12.4,21.8L12.4,21.8z M17.7,25.6c0.3,0.3,0.6,0.5,0.9,0.8c0.4-0.2,0.7-0.5,1.1-0.8
	C19,24.8,18.2,25.3,17.7,25.6L17.7,25.6z M10.5,21.4l0.1,0.3c0.6,0.1,1.3-0.2,1.7-0.7C11.6,20.8,10.9,20.9,10.5,21.4L10.5,21.4z
	 M15.2,23.3c0.2,0.4,0.5,0.7,0.8,1c0.2-0.1,0.5-0.2,0.5-0.4C16.1,23.6,15.6,23.2,15.2,23.3L15.2,23.3z M7,20.9
	c0.5-0.7,1-1.5,1.3-2.4C7.7,19.2,7.2,20,7,20.9L7,20.9z M12.6,22.8c0.1,0.1,0.1,0.2,0.2,0.3c0.4-0.2,0.9-0.4,1.3-0.6
	C13.5,22.3,12.9,22.4,12.6,22.8L12.6,22.8z M12.7,23.6c0.6,0.1,1.2,0,1.7-0.3c-0.1-0.1,0-0.2-0.2-0.3C13.7,23.1,13.2,23.3,12.7,23.6
	L12.7,23.6z M10.7,22.7c0.5,0.1,1.1,0,1.6-0.3C12.5,21.4,10.9,22.2,10.7,22.7L10.7,22.7z M9,20.5c0.1-0.2,0.4-0.4,0.3-0.5
	C9.1,20.1,9,20.4,9,20.5L9,20.5z M12.7,24c0.3,0.6,0.9,0.3,1.2,0.2c0,0.1-0.1,0.3-0.2,0.4c0.8,0.7,1.3,0.1,1.8-0.3
	C14.9,23.5,13.6,23.3,12.7,24C12.7,24,12.7,24,12.7,24z M14.7,25.1c0.3,0.5,1,0.5,1.5,0.9c0.3,0,0.7-0.2,0.9-0.4
	C16.5,24.6,15.4,24.3,14.7,25.1L14.7,25.1z M21.4,28.9c0,0.3,0.8,0.6,0.8,0.9c-0.4-0.1-0.5-0.6-1-0.8c-0.4,0.4-0.8,0.4-1.2,0.9
	c1,0.5,2,0.9,3.1,1.5c0.5-0.3,0.9-0.6,1.3-1C23.5,29.7,22.5,29.2,21.4,28.9L21.4,28.9z M64.1,60.9c1.1-0.6,1.9-1.6,2.3-2.8
	C65.5,59,64.7,59.9,64.1,60.9z M16.7,26.2c0.6,0.2,1.2,0.9,1.6,0.4C17.9,26,17.2,25.4,16.7,26.2z M18.4,26.7l-0.1,0.2
	c0.1,0.2,0.5,0.4,0.6,0.2C18.9,26.9,18.7,26.8,18.4,26.7z M9.7,21.5c0.1-0.1,0.4-0.2,0.3-0.4C9.9,21.2,9.6,21.3,9.7,21.5z
	 M10.8,23.4c0,0.2,0,0.4,0.2,0.5c0.6-0.1,1.1-0.4,1.5-0.8C12.1,22.6,11.2,23.2,10.8,23.4L10.8,23.4z M18.8,27.5
	c-0.6,0.2-1.1,0.5-1.6,0.9c0.7,0.7,1.5,1.2,2.4,1.5c0.5-0.2,0.9-0.5,1.3-0.9C20.6,28.1,19.6,27.9,18.8,27.5L18.8,27.5z M9.4,22.1
	c0.3,0,0.7,0.1,1-0.3c0-0.1,0.1-0.2-0.1-0.3C9.9,21.7,9.4,21.7,9.4,22.1L9.4,22.1z M8,21c0.2-0.1,0.5-0.5,0.4-0.7
	C8.2,20.6,7.8,20.7,8,21L8,21z M16.9,28c0.6,0.2,1.1-0.3,1.7-0.6C17.8,26.7,17.4,27.6,16.9,28L16.9,28z M15.3,26.8
	c0.2,0.4,0.9,0.7,1.3,1c0.4-0.2,0.8-0.5,1.2-0.9C16.8,26.3,16,26.1,15.3,26.8L15.3,26.8z M13.3,26.1c-0.4-0.2-0.9,0-1.2,0.3
	c0.6,0.5,0.9-0.2,1.4-0.1c-0.1,0.3-0.3,0.3-0.5,0.4c0.7,0.6,1.3,0.3,1.7-0.1c-0.3-0.2-0.5-0.4-0.3-0.7c0.4,0,0.5,0.4,0.9,0.6
	c0.3-0.2,0.8-0.2,0.8-0.6C15,25.5,13.9,24.7,13.3,26.1L13.3,26.1z M12.8,25c0.1,0.2,0,0.4,0.3,0.6c0.2-0.1,0-0.4,0.2-0.4
	s0,0.2,0.2,0.3c0.2-0.1,0.4-0.2,0.6-0.3C13.8,24.6,13.2,24.8,12.8,25L12.8,25z M12.5,24.7c0.5-0.9-1.1-0.7-1.7-0.4
	c0.2,0.3,0,0.7,0.3,1C11.6,25.1,12.3,25.1,12.5,24.7L12.5,24.7z M9.5,23.3c0,0.4,0.1,0.8,0.2,1.2c0.3-0.2,0.7-0.2,0.9-0.5
	c-0.1-0.3,0.1-0.7-0.3-0.9c0.1-0.2,0.2-0.3,0.1-0.4C10.1,22.9,9.8,23,9.5,23.3L9.5,23.3z M19.6,30.2c0.7,0.7,1.4,1.4,2.2,2
	c0.3-0.2,0.7-0.5,1-0.7C21.8,31,20.6,30,19.6,30.2L19.6,30.2z M11.6,25.7c0.1,0,0.2-0.2,0.3-0.1c0.1,0.1,0,0.1,0,0.2
	c-0.2,0.1-0.3,0.1-0.5,0.3c0.6,0.3,1-0.1,1.4-0.4c0-0.2-0.2-0.3-0.1-0.5C12.3,25.1,11.8,25.3,11.6,25.7L11.6,25.7z M8.3,23.5
	c0.4,0,0.7-0.2,0.9-0.5C8.9,22.9,8.5,23.1,8.3,23.5L8.3,23.5z M14.1,27.3c0.8,0.3,1.6,1,2.2,0.6C15.6,27.7,14.8,26.4,14.1,27.3
	L14.1,27.3z M16.4,28.3c0.2,0.2,0.2,0,0.3,0c0-0.1-0.1-0.1-0.1-0.2C16.6,28,16.4,28.1,16.4,28.3z M14.6,29.5
	c1.4,1.7,2.9-0.2,4.3,0.7C18.2,28.7,15.7,28.1,14.6,29.5z M8.3,24c0.2,0.3,0,0.7,0.2,1c0.3-0.1,0.6-0.1,0.9-0.4
	c0-0.4,0.1-0.9-0.2-1.2C8.9,23.6,8.6,23.6,8.3,24L8.3,24z M9.7,25.1c0.1,0.4,0.7,0.5,1.1,0.6c0.2-0.4,0.2-0.9-0.1-1.2
	C10.3,24.7,9.8,24.7,9.7,25.1L9.7,25.1z M19.3,30.3c-0.6,0.4-1.2,0.8-1.8,1.2c1.1,0.6,2.1,0.9,3.2,1.5c0.3-0.2,0.6-0.4,0.9-0.7
	C20.8,31.6,20,31,19.3,30.3L19.3,30.3z M12.7,27.9c0.6,0.5,1.1,0.9,1.7,1.4c0.4-0.4,1.1-0.6,1.3-1C14.7,27.9,13.5,27,12.7,27.9z
	 M21.1,32.9c0.7,0.5,1.5,0.8,2.3,1.1C22.8,33.4,21.8,31.9,21.1,32.9L21.1,32.9z M16.7,31.2c0.7,0.4,1.6-0.5,1.8-0.9
	C18,30.7,17.1,30.8,16.7,31.2L16.7,31.2z M5.6,23.2l0.4-0.6C6,22.5,6,22.4,6,22.3C5.9,22.3,5.5,23,5.6,23.2L5.6,23.2z M11.9,27.2
	c0.3,0.1,0.3,0.3,0.5,0.4c0.3,0,0.7-0.2,0.9-0.4C12.8,26.9,12.3,26.8,11.9,27.2L11.9,27.2z M55.4,69.2c3.2-1.6,6.6-3.7,8.8-7.9
	C61.4,64.2,58.2,66.8,55.4,69.2L55.4,69.2z M11.4,26.7c0.2,0.3,0.5,0.2,0.7,0.1c-0.1-0.2-0.3-0.3-0.5-0.2
	C11.5,26.6,11.5,26.6,11.4,26.7z M15.9,30.6c0.2,0.1,0.2,0.2,0.4,0.4c0.5-0.1,1-0.2,1.4-0.5C17.2,30.2,16.5,30.3,15.9,30.6
	L15.9,30.6z M20.9,33.2c-0.4,0.2-0.9,0.5-1.2,0.8c0.6,0.6,1.1,1.1,1.8,1.6c0.7-0.4,1.3-0.8,1.9-1.3C22.5,33.8,21.7,33.6,20.9,33.2z
	 M8.5,25.7c0,0.3-0.1,0.6,0.2,0.9c0.3-0.2,0.7-0.2,1-0.5c-0.1-0.3,0-0.7-0.3-1C9.1,25.4,8.8,25.4,8.5,25.7z M9.8,25.6
	c0,0.2,0.2,0.5,0.4,0.1C10.1,25.6,9.9,25.6,9.8,25.6z M10,26.6c0.2,0.3,0.8,0.2,1-0.2C10.9,25.9,10.3,26.4,10,26.6z M7.2,25.2
	c0.4,0.1,0.7-0.1,1-0.2C8.2,24.4,7.4,24.7,7.2,25.2z M17.6,31.9c0.5,0.7,1.1,1.3,1.8,1.9c0.4-0.2,0.7-0.4,1-0.6
	C19.6,32.5,18.7,32.1,17.6,31.9z M60.8,63.4c0.8-0.6,1.5-1.2,2.1-1.9C62.1,61.3,61.3,62.7,60.8,63.4z M10.1,27.4
	c0.4,0.2,0.7-0.1,1-0.3C10.8,26.7,10.2,27,10.1,27.4L10.1,27.4z M11.4,27.4c0.1,0.2,0,0.5,0.2,0.6c0.2,0,0.4-0.1,0.5-0.2
	C12,27.7,11.6,27.2,11.4,27.4L11.4,27.4z M11.6,28.4c0.3,0.4,0.6-0.4,0.8-0.1c-0.1,0.4-0.6,0.4-0.9,0.7c0.6,0.3,1.1,0.4,1.7,0.7
	c0.3-0.2,0.6-0.2,0.9-0.5C13.3,28.8,12.3,27.4,11.6,28.4L11.6,28.4z M13.8,30c0.6,0.1,0.9,0.6,1.4,0.3c-0.2-0.3-0.5-0.5-0.8-0.8
	C14.1,29.7,13.9,29.8,13.8,30L13.8,30z M10.3,28c0.3,0.2,0.4-0.4,0.7-0.1c-0.2,0.3-0.7,0.2-0.7,0.6c0.4,0.2,0.6-0.2,1-0.3
	c0-0.2,0-0.5-0.2-0.7C10.8,27.7,10.3,27.6,10.3,28z M8.7,27.4c0.4,0.2,0.8-0.2,1.1-0.3c-0.1-0.1,0.1-0.3-0.1-0.4
	C9.4,26.9,9,26.9,8.7,27.4L8.7,27.4z M15,31.7c0.3-0.2,0.7-0.2,1-0.5c-1.8-0.8-3.2,0.1-4.6,0.6c0.4,0.4,1.1,0.5,1.6,0.8
	c0.2-0.3-0.5-0.1-0.3-0.4c0.8-0.3,1.3,1.3,2.2,1c0.7-0.4,1.3-0.9,1.9-1.4C16.1,30.8,15.6,31.7,15,31.7L15,31.7z M4.8,25.8
	c0.5,0.1,0.8-0.9,1-1.3l-0.2-0.1C5.2,24.7,4.9,25.2,4.8,25.8L4.8,25.8z M16.5,32.3c0.2-0.1,0.4-0.1,0.6-0.3c0-0.1-0.1-0.1-0.1-0.2
	C16.9,31.8,16.4,32.1,16.5,32.3L16.5,32.3z M17.2,32.2c-0.3,0.2,0.2,0.3,0,0.5c-0.6,0.1-1.2,0.2-1.7,0.5c0.7,0.9,1.8,1.1,2.8,0.6
	c0,0.4-0.4,0.2-0.6,0.4c0.6,0.6,1,0.1,1.5-0.3C18.6,33.3,18,32.7,17.2,32.2L17.2,32.2z M23.7,36.8c0.2,0.1,0.5,0.5,0.7,0.2
	C24.1,36.8,23.9,36.5,23.7,36.8L23.7,36.8z M5.8,25.8c0.3,0.3,1-0.3,0.9-0.7C6.2,25.2,5.9,25.5,5.8,25.8z M61.5,62.2
	c0-0.1,0.4-0.3,0.1-0.4C61.5,61.9,61.2,62.1,61.5,62.2z M7.3,27c0.4,0,0.8-0.1,1.1-0.4C8.2,26,7.3,26.5,7.3,27z M10.7,28.8
	c0.3,0.2,0.6,0.1,0.8-0.2C11.2,28.3,10.9,28.6,10.7,28.8z M12.5,30.9c0.7,0,1.3-0.1,1.9-0.4C13.8,30.2,13,30.3,12.5,30.9L12.5,30.9z
	 M8.8,28c0.4,0.4,0.6-0.1,0.8-0.5c-0.3-0.1-0.6,0-0.8,0.3C8.8,27.8,8.8,27.9,8.8,28L8.8,28z M60,62.1c-0.8,0.1-1.9,0-2.3,1.2
	C58.6,63.5,59.6,63,60,62.1z M56.7,64.3c1.1,0.2,2.2-0.5,3.1-0.3c0.5-0.7,1.6-1.2,1.4-2c-0.7-0.3-1.6,0.6-1.8,1.3
	C58.5,63.4,57.4,62.9,56.7,64.3L56.7,64.3z M18.6,34.7c0.5,0.3,1.6,0.9,2.2,0.8C20.2,34.9,19.3,33.6,18.6,34.7z M9.7,28.3
	c0.1-0.1,0.3-0.1,0.3-0.3C9.9,27.9,9.5,28.1,9.7,28.3z M10.7,29.5c0,0.3,0.1,0.5,0.3,0.6c0.6-0.1,1.2,0.3,1.8-0.3
	C12.1,29.6,11.2,28.8,10.7,29.5L10.7,29.5z M7.6,27.4c0.3,0.1,0.6,0,0.8-0.3C8.1,26.9,7.8,27.2,7.6,27.4L7.6,27.4z M22.5,36.5
	c-0.1,0.2,0.3,0.6,0.5,0.3C23,36.7,22.6,36.6,22.5,36.5L22.5,36.5z M57.3,67.2c1.6-1.3,3.2-2.8,4.7-4.3
	C60.4,64.3,58.7,65.3,57.3,67.2L57.3,67.2z M19.4,37.3c0.7,0.3,1.3,0.6,2,0.8c0.4-0.3,0.8-0.6,1.2-0.9
	C21.6,35.4,20.4,36.3,19.4,37.3z M7.8,27.8c0.3,0,0.5-0.1,0.8-0.2c0-0.1-0.1-0.1-0.1-0.2C8.2,27.5,8,27.5,7.8,27.8L7.8,27.8z
	 M9.3,28.9c0.2,0.1,0.8-0.1,0.7-0.3C9.7,28.5,9.4,28.7,9.3,28.9L9.3,28.9z M18.4,34.8c-0.4,0.3-0.8,0.5-1.1,0.8
	c0.6,0.6,1.2,1.1,1.9,1.5c0.6-0.5,1.2-0.8,1.8-1.3C20.1,35.4,19.3,35.1,18.4,34.8L18.4,34.8z M9.2,29.8c0.5-0.1,0.9-0.3,1.2-0.6
	C10.2,28.6,8.9,29.3,9.2,29.8L9.2,29.8z M12,30.5c-0.2,0.6-0.9,0.5-1.3,0.9c0.7,0,1.4-0.3,1.8-0.8C12.5,30.3,12.1,30.5,12,30.5z
	 M7,28.2c-0.4,0.2-0.2,0.6,0,0.8c0.5-0.3,1.1-0.3,1.6-0.8c-0.1-0.1,0-0.2-0.2-0.3C7.9,28,7.4,28.6,7,28.2z M9.1,30.2
	c0.4-0.3,1,0.2,1.4,0C10.6,29.3,9.6,29.9,9.1,30.2L9.1,30.2z M16.5,34.9c0.4,0.4,1,0.4,1.4,0c0.1-0.1,0.1-0.1,0.1-0.2
	c-0.4-0.4-1-0.4-1.4,0C16.5,34.8,16.5,34.9,16.5,34.9z M7,29.6c0.6-0.2,1.1-0.5,1.6-0.9c0-0.1-0.1-0.1-0.1-0.2
	C8.1,28.9,6.8,28.8,7,29.6L7,29.6z M9.2,30.8c0.3,0.2,0.4-0.4,0.8-0.2c0.2,0.1,0.1,0.3,0.2,0.4c0.3-0.1,1.1-0.3,1-0.6
	C10.6,30.6,9.6,30.2,9.2,30.8L9.2,30.8z M15.1,33.8c0.3,0.3,0.7,0.6,1.1,0.9c0.3,0,0.6-0.2,0.8-0.4C16.4,34.1,15.7,33.5,15.1,33.8
	L15.1,33.8z M8.2,30.2c0.3,0.2,0.6-0.2,0.6-0.5l-0.2-0.1C8.4,29.7,8.2,29.9,8.2,30.2z M11,32.7c0.2,0.5-0.4,0.3-0.6,0.8
	c1.2,0.2,2.4,0.2,3.5-0.2C13.1,32.8,12,32.6,11,32.7L11,32.7z M12.3,35.1c1.2,0.7,2.6,0.6,3.6-0.3C14.8,33,13.3,34.1,12.3,35.1
	L12.3,35.1z M19.6,37.8c0.4,0.3,0.6,0.6,1,0.8c0.2-0.1,0.4-0.2,0.5-0.4C20.6,38,20,37.6,19.6,37.8z M6.3,29.2c0.2,0,0.3-0.2,0.3-0.4
	c0-0.1-0.1-0.2-0.1-0.2C6.3,28.8,6.1,29,6.3,29.2L6.3,29.2z M15.8,35.3c0.2-0.1,0.4,0.1,0.5-0.2C16.1,34.9,15.8,35.1,15.8,35.3z
	 M5.6,28.5c0.1,0.2,0.5-0.2,0.3-0.3C5.7,28.3,5.6,28.4,5.6,28.5z M10.6,32.2c0.4,0.3,1.3,0.3,1.8,0.3C11.7,32.3,11,31.6,10.6,32.2z
	 M14.7,35.9c0.4,0.1,0.8,0.3,1.3,0.3c0.3-0.2,0.6-0.4,0.8-0.6C16.1,35.3,15.3,35.4,14.7,35.9L14.7,35.9z M16.3,36.3
	c0.7,0.3,1.4,0.7,2,0.6C17.6,36.3,16.9,35.3,16.3,36.3L16.3,36.3z M54.2,67c0.2,0.3-0.4,0.8-0.5,1.2c0.2-0.1,0.1,0.2,0,0.3
	c1.5-0.5,2.9-1.8,4.2-2.9c-0.9,0-1.8,0.1-2.7,0.2c0.3-0.4,0.6-0.8,0.8-1.3c-0.8,0-2.1-0.1-2.1,1.1c0.4,0.2,0.8,0,1.2,0.1
	c-0.7,0.2-1.7-0.2-2,1c0.9,0.1,2.1-0.2,2.9-0.1C55.4,66.9,54.7,66.7,54.2,67L54.2,67z M59.5,64.2c-1.3,0.3-2.9-0.5-3.9,1.4
	C57,65.7,58.7,65.8,59.5,64.2L59.5,64.2z M7.1,30.3c0.3,0.4,0.9-0.1,0.7-0.3C7.5,30,7.3,30,7.1,30.3z M9.2,31.3
	c0.2,0.1,0.5-0.1,0.3-0.2C9.4,31.2,9.3,31.1,9.2,31.3z M9.8,32.1c0.4,0.2,0.6,0.1,0.9-0.2C10.3,31.7,10,31.9,9.8,32.1z M16.9,39.2
	c0.8,0.7,1.3-0.2,2-0.2c-0.1,0.2-0.6,0.2-0.5,0.5c0.1,0,0.4-0.1,0.4,0c-0.2,0.4-0.6,0-0.8,0.4c0.9,0.4,1.6-0.7,2.3-1.1
	c-0.4-0.5-0.9-0.9-1.4-1.3C18.3,38,17.6,38.6,16.9,39.2z M17.6,37.5c0.4,0.1,0.7,0,1-0.2C18.2,36.9,17.9,37.3,17.6,37.5L17.6,37.5z
	 M11.7,34.6c0.5,0.6,1.4-0.3,1.7-0.7C12.8,34.1,12.3,34.3,11.7,34.6L11.7,34.6z M7.3,31.4c0.4-0.1,0.8-0.4,1.1-0.7
	c-0.4-0.2-0.8,0-1,0.3C7.4,31.1,7.3,31.2,7.3,31.4z M7.6,31.6c0.4,0.3,1,0.1,1.3-0.3c0-0.1,0.1-0.2,0.1-0.3
	C8.4,30.9,8,31.3,7.6,31.6z M15.9,36.4c-0.3,0.6-0.8,0.3-1.2,0.9c0.4,0.2,0.5,0.5,0.9,0.7c0.7-0.4,1.7-0.5,2.2-0.9
	C17.2,36.8,16.6,36.6,15.9,36.4L15.9,36.4z M22.2,40.7c-0.2-0.6-1.1-1.1-1.6-1.7c-0.6,0.3-1.2,0.7-1.6,1.2c1.6,0.6,3.2,1,4.9,1.4
	C23.6,41.1,22.8,41.1,22.2,40.7z M6.3,30c0.2,0.1,0.3,0,0.4-0.2l-0.2-0.1C6.4,29.7,6.4,29.8,6.3,30z M9.8,32.9
	c0.2,0.5,0.9,0.2,1-0.3c-0.3-0.2-0.7-0.2-0.9,0.1C9.9,32.7,9.8,32.8,9.8,32.9L9.8,32.9z M16.4,38.2c0.2,0.1,0.5,0.3,0.7,0.5
	c0.4-0.3,0.8-0.6,1.2-0.9c0,0,0-0.1-0.1-0.1C17.6,37.8,17,37.9,16.4,38.2L16.4,38.2z M4.3,29.5c0.2-0.3,0.5-0.6,0.3-0.8
	C4.3,28.8,4,29.3,4.3,29.5z M11.6,34.2c0.2,0.1,0.7-0.1,0.7-0.4C12.2,34,11.8,33.9,11.6,34.2L11.6,34.2z M9.3,32.4
	c0,0.2,0.2,0.3,0.3,0.2c0.1,0,0.2-0.1,0.2-0.3C9.7,32.3,9.4,32.2,9.3,32.4L9.3,32.4z M5.6,30.4c0.2,0.2,0.4,0,0.6-0.2
	C5.9,29.9,5.7,30.1,5.6,30.4z M18.6,40.5c0.6,1,1.9,1.8,2.8,2.7c0.7-0.5,1.4-0.8,2.1-1.3C22,41.1,20.3,40.6,18.6,40.5L18.6,40.5z
	 M6.3,30.9c0.2,0.2,0.4,0,0.6-0.2C6.6,30.6,6.3,30.7,6.3,30.9L6.3,30.9z M7.4,32.9c0,1.1,1.3,0.6,1.7-0.5C8.5,32.2,8,32.6,7.4,32.9
	L7.4,32.9z M13.6,36.2c0.4,0.5,1.1,0.3,1.6,0.2C14.6,36.2,14,35.8,13.6,36.2L13.6,36.2z M6.4,31.4c0.2,0.1,0.6-0.1,0.4-0.3
	C6.7,31.2,6.5,31.2,6.4,31.4z M8.7,33.3c0.2,0.1,0.4-0.2,0.6-0.3c0-0.1-0.1-0.1-0.1-0.2C9,32.9,8.8,33.1,8.7,33.3z M5.5,31
	c0.2,0.1,0.5,0.1,0.6-0.2c-0.1-0.1-0.3-0.2-0.5-0.1C5.5,30.8,5.5,30.9,5.5,31L5.5,31z M7.3,32c0.1,0.3,0.3,0.2,0.4,0
	C7.6,31.9,7.4,31.8,7.3,32L7.3,32z M9.1,33.3c0.1,0.3,0.5,0.2,0.7,0C9.6,33.3,9.2,33,9.1,33.3L9.1,33.3z M8.9,34.2
	c0.6,0.3,1.3,0.2,1.8-0.2C9.9,33.5,9.4,33.9,8.9,34.2L8.9,34.2z M14.4,36.8c0,0.1,0.2,0.2,0.3,0.2c0.1,0,0.1-0.1,0.2-0.2
	C14.7,36.7,14.5,36.7,14.4,36.8L14.4,36.8z M10.4,34.6c0.1-0.1,0.3,0.1,0.5,0c0.1-0.1,0.3-0.3,0.1-0.4
	C10.7,34.5,10.3,34.4,10.4,34.6L10.4,34.6z M11.4,34.7c-0.2,0.2,0.3,0.4,0.3,0.1C11.6,34.7,11.5,34.7,11.4,34.7L11.4,34.7z
	 M6.2,32.6C6.4,32.8,7.4,32.4,7,32C6.7,31.8,6.4,32.2,6.2,32.6L6.2,32.6z M10.4,36.4c0.8,0,1.6-0.2,2.3-0.5
	C11.8,35.2,11.1,35.8,10.4,36.4L10.4,36.4z M11.1,35.1c0.1,0.1,0.4,0.2,0.5,0.1C11.4,35,11.2,35,11.1,35.1L11.1,35.1z M11.3,37.2
	c1,0.2,2.2,0.8,3,0C13.5,36.5,12.2,36.5,11.3,37.2L11.3,37.2z M11.9,36.4c0.2,0.2,0.9,0,0.8-0.2C12.4,36.3,12.2,36.2,11.9,36.4
	L11.9,36.4z M14.2,37.8c0.2-0.1,0.5,0.2,0.7,0C14.8,37.3,14.1,37.4,14.2,37.8L14.2,37.8z M5.6,32.2c0.3,0.1,0.6-0.3,0.3-0.6
	c-0.2,0-0.4,0.2-0.3,0.4C5.5,32.2,5.5,32.2,5.6,32.2L5.6,32.2z M14.9,38.5c0.3,0.1,0.6,0.1,0.8,0C15.5,38.1,15.1,38.4,14.9,38.5
	L14.9,38.5z M8.2,34c0.2,0.1,0.4,0,0.5-0.2C8.5,33.7,8.4,33.8,8.2,34L8.2,34z M10.5,35.8c0.3,0.1,0.5-0.1,0.6-0.3L11,35.4
	C10.8,35.5,10.6,35.6,10.5,35.8L10.5,35.8z M14.7,39c0.6,0.2,1.2,0.6,1.7,0.1C16,38.7,15.3,38.9,14.7,39z M16.5,39.2l-0.1,0.2
	c0.2,0.1,0.4,0.3,0.5,0.1C16.8,39.4,16.8,39.2,16.5,39.2L16.5,39.2z M6.6,33.3c0.2,0,0.5,0.1,0.6,0c-0.1-0.1,0-0.3-0.2-0.4
	C7,33.1,6.6,33.1,6.6,33.3z M12.8,38.6c0.7,0.1,1.5-0.1,2.2-0.4C14.3,37.7,13.3,37.9,12.8,38.6z M16.4,40.2c0.3,0.2,0.9,0.2,0.9,0.6
	c-0.9,0.5-2,0-2.9,0.4c0.2,0.5,0.6,0.9,1.1,1.1c0.8-0.7,1.7-1,2.6-1.9c-0.3-0.5-0.9-0.6-1.4-0.4C16.6,40.1,16.5,40.2,16.4,40.2z
	 M2.9,31.7c0.1-0.4,0.4-0.8,0.3-1.2C3,30.8,2.7,31.4,2.9,31.7z M16,42.3c1.1,0.2,2-0.6,2.8-1.2C17.9,40,16.9,42,16,42.3z M8.1,36.2
	c0.4,0.2,0.8,0.1,1.2,0.2c0.1-0.5,0.8-0.7,0.6-1C9.3,35.5,8.7,35.8,8.1,36.2L8.1,36.2z M15.8,40c0.3-0.1,0.7,0,0.8-0.3
	c-0.2-0.2-0.5-0.2-0.7,0C15.9,39.8,15.8,39.9,15.8,40L15.8,40z M17.2,42.4c0.3,0.2,0.6,0.2,0.9,0.5c0.1,0.2,0,0.4,0.1,0.5
	c0.6,0.3,1.3,0.2,1.7-0.2l-0.3,0.5c0.6,0.6,1-0.1,1.5-0.3c-0.6-0.7-1.3-1.4-2.1-2C18.5,41.9,17.8,41.8,17.2,42.4L17.2,42.4z M6.9,36
	c1,0.3,1.7-0.5,2.5-1C8.5,34.6,7.3,35.1,6.9,36L6.9,36z M6.1,33.8c0.4,0.2,1.1,0.4,1.2,0C6.9,33.7,6.3,33.4,6.1,33.8L6.1,33.8z
	 M53.1,64.8c-0.1,0.3-0.3,0.6-0.5,0.9c0.6,0.4,0.9-0.5,1.3-0.9C53.6,64.7,53.4,64.8,53.1,64.8L53.1,64.8z M12,37.6
	c-0.1,0.2-0.3,0.5-0.3,0.8c0.7,0.3,1.1-0.1,1.6-0.5C12.9,37.7,12.5,37.7,12,37.6z M12.4,39.7c1.1,0,2.5,0.8,3.4-0.1
	C14.5,39,13.4,38.8,12.4,39.7z M23.4,44.8c-0.2,0.2,0.3,0.4,0.3,0.1C23.6,44.8,23.5,44.7,23.4,44.8z M10.4,37.1c0.4,0.2,0.7,0,1-0.2
	C11.1,36.7,10.7,36.8,10.4,37.1z M21.3,43.4c-0.8,0.7-1.7,0.8-2.6,1.6c1.1,0.3,2.6,0.9,3.7,0.6c-0.4-0.2-1-0.2-1.3-0.5
	c0.7,0,1.5,0.7,2.1,0c-0.3-0.4-0.6-0.6-1.1-0.7C22.5,44.1,21.7,43.7,21.3,43.4z M7.7,34.9c0.1-0.1,0.3,0,0.4-0.1
	C8,34.5,7.7,34.7,7.7,34.9z M9.6,36.3c0.1,0.2,0.6-0.2,0.3-0.4C9.9,36.1,9.7,36,9.6,36.3L9.6,36.3z M6,35c0.5,0.1,0.9-0.3,1.3-0.5
	c-0.4-0.3-0.9-0.1-1.2,0.2C6.1,34.8,6,34.9,6,35L6,35z M15.5,40.6c0.3,0.2,0.6,0.1,0.9-0.1C16.1,40.4,15.8,40.4,15.5,40.6z
	 M57.4,68.6c0.1-0.1,0.5-0.2,0.4-0.4C57.7,68.3,57.3,68.4,57.4,68.6L57.4,68.6z M51.8,65.8c0.4,0.3,1.1-0.6,0.8-0.9
	C52.4,65.3,52.1,65.3,51.8,65.8L51.8,65.8z M22.7,45.8c0.5,0.2,1,0.3,1.5,0.2C23.7,46,23.1,45.5,22.7,45.8L22.7,45.8z M9.7,38
	c0.6,0.1,1.2,0.4,1.8,0.1c-0.2-0.2-0.6,0-0.7-0.4c0.2-0.1,0.4,0.2,0.6-0.2C10.7,37.2,10.2,37.7,9.7,38z M12,39.3
	c0.4,0.4,0.9-0.1,1.3-0.3C12.8,38.9,12.3,39,12,39.3L12,39.3z M2.7,33.1c0.1-0.3,0.5-0.6,0.3-0.8C2.9,32.6,2.8,32.8,2.7,33.1z
	 M3.5,33.3c0.1-0.1,0.2,0,0.3-0.2c0-0.1-0.1-0.1-0.1-0.2S3.5,33.1,3.5,33.3L3.5,33.3z M8.9,37.9c0.5,0.2,0.9-0.3,1.3-0.5
	C9.8,37.3,9.2,37.5,8.9,37.9L8.9,37.9z M12.8,40.1c0.5,0.8,1.6,0.4,1.7,0.1C14,40,13.4,40,12.8,40.1L12.8,40.1z M18.1,44.6l0.4,0.3
	c0.5-0.2,1-0.5,1.4-0.9C19.2,43.5,18.7,44.1,18.1,44.6L18.1,44.6z M51.9,66.8c0.4,0.2,1-0.5,0.9-0.9C52.5,65.9,52,66.4,51.9,66.8
	L51.9,66.8z M5.6,35.8C6,36.2,6.2,35.5,6.5,36c0.1-0.1,0.3-0.3,0.4-0.5C6.4,35.4,6,35.7,5.6,35.8z M16.9,43.5c0.3,0.3,0.6,0.6,1,0.8
	c0.3-0.2,0.6-0.2,0.9-0.6C18.2,43.4,17.6,43.4,16.9,43.5L16.9,43.5z M51.9,70.7c1.5-0.5,2.8-1.3,3.9-2.4
	C54.5,69,53.1,69.8,51.9,70.7z M16.3,42.9c0.5,0.1,1,0.4,1.5,0.2C17.4,42.9,16.6,42.5,16.3,42.9z M52.1,68.1c0.6,0,1.2-0.7,1.7-1.1
	C53.1,66.6,52.4,67.2,52.1,68.1z M6.6,37.8c0.2,0.2,0.5,0.3,0.8,0.4C8,38,8.6,37.7,9,37.3C8.2,37.2,7.4,37.4,6.6,37.8z M5.1,35.1
	c0.1,0.2,0.2,0.2,0.3,0.2c0.1-0.1,0.1-0.3,0-0.4c0,0,0,0-0.1-0.1C5.3,35,5.1,34.9,5.1,35.1L5.1,35.1z M19.3,45.6
	c0.5,0.4,1,0.8,1.5,1.2c0.3-0.3,1-0.5,1-0.8C21,45.9,20.2,45.4,19.3,45.6L19.3,45.6z M51,66.8c0.5,0.4,0.8-0.3,1.2-0.6
	C51.8,65.6,51.1,66.4,51,66.8z M3.2,34c0.1,0.2,0.5-0.1,0.3-0.3C3.3,33.9,3.2,33.8,3.2,34z M8,36.9c-0.6-0.5-1.6-0.3-2,0.3
	c0,0.1-0.1,0.1-0.1,0.2C6.6,37.4,7.4,37.3,8,36.9z M8.8,38.4c0.5,0.1,1.1,0.1,1.6,0C9.9,38.4,9.3,38,8.8,38.4L8.8,38.4z M10,38.9
	c0.1,0.1,0.1,0.3,0.2,0.4c0.3,0,0.6-0.1,0.7-0.4C10.7,38.8,10.3,38.8,10,38.9L10,38.9z M11.4,39.6c0.1-0.1,0.3,0.1,0.4-0.1
	c-0.1-0.1-0.1-0.2-0.2-0.2C11.4,39.2,11.2,39.4,11.4,39.6L11.4,39.6z M11.6,40c0.3,0.3,0.8,0.4,1.2,0.5C12.4,40.1,12,39.5,11.6,40
	L11.6,40z M50.3,66.8c0.3-0.2,0.6-0.5,0.8-0.8l-0.2-0.1C50.8,66.1,50.2,66.6,50.3,66.8L50.3,66.8z M53.2,67.9c0.1,0,0.3-0.2,0.2-0.3
	C53.3,67.5,53.1,67.8,53.2,67.9L53.2,67.9z M12.8,41.9c0.6,0.3,1.3,0.3,2,0.2C14.1,41.2,13.4,41.4,12.8,41.9z M11.1,39.6
	c-0.2,0.2,0.3,0.4,0.3,0.1C11.3,39.6,11.2,39.6,11.1,39.6L11.1,39.6z M10.4,41.7c1.1,0.3,2.2,0.1,3.1-0.6
	C12.4,40.9,11.3,41.1,10.4,41.7L10.4,41.7z M10.2,40.8c0.8,0,1.8,0.2,2.3-0.2C11.6,40.1,10.8,40,10.2,40.8L10.2,40.8z M48.4,71.1
	c1.4-0.1,1.9-1.6,3.1-2.8c-0.4-0.2-0.7,0.7-1.1,0.9c0.5-1,1.2-1.4,1.6-2.2l-0.2-0.1C50.7,68.3,49.6,69.7,48.4,71.1L48.4,71.1z
	 M4.7,36.7c0,0.1,0,0.2,0,0.3c0.2,0.1,0.4,0.2,0.7,0.2c0.2-0.1,0.5-0.6,0.4-0.8C5.3,36.4,4.9,36.3,4.7,36.7L4.7,36.7z M14.1,42.4
	c0.3,0.2,0.6,0.2,0.9,0.1C14.7,42.4,14.4,42.4,14.1,42.4L14.1,42.4z M15.3,43.7c0.7,0.2,1.5,0.8,2.3,0.8
	C17.1,43.7,15.9,43.2,15.3,43.7L15.3,43.7z M10.7,39.9c-0.1,0.1-0.1,0.2,0,0.3c0.1,0.1,0.2,0,0.3-0.2C10.9,40,10.8,39.9,10.7,39.9z
	 M14.7,43.2c0.2,0.1,0.5,0,0.6-0.2C15.1,42.8,14.9,42.9,14.7,43.2L14.7,43.2z M2,34.6c0.3,0.2,0.3-0.2,0.2-0.3
	C2.1,34.5,2.1,34.4,2,34.6L2,34.6z M8,40.8c0.7,0.2,1.5,0.1,2.1-0.4c-0.1-0.2,0-0.4,0.2-0.6C9.5,39.5,8.8,40.3,8,40.8L8,40.8z
	 M51.6,69.8c-0.3-0.1-0.6,0-0.8,0.4c1,0,1.5-1,2.4-1.9C52.6,68,51.6,69.2,51.6,69.8L51.6,69.8z M18,45.3c0.3,0.2,0.5,0.2,0.7,0.5
	c-0.1,0.1-0.1,0.3-0.2,0.4c0.3,0,0.6-0.1,0.8-0.4C19.2,45.6,18.4,44.9,18,45.3z M49.9,68.5c-1.1,0-1.6,2-2.1,2.6
	c0-0.7,0.7-1.6,1.1-2.3c-0.9,0.8-1.2,1.4-2,2.3c-0.1,0.2,0.4-0.1,0.3,0.1s-0.3,0.3-0.4,0.5c1.4,0.4,3-1.9,3.5-3.2
	c0.5,0.1,1-1,1.2-1.3c-0.8-0.4-1.2,0.6-1.8,1.2C49.6,68.5,49.7,68.4,49.9,68.5z M18.4,46.8c0.3,0.2,0.6,0.5,1,0.8
	c0.4-0.2,0.9-0.4,1.2-0.8C19.9,45.9,19,46.2,18.4,46.8z M20.3,48.4c0.6,0.6,1.3,1.1,2,1.7c0.7-0.2,1.3-0.6,1.9-1
	C22.9,48.7,21.6,48.5,20.3,48.4L20.3,48.4z M3.7,35.9C3.9,36,4,36,4.1,35.8C3.9,35.7,3.8,35.7,3.7,35.9z M13.3,42.6
	c0.2,0.2,0.5,0.4,0.8,0.6c0.1-0.1,0.6-0.3,0.4-0.5C14.1,42.8,13.7,42.4,13.3,42.6z M51.6,68.1c0.2,0,0.4-0.4,0.3-0.6
	C51.8,67.7,51.3,68,51.6,68.1L51.6,68.1z M19.7,47.9c1,0.4,2,0.6,3,0.7C21.8,47.5,20.4,46.6,19.7,47.9z M8.1,39.2
	c-0.2,0.3-0.3,0.5-0.5,0.7c0.6,0.1,1.2,0,1.7-0.4C9,39.2,8.4,39.3,8.1,39.2z M14.8,43.8c0.6,0.6,1.7,1.2,2.1,0.8
	C16.2,44.4,15.4,43.7,14.8,43.8L14.8,43.8z M17.3,45.1c0.2,0.1,0.4,0.2,0.6,0C17.6,45,17.4,45,17.3,45.1L17.3,45.1z M50.9,69.6
	c0.5,0,1.3-0.9,1.4-1.4C51.7,68.2,51.3,69.1,50.9,69.6L50.9,69.6z M5.4,38.1c0.5,0.2,1,0.3,1.6,0.2C6.6,37.9,5.8,37.6,5.4,38.1z
	 M17.2,45.8c0.3,0.4,0.8,0.5,1.2,0.3c0,0,0.1,0,0.1-0.1C18.2,45.5,17.5,45.4,17.2,45.8z M48.9,68.4c0.6-0.3,1-0.8,1.2-1.4
	C49.7,67.4,49.3,67.9,48.9,68.4z M3.4,38c0.4,0.1,0.7-0.2,1.1-0.5C4.6,36.4,3.5,37.1,3.4,38z M7.1,39.2c-0.3-0.7-1.2,0.2-1.7,0.4
	c0.3,0,0.4,0.1,0.6,0.3c0.4,0,0.7-0.2,1.1,0.1l0.6-0.9C7.5,38.9,7.3,39.2,7.1,39.2z M12.2,42.5c0.2,0.1,0.5,0.3,0.7,0.2
	C12.8,42.5,12.4,42.3,12.2,42.5L12.2,42.5z M16.8,45.3c-0.2,0.2,0.3,0.5,0.3,0.1C17,45.3,17,45.4,16.8,45.3L16.8,45.3z M13.7,43.9
	c0.1-0.2,0.3-0.1,0.4-0.2C14,43.5,13.7,43.7,13.7,43.9L13.7,43.9z M13.8,44.2c0.4,0.1,0.8,0.3,1.2,0.1
	C14.6,43.8,14.1,43.7,13.8,44.2L13.8,44.2z M47.9,68.4c0.4,0.5,1.4-0.7,1.5-1.2C48.8,67.4,48.3,67.8,47.9,68.4L47.9,68.4z M1.8,36.3
	c0.2,0.1,0.6-0.3,0.3-0.5L1.8,36.3z M11.8,42.6c-0.2,0.2-0.2,0.4-0.3,0.5c0.6,0.1,1.2,0.2,1.8,0C12.8,42.9,12.3,42.7,11.8,42.6z
	 M13.6,44.5c0.6,0.3,1.7,0.5,1.9,0.2C14.9,44.7,14.2,44.4,13.6,44.5L13.6,44.5z M41.4,66.3c-0.3,0.3-0.5,0.6-0.8,1
	c1.2,0.3,2.5,0.1,3.5-0.7C43.2,66.4,42.3,66.4,41.4,66.3L41.4,66.3z M44.3,66.5c0.4-0.6,0.8-1.2,1.1-1.8c-1.4,0.1-2.7,0.6-3.8,1.3
	C42.5,66.5,43.3,66.2,44.3,66.5z M2.8,37.2c0.2,0.1,0.3-0.2,0.5-0.3C3.1,36.8,2.9,37,2.8,37.2z M16,46.4c0.4,0,0.9,0,1.3-0.2
	C17,45.8,16.4,46.1,16,46.4z M11.2,43.7c0.4,0.5,1.1,0,1.7,0.4C13.9,43.3,11.6,43.5,11.2,43.7z M14.4,46.5c0.8,0.2,1.6-0.1,2.1-0.8
	C15.7,45.5,15,46,14.4,46.5z M16.1,46.9c0.3,0.1,0.5,0.3,0.8,0.4c0.3-0.3,0.7-0.3,1-0.5C17.4,46.4,16.6,46.8,16.1,46.9z M44.1,67.5
	c0.6,0.2,1,0,1.6,0.2c0.6-0.5,1.1-1,1.6-1.6C46.2,66.6,44.8,66.3,44.1,67.5z M7.3,40.5c0.3,0.2,0.6,0,0.8-0.3
	C7.8,40.2,7.4,40.3,7.3,40.5z M17,47.5c0.7,0,1.5,0.5,2.1,0.2C18.5,46.9,17.7,46.8,17,47.5L17,47.5z M8.7,43c1,0.6,1.7-0.1,2.4-0.6
	c-0.7-0.5-1.7-0.4-2.2,0.3C8.9,42.7,8.8,42.8,8.7,43L8.7,43z M5.1,38.9c0.2,0.2,0.4-0.1,0.6-0.1C5.4,38.6,5.2,38.6,5.1,38.9
	L5.1,38.9z M11.7,45.8c1.3,0.6,3.1,0.8,3.7-0.4C14.1,45.1,12.4,43.8,11.7,45.8L11.7,45.8z M19.8,48.3c-0.8,0.4-1.6,0.8-2.3,1.4
	c1.6,0.4,3.1,1.8,4.5,0.5C21.3,49.5,20.5,48.9,19.8,48.3L19.8,48.3z M17.1,49.4c0.8-0.3,1.6-0.7,2.3-1.1c0-0.1-0.1-0.1-0.1-0.2
	C18.5,48.5,17.8,48.9,17.1,49.4L17.1,49.4z M38.5,65.8c1.6,0.7,3.5-0.1,4.2-1.7c0.1-0.1,0.1-0.2,0.1-0.4
	C41.4,64.2,39.6,64.4,38.5,65.8L38.5,65.8z M46.9,68.5c0.6,0.3,1.4-0.5,1.4-1C47.8,67.7,47.3,67.7,46.9,68.5L46.9,68.5z M8.3,41.5
	c0.2,0.1,0.4,0.2,0.5,0C8.6,41.2,8.5,41.4,8.3,41.5z M15.6,48.3c0,0.2,0.5,0.1,0.5,0.4c-0.4,0.1-0.9-0.6-1.2-0.1
	c0.6,0.5,1.3,0.2,1.7,0.4c-0.3,0.2-0.7,0.1-1,0.2c0.1,0.2,0.5,0.3,0.6,0.5c0.8-0.6,2.1-1,2.5-1.7C17.6,47.9,16.4,47.3,15.6,48.3z
	 M21.8,50.8c0.4,0,0.7,0.3,1.1,0C22.5,50.3,21.8,50.3,21.8,50.8z M3.3,38.7c0.1,0.2,0.1,0.4,0.2,0.6c0.2-0.1,0.7-0.6,0.5-0.8
	C3.7,38.6,3.4,38.5,3.3,38.7L3.3,38.7z M7.6,41.3c0.2,0.2,0.5,0.1,0.6-0.1C8,41,7.7,41.1,7.6,41.3C7.5,41.3,7.5,41.3,7.6,41.3
	L7.6,41.3z M1.9,38.1c0.1-0.3,0.4-0.5,0.3-0.7C2.1,37.6,1.7,37.9,1.9,38.1z M7,42.4c0.5,0.5,1.4,0.4,1.9-0.1c0-0.1,0.1-0.1,0.1-0.2
	C8.4,41.6,7.5,42,7,42.4L7,42.4z M50.2,70.2c0.2,0.1,0.5-0.3,0.5-0.4C50.5,69.9,50.4,70.2,50.2,70.2L50.2,70.2z M5.4,40.5
	c0.3,0.1,0.6,0,0.8-0.2C6,40.2,5.7,40.1,5.4,40.5z M6.3,40.8c0.1,0.1,0.2,0,0.3-0.1C6.5,40.6,6.4,40.6,6.3,40.8L6.3,40.8z
	 M10.9,44.1c0.3,0.2,1,0.3,0.9,0C11.5,44.2,11.2,44,10.9,44.1L10.9,44.1z M14.5,47.1c0.6,0.1,1.2,0.2,1.7,0.2
	C16.1,47.1,14.9,46.6,14.5,47.1L14.5,47.1z M4.5,40.1C4.7,40.2,5,40.2,5.1,40c0,0,0,0,0-0.1C5,39.8,4.7,39.8,4.5,40.1
	C4.5,40,4.5,40.1,4.5,40.1L4.5,40.1z M46.7,69.9c0.7,0.4,1.1-0.6,1.6-1.1C47.7,68.3,47,69.3,46.7,69.9z M46.9,68
	c-0.9-0.2-1.7,0.3-2.1,1.1c0.5-0.1,1.1,0.3,1.5-0.2c-0.2-0.2-0.4,0.1-0.6-0.1C46.1,68.7,46.8,68.7,46.9,68z M50.8,71.2
	c0.1,0.2,0.5,0,0.7-0.2C51.2,70.8,51,71,50.8,71.2L50.8,71.2z M10.6,44.6c-0.1,0.3,0.1,0.5,0.4,0.7c0.2-0.1,0.7-0.3,0.7-0.7
	C11.3,44.5,10.9,44.3,10.6,44.6z M2.7,39.8c0.2,0.1,0.4,0,0.5-0.2C3.1,39.4,3.3,39.2,3,39C2.9,39.2,2.8,39.5,2.7,39.8L2.7,39.8z
	 M6.3,41.8c0.3,0.1,0.5,0,0.7-0.1C6.7,41.4,6.5,41.5,6.3,41.8L6.3,41.8z M13.7,47.6c0.6,0.6,1.6,0.7,2.3,0.1
	C15.2,47.5,14.3,47.1,13.7,47.6L13.7,47.6z M9.2,43.7c0.2,0.1,0.4,0.1,0.5-0.1c0,0,0,0,0,0C9.6,43.5,9.4,43.5,9.2,43.7
	C9.2,43.7,9.2,43.7,9.2,43.7z M18.2,51.3c0.7,1.1,1.6,0,2.3-0.4C19.6,50.4,18.9,51.2,18.2,51.3z M46.5,69c0.3,0.1,0.6,0,0.8-0.2
	C47.1,68.6,46.7,68.6,46.5,69z M4.5,40.5c-0.1,0.1-0.2,0.3-0.1,0.4c0.1-0.1,0.4-0.2,0.2-0.3C4.6,40.5,4.6,40.5,4.5,40.5L4.5,40.5z
	 M36.7,65.4c1,0,1.7-1,2.5-1.9C38,63.4,36.9,64.2,36.7,65.4C36.7,65.4,36.7,65.4,36.7,65.4L36.7,65.4z M10,44.2
	c-0.3,0.2-0.6,0.6-0.8,0.8c0.1,0.2,0.4,0.3,0.6,0.3c0.2-0.4,0.2-0.6,0.5-0.8C10.3,44.2,10.1,44.4,10,44.2L10,44.2z M11.9,46.2
	c0.5,0.5,1.1,0.7,1.6,0.4C13.1,46.4,12.3,46,11.9,46.2L11.9,46.2z M13.3,47c0.3,0.2,0.6,0.2,0.8,0C13.9,46.9,13.6,46.9,13.3,47
	L13.3,47z M48.8,72.2c0.6-0.2,1.3-0.5,1.8-0.8c0,0,0-0.1-0.1-0.1C50,71.5,49.1,71.6,48.8,72.2L48.8,72.2z M45.4,68
	c-0.5-0.3-1.9-0.6-1.9,0.6C44.2,68.4,44.8,68.2,45.4,68L45.4,68z M38.3,64.8c0.4,0.3,1.1-0.7,0.8-1C38.8,64.1,38.5,64.4,38.3,64.8
	L38.3,64.8z M16.7,50.2c0.7,0.1,1.4,0.2,2,0.2C18.3,50.1,17,49.4,16.7,50.2z M6.8,42.7c-0.1,0.1-0.2,0.3-0.2,0.4
	c0.3,0.2,0.6,0.1,0.8-0.1C7.3,42.8,7.1,42.7,6.8,42.7z M8.3,44.9c0.1,0.2,0.2,0.1,0.4,0.2c0-0.4,0.9-0.3,0.7-0.9
	C9,44.5,8.6,44.5,8.3,44.9L8.3,44.9z M2.4,40.4c0.2,0.2,0.5-0.1,0.4-0.3C2.7,40.2,2.5,40.2,2.4,40.4L2.4,40.4z M46.6,69.3
	c-0.3,0.1-0.6,0.1-0.9,0.5C46.1,70.1,46.8,69.6,46.6,69.3L46.6,69.3z M10.2,45.1c0,0.1-0.1,0.1-0.1,0.2c0.1,0,0.3,0.2,0.4,0
	C10.6,45.2,10.2,45.1,10.2,45.1L10.2,45.1z M17.3,50.6c0.4,0.4,0.9,0.3,1.4,0.1C18.2,50.6,17.7,50.4,17.3,50.6L17.3,50.6z
	 M29.7,64.3c0.3,0.2,0.6,0,0.9,0.2c0.1,0.1,0,0.2-0.1,0.4c1.5,0.7,2.6-1.2,3.8-1.2c-0.5,0.4-1.8,0.7-1.6,1.5c-0.6-0.3-1,0.2-1.4,0.5
	c1.8,0.5,3.3-2.3,4.6-3.5C33.8,62.7,31.7,63.4,29.7,64.3z M7.5,44.8c0.5,0.2,0.8-0.3,1.1-0.5C8.4,43.9,7.9,44.4,7.5,44.8z M7.9,44.1
	c0.1,0.1,0.2,0,0.3-0.2C8.1,43.8,8,43.9,7.9,44.1L7.9,44.1z M11,46.8c0.3-0.2,0.7,0.1,1-0.2c-0.2-0.2-0.4-0.4-0.6-0.5
	C11.3,46.2,10.9,46.6,11,46.8L11,46.8z M42.8,67.6c0.1,0.1,0.3,0.1,0.4,0c0,0,0-0.1,0-0.1C43.1,67.3,43,67.4,42.8,67.6L42.8,67.6z
	 M42.4,69.8c0.6,0,1.2,0.1,1.7-0.5c-0.2-0.2-0.3,0-0.5-0.2c0.2-0.1,0.5,0,0.8-0.1c0.1-0.3,0.3-0.3,0.5-0.6c-0.6,0-1.3,0.2-1.8,0.5
	c0.1,0.2,0.4,0,0.4,0.2c-0.4-0.1-0.8,0.1-0.9,0.6C42.5,69.8,42.5,69.8,42.4,69.8L42.4,69.8z M12.7,47.4c0.2,0.1,0.4,0.3,0.5,0.1
	C13.3,47.3,12.7,47.2,12.7,47.4z M6.1,44.5c0.3,0.1,0.7,0.2,1,0.2c0.3-0.2,0.5-0.5,0.6-0.9C7.1,43.5,6,43.6,6.1,44.5z M9.3,46.6
	c0.5,0.1,1-0.4,1.3-0.6c-0.4,0-0.2-0.2-0.5-0.4C9.8,45.6,9.4,46.3,9.3,46.6L9.3,46.6z M12.4,47.6c-0.1,0.4-0.5,0.8-0.6,1.2
	c0.6,0,1.7,0.2,2.4-0.3C13.9,47.8,13,47.8,12.4,47.6L12.4,47.6z M42.2,68.8c0.6,0.2,0.9-0.5,1.3-1c0-0.1-0.1-0.1-0.1-0.2
	C43,68,42.6,68.4,42.2,68.8L42.2,68.8z M33,65.6c0.3,0.1,0.6,0.1,0.9,0.1c0.7-0.9,1.3-1.9,1.8-3C34.7,63.6,33.8,64.6,33,65.6
	L33,65.6z M13.5,49.2c0.8,0.3,1.7,0.5,2.5,0.6C15.4,49,14.3,48.7,13.5,49.2L13.5,49.2z M39.8,66.6c0.3,0.1,0.6,0.1,0.9,0.3
	C41.5,66,39.8,66.1,39.8,66.6z M45.3,71.4c0.3,0.1,0.2,0.5,0.7,0.4c0-0.6,0.8-1,0.8-1.5C46.2,70.2,45.8,70.9,45.3,71.4L45.3,71.4z
	 M3,42c0.2-0.1,0.7-0.3,0.5-0.6C3.3,41.4,2.8,41.8,3,42z M9.1,45.3c-0.2,0.4-0.5,0.8-0.3,1.1c0.4-0.2,0.7-0.5,0.8-0.9
	C9.3,45.3,9.2,45.5,9.1,45.3z M39.4,69.6c0.6,0,1.1-0.1,1.6-0.4C40.4,68.8,39.7,69,39.4,69.6L39.4,69.6z M42.9,67.7
	c-1.1-0.2-2.2,0.2-2.8,1.2C41.3,69.4,42.2,68.8,42.9,67.7L42.9,67.7z M44.4,69.5c0.2-0.1,0.5,0,0.7-0.3
	C44.9,69.2,44.4,69.1,44.4,69.5L44.4,69.5z M45.7,69.6c-1-0.1-2,0.3-2.5,1.2c0.6-0.2,1.4,0,2-0.6c-0.3-0.2-0.8-0.1-0.9-0.3
	C44.7,69.9,45.3,70.2,45.7,69.6L45.7,69.6z M15,51.1c0.7,0.1,1.5,0.1,2.2-0.1C16.8,50.2,15.6,50.4,15,51.1L15,51.1z M34.4,65.7
	c1,0.3,2.1-0.2,2.4-1.3c0-0.1,0.1-0.3,0.1-0.4C36,64.5,35.2,65,34.4,65.7L34.4,65.7z M37.6,65.9c0.3,0.1,1-0.4,0.9-0.9
	C38.2,65.1,37.5,65.4,37.6,65.9L37.6,65.9z M15.1,51.5c1,1.2,2.4,0.5,3.4,0.5C17.5,50.7,16.2,51.5,15.1,51.5L15.1,51.5z M17.3,53.1
	c0,0.1,0.1,0.1-0.1,0.2c0.7,1.2,2.5,1.6,3.1-0.1c-0.8-0.3-1.7,0.2-2.4,0.1c0.5-0.4,1.1-0.2,1.6-0.4C19,51.6,18.1,52.8,17.3,53.1z
	 M7,45.9c0.7,0.5,1.1,0,1.6-0.6c-0.4-0.3-1.1-0.2-1.4,0.2C7.1,45.6,7,45.8,7,45.9z M10.8,47.1c-0.2,0.1-0.4,0.4-0.4,0.6
	c0.5,0.2,1,0,1.3-0.4C11.3,47.2,11,47.3,10.8,47.1L10.8,47.1z M12.8,49.5c0.6,1,2.1,0.6,2.7,0.4C14.6,49.9,13.6,49.3,12.8,49.5
	L12.8,49.5z M2.2,42.4C3.3,41.4,1.5,41.4,2.2,42.4z M22.5,55.9c0.5,0.1,1,0.1,1.5-0.1C23.5,55.9,22.6,55.5,22.5,55.9L22.5,55.9z
	 M38.3,66.1c-0.2,0.2-0.2,0.4-0.3,0.6c0.6,0,1.1-0.2,1.5-0.5C39.1,66.1,38.6,66.1,38.3,66.1L38.3,66.1z M37.8,67.1
	c0.8,0,1.7,0.6,2.4-0.2C39.2,66.3,38.5,66.9,37.8,67.1L37.8,67.1z M40.5,67.5l-0.3,0.5c0.3,0,1.1-0.1,1-0.4
	C40.9,67.5,40.7,67.5,40.5,67.5L40.5,67.5z M45.1,70.7c0.2,0.3,0.7,0.1,0.5-0.2C45.4,70.6,45.2,70.6,45.1,70.7L45.1,70.7z M8.1,46.2
	c0.1,0.2,0.2-0.1,0.3,0c0.1-0.1,0.2-0.3,0-0.4C8.3,46,8.1,46,8.1,46.2L8.1,46.2z M7,45l-0.2-0.2C6.5,45.1,6.9,45.3,7,45L7,45z
	 M13.9,50.5c0.5,0.5,1,0.8,1.3,0C14.7,50.2,14.2,50.2,13.9,50.5L13.9,50.5z M11,48.2c0.2,0.2,0.4-0.1,0.2-0.2
	C11.1,48,11,48.1,11,48.2L11,48.2z M20.8,54.3c-0.6,0.1-1.4,0-1.6,0.7c0.4,0.2,0.5,0.5,0.9,0.7C20.2,55.2,20.9,54.7,20.8,54.3
	L20.8,54.3z M37.5,65.3c-0.3,0.2-0.7,0.1-0.9,0.5C36.8,66,37.5,65.9,37.5,65.3L37.5,65.3z M16.3,52.5c0.2,0.1,0.2,0.3,0.5,0.4
	s0.6-0.4,0.9-0.5C17.2,52.3,16.7,52.3,16.3,52.5L16.3,52.5z M5.7,45c0.2,0.2,0.3-0.1,0.4-0.2l-0.2-0.1C5.8,44.8,5.7,44.9,5.7,45
	L5.7,45z M44.8,72.1c0.4,0.1,1.7,0,1.8-0.3C46,72,45.3,71.6,44.8,72.1z M20.2,56c0.7,0.3,1.5,0.2,2.1-0.2
	C21.8,55.6,20.5,55.1,20.2,56z M38.4,68.5c0.6,0.1,1.5-0.2,1.6-1C39.4,67.5,38.9,68.1,38.4,68.5L38.4,68.5z M41.3,69.7
	c0.4,0.2,0.8,0.1,1.1-0.2c0.1-0.1,0.1-0.2,0.1-0.3C42,69,41.4,69.3,41.3,69.7L41.3,69.7z M36.9,66.7c0.3,0.1,0.5-0.3,0.7-0.5
	C37.2,65.9,37.1,66.3,36.9,66.7L36.9,66.7z M39.5,68.8c0.4,0.3,1.1-0.4,1.1-0.7C40.2,68.3,39.8,68.2,39.5,68.8L39.5,68.8z
	 M42.3,71.4c0.8,0,1.5-0.2,2.2-0.5C43.7,70.7,43,70.9,42.3,71.4L42.3,71.4z M10.3,48.5c0.2,0.1,0.5,0.3,0.6,0.1
	C10.8,48.2,10.4,48.3,10.3,48.5z M8.9,47.3c-0.2,0.1-0.4,0.3-0.5,0.5L9,48.2c0.2-0.1,0.3-0.3,0.5-0.4C9.4,47.5,9.2,47.6,8.9,47.3z
	 M11.6,49.2c-0.2,0.2-0.3,0.5-0.5,0.7c0.4,0.2,0.7-0.2,1.1-0.4C12,49.3,11.8,49.2,11.6,49.2z M41.5,71c0.5,0.2,1.3-0.2,1.7-0.7
	c-0.6-0.3-1.4,0-1.7,0.6C41.5,70.9,41.5,70.9,41.5,71L41.5,71z M44.5,71.6c0.2-0.1,0.4,0.1,0.6-0.2C44.8,71.2,44.4,71.3,44.5,71.6
	L44.5,71.6z M4.9,45.3c0.2,0.2,0.5-0.1,0.3-0.3C5.1,45,5,45,4.9,45.3z M12.4,50.4c0.2,0.1,0.4-0.1,0.6-0.2c0-0.1-0.1-0.2-0.3-0.3
	C12.4,50,12.5,50.1,12.4,50.4L12.4,50.4z M37,67.1c0.2,0,0.8-0.3,0.6-0.6C37.4,66.7,37,66.7,37,67.1z M12.2,50.5
	c0.4,0.5,1.1,0.6,1.5,0.3c0,0,0,0,0,0C13.3,50.1,12.6,50.6,12.2,50.5z M36.2,66c-0.2,0.3-0.5,0.7-0.6,1c0.6,0.5,1.1-0.5,1.3-0.9
	C36.7,65.9,36.4,66,36.2,66z M13.5,52.1c0.6,0.2,1.3,0.2,1.9,0c-0.2-0.5-0.7-0.8-1.3-0.6C13.8,51.6,13.6,51.8,13.5,52.1z M38.1,67.7
	c0.1-0.1,0.2,0,0.3-0.1c-0.3,0-0.7-0.2-1,0c-0.1,0.1,0.1,0.1,0.1,0.2c-0.3,0-0.7,0.6-0.8,0.9c0.9,0.4,1.6-0.3,2.4-0.9
	C38.7,67.4,38.5,67.8,38.1,67.7z M4,45.2c0.1,0,0.6-0.3,0.3-0.5C4.2,44.9,3.9,45,4,45.2L4,45.2z M9.8,48.8c0.1,0.1,0.1,0.2,0.3,0.3
	c0.1-0.1,0.2-0.1,0.3-0.3C10.2,48.7,9.9,48.5,9.8,48.8L9.8,48.8z M15.1,53.7c0.5,0,1.1-0.2,1.4-0.6c-0.1-0.2-0.5-0.4-0.8-0.6
	C15.4,52.8,15.2,53.2,15.1,53.7L15.1,53.7z M19.7,56.7c0.6,0,1.5,0,1.8-0.4C20.9,56.6,20.2,56.1,19.7,56.7L19.7,56.7z M15.6,54
	c0,0.3,0.4,0.5,0.6,0.7c0.4-0.4,0.6-0.8,0.8-1.3C16.4,53.1,16,53.6,15.6,54z M33,67.8c0.4,0,0.9,0.1,1.2-0.6
	c-0.2-0.2-0.5-0.1-0.5-0.3c0.4,0.1,0.8,0.2,1-0.1c-0.1,0.4,0.5,0.2,0.6,0.3c0.2-0.3,0.7-0.8,0.6-1.1C34.9,66.1,33.2,66.3,33,67.8
	L33,67.8z M6.9,47.6c0.1,0.3,0.8,0.2,0.8-0.2C7.5,47.2,7.1,47.4,6.9,47.6z M16.8,54.3c0.1-0.2,0.5-0.5,0.3-0.7
	C17,53.9,16.7,54.1,16.8,54.3z M17,54.5c0.4,0.1,0.7,0,1.1-0.1c-0.2-0.2-0.4-0.4-0.6-0.6C17.3,54,17.1,54.3,17,54.5z M40.5,69.7
	c0.2,0.1,0.4,0.1,0.5-0.1c0,0,0-0.1,0.1-0.1C40.9,69.4,40.6,69.5,40.5,69.7z M14,52.6c0.2,0.2,0.3,0,0.5,0.2c0,0.2-0.1,0.5,0.3,0.6
	C15.8,52.3,14.7,52.3,14,52.6z M16.6,55.1c0.3,0.7,1.1,0.4,1.4-0.1c0.1,0.1-0.1,0.3,0.1,0.4c0.2-0.3,0.5-0.3,0.5-0.6
	C17.9,54.7,17.2,54.5,16.6,55.1z M5,45.9c-0.3-0.5-0.9,0.3-1,0.8C4.3,46.7,4.7,46.4,5,45.9L5,45.9z M18.8,55.3
	c0.1,0,0.1-0.1,0.2-0.1C19,54.9,18.6,55.1,18.8,55.3L18.8,55.3z M17.6,56.1c0.8,0.3,1.6,0.3,2.3-0.1c-0.2-0.2-0.4-0.4-0.7-0.6
	C18.7,55.6,18,55.3,17.6,56.1L17.6,56.1z M40.7,70.3c0.3,0.1,0.5,0,0.8-0.2C41.1,69.9,40.9,69.9,40.7,70.3L40.7,70.3z M42.2,72.8
	c0.8,0.2,1.6,0,2.3-0.6C43.7,72.2,42.9,72.4,42.2,72.8L42.2,72.8z M8,48.2c-0.2,0.3-0.4,0.6-0.2,0.8c0.4,0.1,0.8-0.2,0.9-0.6
	C8.5,48.2,8.3,48.3,8,48.2z M42.3,74c1.2,0.1,2.4-0.3,3.4-0.9C44.5,73.2,43.4,73.5,42.3,74z M9.2,49.3c-0.2,0.3-0.4,0.6-0.6,0.8
	c0.3,0.3,0.5,0,0.7,0c0.2,0-0.2-0.2,0-0.4c0.2,0.1,0.3,0.1,0.5,0.1c0.1-0.1,0.2-0.2,0.2-0.3C9.7,49.1,9.6,49.4,9.2,49.3z M38.9,69.6
	c0.2-0.1,0.8-0.4,0.5-0.7C39.3,68.9,38.7,69.3,38.9,69.6z M10,50.1c0.1,0.1,0.1,0.2,0.3,0.3C10.9,50.2,10.4,49.3,10,50.1L10,50.1z
	 M36.1,67.6c0.3,0.1,0.7,0.1,1-0.2C36.8,67.3,36.3,67.3,36.1,67.6L36.1,67.6z M39.4,71.6c0.7-0.3,1.6,0,2.1-1c0-0.1-0.1-0.1-0.1-0.2
	C40.7,70.6,39.7,70.6,39.4,71.6L39.4,71.6z M2.4,45.4c0.1,0.1,0,0.3,0.2,0.4c0.3-0.1,0.5-0.4,0.6-0.7C2.8,44.8,2.6,45.3,2.4,45.4z
	 M10.9,50.4c-0.2,0.2,0.3,0.4,0.4,0.2C11.2,50.5,11,50.4,10.9,50.4L10.9,50.4z M19.2,57.7c0.6,0.1,1.8,0.3,2-0.6
	C20.6,57.4,19.6,56.8,19.2,57.7L19.2,57.7z M37.8,70.8c0.7-0.1,1.9,0,2.7-0.8C39.5,69.7,38.4,70,37.8,70.8L37.8,70.8z M24.9,62.6
	c1.2,0.3,2.1-0.3,3.1-0.7C27.1,61.6,25.5,61.3,24.9,62.6L24.9,62.6z M33.9,66.1c0.2,0.2,0.5,0,0.4-0.1C34.2,66,34,66,33.9,66.1
	L33.9,66.1z M37.1,69.4c0.6,0.1,1.3,0.5,1.7-0.3C38.2,68.8,37.6,68.9,37.1,69.4L37.1,69.4z M39,74.8c2.3,0.1,4.7-0.1,6.5-1.3
	C43.5,74.4,41,74.4,39,74.8L39,74.8z M6.8,48.4c0.2,0.2,0.4,0.1,0.6-0.2C7.2,48.1,7,48.3,6.8,48.4L6.8,48.4z M11.6,51.6
	c0.2,0.2,0.4,0.4,0.7,0.5c0.1-0.2,0.2-0.1,0.3-0.3c-0.1-0.3-0.5-0.4-0.8-0.3C11.8,51.5,11.7,51.6,11.6,51.6L11.6,51.6z M26,64.2
	c1.4,0,3.5,0.5,4.3-0.8C29,63.7,26.7,62.9,26,64.2L26,64.2z M41.1,71.5c0.4,0.1,0.7,0.3,1-0.2C41.7,71.2,41.4,71.3,41.1,71.5
	L41.1,71.5z M35.5,67.2l-0.3,0.4c0.3,0.2,0.6,0,0.8-0.2C36,67.1,35.7,67.4,35.5,67.2L35.5,67.2z M35.4,68.8
	c-0.3-0.1-0.5,0.1-0.8,0.4c0.1,0.2,0.7,0.2,0.9,0.1c0-0.1-0.2-0.2-0.1-0.3c0.1,0.1,0.3,0.2,0.5,0.1c0.1-0.6,0.9-0.8,0.7-1.5
	C36.2,67.6,35.1,68.2,35.4,68.8L35.4,68.8z M11,50.8c-0.2,0.1,0.1,0.2,0.1,0.3c0-0.1,0.1-0.1,0.1-0.2C11.1,50.8,11.1,50.9,11,50.8z
	 M21,58.2c0.3,0.1,0.6,0,0.9-0.1C21.6,58,21.3,58.1,21,58.2z M18.1,56.6c0.4,0.4,1,0.4,1.4,0C19.2,56.3,18.5,56.4,18.1,56.6
	L18.1,56.6z M25.1,61.1c0.3,0.3,0.9-0.1,0.8-0.2C25.7,61,25.4,60.9,25.1,61.1L25.1,61.1z M13.2,53c0.1,0.3,0.4,0.2,0.5-0.2
	C13.5,52.8,13.3,52.8,13.2,53L13.2,53z M32.2,66.6c-0.6-0.1-1,0.7-1.5,1c0.9,0.6,2.1-1.1,2.8-1.6C33,65.9,32.3,65.8,32.2,66.6
	L32.2,66.6z M41.4,72.5c0.4,0,0.9-0.1,1.3-0.3C42.3,72.1,41.8,71.9,41.4,72.5L41.4,72.5z M7.8,49.9c0.3,0.1,0.5-0.1,0.7-0.3
	c0-0.1-0.1-0.1-0.1-0.2C8.1,49.5,7.9,49.7,7.8,49.9z M14.3,53.4c-0.2,0.2-0.1,0.5,0,0.6c0,0,0.1,0.1,0.1,0.1
	c0.2-0.1,0.2-0.3,0.3-0.5C14.6,53.5,14.4,53.4,14.3,53.4z M34,67.7c0.3,0.2,0.8,0.1,1-0.2c0,0,0-0.1,0.1-0.1
	c-0.3-0.2-0.7-0.2-0.9,0.1C34.1,67.5,34.1,67.6,34,67.7z M9.8,51.7c0.4,0.2,0.7-0.2,1.1-0.5c-0.1-0.1-0.2-0.2-0.4-0.3
	C10.2,51.2,10,51.4,9.8,51.7z M4.6,47.9c0.2,0.2,0.5-0.3,0.4-0.4C4.9,47.5,4.8,47.7,4.6,47.9z M15.1,54.7c0.2,0.2,0.4,0,0.6,0
	c-0.1-0.1-0.2-0.3-0.3-0.4C15.2,54.4,15.1,54.6,15.1,54.7z M28.4,65.1c0.1,0.2,0.1,0.4,0.2,0.5c0.9,0.1,2.4,0.3,2.8-0.7
	C30.4,65.1,29.3,64.8,28.4,65.1L28.4,65.1z M36.5,68.7c-0.1,0.1-0.2,0.2-0.2,0.3c0.4,0.2,0.6-0.1,1-0.2C37,68.8,36.8,68.8,36.5,68.7
	L36.5,68.7z M11,52.9c0.5,0.3,0.8-0.2,1.1-0.5c-0.2-0.3-0.4-0.5-0.7-0.6C11.2,52.2,10.9,52.6,11,52.9z M8.7,50.8
	c0.2,0.2,0.6,0,0.4-0.3C9,50.6,8.8,50.5,8.7,50.8z M15.3,55.1c0.2,0.1,0.4,0.4,0.6,0C15.8,54.8,15.5,54.9,15.3,55.1L15.3,55.1z
	 M16.3,55.7c0.2,0.1,0.3,0,0.4-0.2l-0.2-0.1C16.4,55.5,16.3,55.6,16.3,55.7L16.3,55.7z M34.8,68.2c0.1,0.2,0.5-0.3,0.3-0.4
	C35.1,68,34.9,68,34.8,68.2z M35.6,70.5c0.9,0.1,1.8-0.2,2.5-0.7C37.3,69.4,36.2,69.7,35.6,70.5L35.6,70.5z M12.1,53
	c0.2,0.2,0.4-0.2,0.2-0.3C12.3,52.8,12.2,52.9,12.1,53z M12.2,54c0.4,0.4,0.7-0.3,1-0.6c-0.1-0.1-0.1-0.2-0.3-0.3
	C12.7,53.2,12.5,53.8,12.2,54L12.2,54z M22.6,60.9c0.2,0.1,0.4,0.1,0.6,0.2c0.2-0.3,0.2-0.6,0.2-0.9C23.1,60.3,22.8,60.6,22.6,60.9z
	 M5.8,49c0.1,0.2,0.4-0.1,0.3-0.3C6.1,48.9,5.9,48.7,5.8,49z M37.8,71.4c0.4,0.4,1.6,0.1,1.6-0.6C38.9,71.1,38.3,70.9,37.8,71.4z
	 M16.4,56.1c0.3,0.3,0.4,0,0.6-0.1C16.8,55.8,16.6,56,16.4,56.1z M21.8,59.7c-0.2,0.3-0.3,0.7-0.2,1C22.4,60.5,22.6,59,21.8,59.7z
	 M31.2,66.4c0.3,0.1,0.7,0,0.9-0.2C31.9,65.9,31.4,66,31.2,66.4L31.2,66.4z M40.5,72.5c0.1,0.2,0.4,0.2,0.5,0.2
	c0.1-0.2,0.4-0.4,0.2-0.5C41,72.3,40.7,72.2,40.5,72.5L40.5,72.5z M17.5,56.5c-0.3,0.3,0.3,0.5,0.4,0.3
	C17.8,56.6,17.6,56.5,17.5,56.5z M31.9,67.7c0.5,0.4,1-0.5,1.1-0.9C32.7,67,32.3,67.3,31.9,67.7z M13.8,54.5c0.2,0.1,0.3,0,0.4-0.1
	c0-0.1-0.1-0.1-0.2-0.2L13.8,54.5z M20,58.4c0.3,0.1,0.1,0.3,0,0.5c-0.3-0.4-0.8-0.6-1.3-0.3c-0.3,0.2-0.5,0.5-0.4,0.8
	c0.2-0.1,0.4,0.2,0.5,0c0.1-0.2-0.1-0.3,0.1-0.5c0.4,0.7,1.3,0.4,1.6-0.4C20.3,58.5,20.1,58.2,20,58.4z M33.1,68.8
	c0.6,0.2,1.3-0.1,1.5-0.7c0,0,0,0,0-0.1C34,67.6,33.4,68.2,33.1,68.8L33.1,68.8z M38.6,72.2c0.7,0.1,1.3,0,1.9-0.3
	C39.8,71.7,39.1,71.8,38.6,72.2L38.6,72.2z M3.4,48.2l0.2,0.2c0.2-0.1,0.5-0.5,0.3-0.7C3.7,47.7,3.5,48,3.4,48.2z M14.7,56.3
	c0.3,0.1,0.5-0.4,0.8-0.6c-0.1-0.3-0.4-0.5-0.5-0.7C14.6,55.3,14.2,56,14.7,56.3L14.7,56.3z M34.7,68.7c0.1,0.2,0.6-0.2,0.3-0.4
	C35,68.6,34.8,68.5,34.7,68.7z M12.8,54.5c0,0.1,0.1,0.1,0.1,0.1c0.3,0.2,0.6-0.4,0.5-0.7C13.1,54.1,12.9,54.3,12.8,54.5z
	 M13.4,55.1c0.3,0.2,0.9-0.2,0.8-0.6C14,54.8,13.4,54.7,13.4,55.1z M20.7,59.7c0.3,0.1,0.3,0.3,0.5,0.4c0.1-0.2,0.4-0.4,0.2-0.5
	C21.1,59.6,20.9,59.6,20.7,59.7z M36.1,69.5c-0.1,0.2-0.4,0.5-0.4,0.7c0.3-0.1,0.5-0.3,0.7-0.5C36.4,69.5,36.2,69.5,36.1,69.5
	L36.1,69.5z M11.8,53.5c0,0.1,0.1,0.1,0.2,0.2l0.2-0.2C12,53.4,11.9,53.5,11.8,53.5z M18,57.5c-0.2,0.3,0.4,0.6,0.6,0.3
	C18.3,57.7,18.1,57.4,18,57.5z M36.6,70.7c0.1,0.1,0.1,0.3,0,0.4c0.3,0.2,1-0.4,0.9-0.7C37.2,70.5,36.9,70.6,36.6,70.7z M30.2,66.4
	c0.1,0.3,0.8,0,0.6-0.4C30.6,66.1,30.4,66.1,30.2,66.4L30.2,66.4z M39.7,73.4c0.6,0.1,1.3,0,1.9-0.2C41,73,40.3,73.1,39.7,73.4
	L39.7,73.4z M27.9,64.7c0.2,0.1,0.7,0,0.5-0.2C28.3,64.6,28,64.4,27.9,64.7L27.9,64.7z M1.7,48c0.1-0.5-0.1-1.1-0.5-1.4
	C1.2,47.1,1.4,47.6,1.7,48z M8.2,52.1c0.3,0.1,0.9,0,0.8-0.5C8.7,52,8.4,51.8,8.2,52.1L8.2,52.1z M23.5,61.6c0,0.1,0.1,0.1,0.2,0.2
	c0-0.1,0.1-0.1,0.1-0.2C23.7,61.5,23.6,61.5,23.5,61.6z M32.3,68.5c0.2,0.2,0.4,0,0.6,0.2c0.2-0.1,0.4-0.4,0.6-0.6
	C33.1,67.8,32.6,68.2,32.3,68.5L32.3,68.5z M10.1,53c0.1,0.2,0.5-0.2,0.3-0.3C10.2,52.8,10.1,52.9,10.1,53z M15.6,57.1
	c0.3,0.5,1.2,0.4,1.1-0.1C16.3,57.1,15.9,56.8,15.6,57.1z M34,69.5c0.3,0.2,0.4-0.2,0.7-0.3c0-0.1-0.1-0.1-0.1-0.2
	S34.2,69.2,34,69.5z M16.7,57.9c0.3,0.2,0.7-0.2,0.7-0.3C17.2,57.6,16.9,57.5,16.7,57.9L16.7,57.9z M19.8,60.5
	c0.2-0.2,0.5-0.7,0.5-0.9C20.1,59.7,19.7,60.2,19.8,60.5z M23.5,62.6c0.2,0.1,0.3,0,0.4,0.1c0.1-0.2,0.4-0.4,0.2-0.6
	C23.9,62.3,23.7,62.2,23.5,62.6z M27.7,66.2c0.3-0.1,0.6,0,0.7,0.3c0,0,0,0,0,0c0.6,0.1,1.2,0,1.6-0.4C29.5,66,28.2,65.6,27.7,66.2z
	 M11.4,54.2c0.1-0.1,0.3,0,0.4-0.2C11.7,53.7,11.1,53.9,11.4,54.2z M30.2,67.7c0.4-0.2,0.7-0.5,1-0.8C31,66.5,30.1,67.3,30.2,67.7z
	 M41.5,74.2c0.2-0.1,0.4,0.1,0.5-0.1l-0.2-0.2C41.8,74.1,41.4,73.9,41.5,74.2L41.5,74.2z M21.8,62.1c0.5,0.1,1-0.1,1.5-0.3
	C22.9,61.4,21.8,61.6,21.8,62.1z M37.2,71.5c0.1,0.1,0.3,0.1,0.4,0c0,0,0.1-0.1,0.1-0.1C37.5,71.2,37.4,71.3,37.2,71.5z M20.3,60.2
	C20.5,61.3,21.5,59.9,20.3,60.2z M2.8,48.7c0.2-0.2,0-0.3-0.1-0.4C2.5,48.4,2.6,48.5,2.8,48.7C2.7,48.6,2.7,48.6,2.8,48.7z M17,58.3
	c0.2,0.3,0.6,0.5,0.8,0.1c-0.1-0.3-0.5-0.3-0.7-0.2C17.1,58.3,17.1,58.3,17,58.3L17,58.3z M27,65.2c0.3,0.1,0.7,0.1,1-0.1
	C27.7,65,27.3,64.9,27,65.2L27,65.2z M10.3,54.2c0.2,0.3,0.7-0.2,0.5-0.4C10.7,53.9,10.4,53.9,10.3,54.2L10.3,54.2z M33.7,70.5
	c0.6,0,1.2,0.3,1.6-0.4C34.8,69.9,34.1,70,33.7,70.5L33.7,70.5z M37.5,71.9c0.2,0.1,0.3,0.2,0.4,0C37.8,71.7,37.7,71.8,37.5,71.9
	L37.5,71.9z M19.5,60.3c0.1-0.2,0.4-0.4,0.2-0.6C19.5,59.8,19.3,60.1,19.5,60.3z M17.7,58.9c0.1,0.1,0.3,0.2,0.4,0.2l0.2-0.2
	C18,58.8,17.8,58.7,17.7,58.9L17.7,58.9z M24.5,63.9c0.3,0,0.6-0.1,0.8-0.3C25.1,63.5,24.6,63.6,24.5,63.9z M13.8,56.7
	c0.2,0.2,0.4-0.1,0.6-0.3C14.1,56.3,14,56.5,13.8,56.7z M4.5,50.7c0.2,0.1,0.5-0.4,0.5-0.4C4.7,50,4.2,50.5,4.5,50.7z M14.1,57.6
	c0.3,0.2,0.8,0.1,1-0.3c0-0.1,0.1-0.2,0.1-0.3C14.7,56.8,14.4,57.3,14.1,57.6z M11,54.5l-0.1,0.1c0,0.2,0.3,0.1,0.3,0
	C11.2,54.5,11.1,54.6,11,54.5z M30.8,68.7c0.3-0.2,0.8,0.1,1.1-0.3C31.7,68.3,30.9,68.2,30.8,68.7z M36.8,71.9
	c0.1,0.1,0.2,0,0.3-0.2l-0.2-0.1L36.8,71.9z M7.7,52.7c0.2,0.1,0.4,0.1,0.6,0c-0.1-0.2-0.3-0.2-0.4-0.1C7.8,52.6,7.7,52.7,7.7,52.7z
	 M18.7,59.8c0.1,0.1,0.1,0.4,0.3,0.2C18.9,59.8,18.8,59.6,18.7,59.8z M17.3,59.5c0.1-0.1,0.4-0.2,0.3-0.4
	C17.4,59.1,17.1,59.3,17.3,59.5z M8.9,54.2c0.3,0.1,0.5-0.2,0.7-0.3l-0.2-0.2C9.2,53.8,9,54,8.9,54.2z M35.8,71.9
	c0.2,0.2,0.8,0,0.6-0.3C36.2,71.8,35.9,71.6,35.8,71.9L35.8,71.9z M20.1,61.2c0.2-0.1,0-0.2-0.2-0.3C19.9,61,20,61.2,20.1,61.2z
	 M29,67.5c0.1,0.4,0.7,0.1,0.7-0.2C29.4,67.2,29.2,67.4,29,67.5z M32,69.3c0.1,0,0.4,0,0.4-0.2C32.2,69.2,31.9,69,32,69.3z
	 M25.5,65.4c0.3,0.1,0.6,0.1,0.8-0.1C26.1,65.1,25.8,65.2,25.5,65.4L25.5,65.4z M28,67c0.2,0.1,0.3,0.2,0.3,0.3
	c0.1-0.1,0.5-0.2,0.5-0.4C28.6,67,28.2,66.6,28,67L28,67z M5.8,52.4C6,52.4,6.5,52.3,6.3,52C6.2,52.1,5.8,52.2,5.8,52.4L5.8,52.4z
	 M23.1,63.1L22.8,63C22.6,63.2,23,63.4,23.1,63.1z M24,64.2c0.1-0.1,0.3-0.2,0.1-0.4C24,63.8,23.9,64.1,24,64.2z M33.6,70.9
	c0.4,0.2,0.7,0,1-0.1C34.3,70.7,33.9,70.7,33.6,70.9L33.6,70.9z M21.1,62.5c0.2,0.1,0.3,0.1,0.4-0.1C21.4,62.3,21.3,62.3,21.1,62.5
	C21.1,62.5,21.1,62.5,21.1,62.5L21.1,62.5z M16.1,59.2c0.2,0.2,0.3,0.1,0.4-0.1C16.4,59.1,16.2,59,16.1,59.2L16.1,59.2z M29.5,68.2
	c0.2,0.2,0.3,0.1,0.4-0.1C29.7,67.9,29.6,68.1,29.5,68.2L29.5,68.2z M22.1,63.7c0.2-0.3,0.2-0.5-0.1-0.6
	C21.8,63.3,21.8,63.6,22.1,63.7L22.1,63.7z M25.3,66.2c0.3,0.1,0.6,0,0.8-0.4C25.7,65.5,25.2,65.7,25.3,66.2L25.3,66.2z M9.2,55.3
	c0.2,0.2,0.5-0.1,0.5-0.3C9.5,54.8,9.4,55.1,9.2,55.3L9.2,55.3z M27.1,67.1c0.2,0.1,0.1,0.4,0.2,0.5c0.2,0.1,0.5,0,0.7-0.2
	c-0.1-0.3-0.5-0.5-0.9-0.4C27.2,67,27.1,67,27.1,67.1L27.1,67.1z M21,63.1c0.1,0.1,0.1,0.3,0.3,0.4C21.7,63,21.3,62.7,21,63.1
	L21,63.1z M10.1,56.3c0.1-0.2,0.4-0.3,0.3-0.5C10.2,55.8,10,56.1,10.1,56.3L10.1,56.3z M18.2,63c0.4-0.6,0.7-1.2,0.6-1.7
	C18.4,61.9,18,62.5,18.2,63L18.2,63z M23.5,65c0.2,0.2,0.3,0,0.5-0.1c-0.1-0.1-0.3-0.1-0.4,0C23.5,64.9,23.5,64.9,23.5,65z
	 M22.6,64.2c-0.1,0.1-0.1,0.2-0.1,0.3c0.2,0.1,0.4,0.1,0.5-0.1C22.9,64.2,22.7,64.1,22.6,64.2L22.6,64.2z M14.4,59.7
	c0.4,0.1,0.8,0,1.1-0.2c-0.3-0.3-0.7-0.3-1,0C14.5,59.6,14.5,59.6,14.4,59.7L14.4,59.7z M34.6,73.2c0.5,0.4,1.3,0.4,1.4-0.2
	C35.5,73,35,72.9,34.6,73.2L34.6,73.2z M8.7,55c-0.1,0.1-0.1,0.2,0,0.2c0,0,0,0,0.1,0c0.1-0.1,0.2-0.1,0.2-0.2C8.9,55,8.8,55,8.7,55
	z M26.3,67.7c0.2-0.1,0.4-0.5,0.6-0.6C26.6,66.8,26.1,67.4,26.3,67.7L26.3,67.7z M24.6,66c0.1-0.1,0.3,0.1,0.3-0.1
	C24.8,65.7,24.5,65.8,24.6,66L24.6,66z M29.7,69.8c0.3,0.2,1,0,0.9-0.1C30.4,69.7,30,69.5,29.7,69.8L29.7,69.8z M19,63
	c0.2-0.3,0.2-0.5,0.1-0.7C19,62.5,19,62.8,19,63L19,63z M13.2,59.1c0.3,0.3,0.9,0,0.8-0.2C13.8,59,13.5,58.8,13.2,59.1L13.2,59.1z
	 M16.6,63.1c0.5,0.1,1.4-1.1,1.3-1.6C17.3,62,16.9,62.5,16.6,63.1L16.6,63.1z M23.4,66c0.2,0.2,0.5,0.5,0.8,0.5
	C25.1,65.9,23.8,65.8,23.4,66L23.4,66z M25.5,67.5c0.2,0.1,0.3,0.1,0.4-0.1C25.8,67.4,25.7,67.4,25.5,67.5L25.5,67.5z M21.9,65.1
	c-0.1,0.1,0,0.2,0.2,0.3c0.1-0.1,0.1-0.3,0-0.3C22,65.1,22,65.1,21.9,65.1L21.9,65.1z M25.9,68.5c0.1,0.2,0.6,0.4,0.8,0.3
	c-0.1-0.1,0-0.3-0.1-0.5C26.3,68.5,26.1,68.5,25.9,68.5L25.9,68.5z M27.3,69.4l0.6,0.4C28.2,69.3,27.7,69,27.3,69.4L27.3,69.4z
	 M22.4,65.8c0.1,0.4,0.4,0.7,0.8,0.8C23.1,66.2,22.8,65.9,22.4,65.8L22.4,65.8z M24.9,67.6c0.2,0.2,0.5,0.3,0.7,0.2
	C25.5,67.7,25.1,67.4,24.9,67.6z M31.3,72c0.1,0.1,0.7,0.5,0.9,0.3C31.9,72.1,31.5,71.6,31.3,72L31.3,72z M32.7,73.2
	c0.4,0.1,0.8,0.4,1.1,0.2C33.5,73.4,33,73.1,32.7,73.2L32.7,73.2z M11.3,58.8c0.1,0.1,0.3,0.2,0.4,0.2
	C11.9,58.7,11.4,58.6,11.3,58.8z M6.8,55.9c0.2,0,0.4,0.4,0.5,0.1C7.4,55.8,6.9,55.7,6.8,55.9L6.8,55.9z M10.3,58
	c-0.1-0.1-0.2-0.2-0.3-0.3C9.8,57.9,10.2,58.2,10.3,58L10.3,58z M28.5,70.5c0.1,0.1,0.5,0.6,0.6,0.3C28.9,70.6,28.6,70.3,28.5,70.5
	L28.5,70.5z M26,69.2c0-0.2-0.4-0.4-0.6-0.6C25.4,68.8,25.8,69.4,26,69.2L26,69.2z M26.1,69.5c1.3,1.1,3.2,2.6,4.7,2.7l-0.1-0.1
	C29,71.7,27.4,69.7,26.1,69.5L26.1,69.5z M7.8,57.5c-0.3-0.3-0.6-0.6-0.9-0.9C6.6,57,7.4,57.6,7.8,57.5L7.8,57.5z M24.5,68.6
	c-0.2-0.2-0.4-0.7-0.8-0.7C23.9,68.1,24.2,68.5,24.5,68.6L24.5,68.6z"/>
<path class="st0" d="M62.4,41c0.3,0,0.3,0.2,0.4,0.4c-1.9,0.7-4,0.8-5.9,1.5c-0.2,0.5-0.3,1-0.5,1.5c1.6-0.1,3.1-0.5,4.7-0.7
	c-1.3,0.9-3.7,0.1-5,1.5c0-0.1,0-0.2,0-0.3c-0.8,0.1-1.6,0.3-2.4,0.6c-0.3,0.7-0.5,1.4-0.7,2.2c2.6-0.5,5.4-1.1,7.9-1.5
	c0.4-0.1,0.9-0.5,1.3-0.1c-3.1,0.4-6.3,1.1-9.3,2c-0.3-0.2-0.5,0-0.8-0.1c0.2-0.3,0.4,0,0.6-0.3c0.2-0.7,0.4-1.3,0.7-2
	c-0.7-0.2-1.3,0.2-1.9,0.3c-0.4,1-0.6,1.9-0.9,2.9c-0.1-0.8,0.6-1.8,0.7-2.7c-1.1,0.1-2.2,0-2.6,1.5c-0.1-0.2,0-0.5,0.1-0.7
	c-0.2-0.2-0.4,0-0.6-0.3c0.2-0.5,0.6-0.1,0.9-0.3c0.3-0.6,0.4-1.3,0.7-1.9c-1-0.2-2.1,0.4-3,0.1c1-0.2,2.1-0.2,3.1-0.5
	c0.2-0.8,0.6-1.7,0.7-2.5c-0.9-0.1-1.9,0.4-2.6,0.2c0.6-0.3,1.8-0.2,2.6-0.4c0.3-0.6,0.5-1.3,0.6-1.9c-1.1,0-2.2,0.2-3.3,0.6
	c0.9-0.7,2.3-0.6,3.4-1c0.5-0.9,0.5-2,1-2.7c0.4,0.8-0.7,1.7-0.6,2.7c1.5-0.2,3-0.6,4.5-1c0.5-0.5,0.1-1.1,0.7-1.5
	c0,0.4-0.3,0.9-0.4,1.3c0.8,0.2,1.4-0.3,2.1-0.3c0.1-0.2,0.2-0.5,0.3-0.8c0.2,0.2-0.2,0.4,0,0.6c2.1-0.1,4-1.3,6.2-1.1
	c-2.1,0.3-4.3,0.9-6.4,1.4c-0.2,0.7-0.5,1.5-0.7,2.2c1.8-0.3,3.5-0.9,5.4-1c-1.8,0.7-3.7,0.6-5.5,1.3c-0.3,0.9-0.6,1.7-0.8,2.5
	C58.9,42.2,60.8,42.2,62.4,41z M57.7,40.2c-0.8,0-1.6,0.2-2.3,0.5c-0.2,0.8-0.5,1.6-0.8,2.4c0.8,0,1.6-0.1,2.3-0.5
	C57.2,41.8,57.4,41,57.7,40.2z M56.2,38.1c-0.4,0.5-0.4,1.6-0.7,2.3c0.6-0.3,1.7,0,2.3-0.6c0.5-0.6,0.4-1.5,0.6-2.2
	C57.8,37.9,56.8,37.6,56.2,38.1L56.2,38.1z M55.9,38.1c-1.5,0.4-3,0.7-4.5,1.2c-0.2,0.6-0.4,1.3-0.5,1.9c0.8,0,1.6-0.1,2.3-0.4
	c0.1-0.3,0-0.8,0.4-1c0,0.3-0.2,0.6-0.3,0.9C54.9,41.2,56,39.7,55.9,38.1L55.9,38.1z M52.8,42.2c0.1-0.3,0.1-0.6,0.3-1
	c-0.8-0.1-1.6,0-2.3,0.3c-0.2,0.8-0.5,1.6-0.7,2.4c1.5-0.1,2.9-0.3,4.3-0.7c0.3-0.8,0.6-1.6,0.8-2.5C54.1,40.7,53.1,40.9,52.8,42.2
	L52.8,42.2z M54.4,43.5c-0.1,0.5-0.4,1.1-0.5,1.6c0.8-0.1,1.6-0.3,2.3-0.5c0.1-0.5,0.5-1.1,0.4-1.6C55.9,43,55.2,43.2,54.4,43.5
	L54.4,43.5z M54.1,43.4c-1.4,0.4-2.8,0.5-4.2,0.8c-0.2,0.6-0.5,1.3-0.6,1.9c0.8-0.1,2,0.1,2.5-0.8c0.1,0.1,0,0.2,0,0.3
	c1.1,0.2,2.1-0.5,2.3-1.5C54.2,43.9,54.2,43.7,54.1,43.4L54.1,43.4z"/>
</svg>
