<?xml version="1.0" encoding="utf-8"?>
<!-- Generator: Adobe Illustrator 23.0.1, SVG Export Plug-In . SVG Version: 6.00 Build 0)  -->
<svg version="1.1" id="Layer_1" xmlns="http://www.w3.org/2000/svg" xmlns:xlink="http://www.w3.org/1999/xlink" x="0px" y="0px"
	 viewBox="0 0 139.1 146.9" style="enable-background:new 0 0 139.1 146.9;" xml:space="preserve">
<style type="text/css">
	.st0{fill:#A3B681;}
</style>
<title>honey</title>
<path class="st0" d="M135.9,18c1.1-3.3,1-7.4-2.3-9.4c0,0-0.1,0-0.2-0.1c-0.7-1-1.7-1.9-2.8-2.5c-2.2-1.3-4.9-1.6-7.4-1.9
	c-4.1-0.5-8.1-1.5-12.2-2c-4.8-0.6-9.6-0.6-14.4-1c-5.3-0.4-10.6-0.8-15.9-1c-10.6-0.4-21,0.6-31.6,1c-5,0.2-9.9,0.2-14.8,0.7
	c-5.2,0.5-10.4,1.4-15.6,2C14.2,4.5,9.6,5.6,5.2,7C3.8,7.3,2.7,8.3,2.1,9.5v0.1c-0.3,0.7-0.4,1.4-0.4,2.1c0,0,0,0.1,0,0.1
	c-1.2,3.2-1.8,7.3,0.5,9.7l0,0c0,0.1,0,0.3,0,0.4c0,0.1,0.1,0.2,0.2,0.3l1.2,0.5l-0.5-0.1c-0.2-0.1-0.4,0.1-0.5,0.3c0,0,0,0.1,0,0.1
	c0,0.4,0,0.7,0,1.1c-0.1,0-0.1,0-0.2,0c-4.3,1.7-2.3,6.6,0.4,8.9c0.8,0.7,1.7,1.3,2.5,1.9c0,0.3,0.1,0.5,0.2,0.7
	c1.6,2,1.5,4,0.5,6.1c-0.3,0.6-0.3,1.3-0.2,1.9c0.1,0.4,0.3,0.8,0.5,1.2c0.5,1.3,0.6,2.8,0.5,4.2c0,1.3-0.4,1.1-1.2,1.9
	c-0.3,0.4-0.5,1-0.3,1.5c0.3,0.8,0.8,1.6,1.5,2.1c1.9,1.6,1.8,4,1.8,6.4c0,3.9,0.7,7.8,0.8,11.8c0.1,4.1,0.7,8.1,0.7,12.2
	c-0.1,4,0,8,0.3,11.9c0.5,3.9,1,7.8,1.5,11.7c0.4,3.4,1.3,6.7,2.5,9.9c1.5,3.4,3.7,6.5,5.6,9.8c1.6,2.5,3.9,4.6,6.5,6
	c3.8,2.2,7.5,4.5,11.5,6.4c6.6,3.2,13.7,4.3,21,5c8.5,0.8,17.1,1.8,25.6,1.2c8.9-0.6,17.7-4,26.2-6.7c3-0.7,5.8-2,8.1-4
	c7.6-7.8,6.2-25.5,6.7-34.8c0.8-14.5,4.3-28.7,5.8-43.2c0.1-1.4,0.3-2.8,0.6-4.2c0.3-1,0.9-1.9,1.8-2.5c0.2-0.1,0.5-0.4,0.5-0.6
	c0.5-2.2-1-2.8-1.8-4.6s2.7-3.5,1.5-5.9c-0.7-1.3-0.1-2.8,0.1-4.1c0.2-1.3,0.3-2.6,0.3-3.9c0.6-0.7,1.1-1.5,1.6-2.3
	c1.5-2.2,2.9-4.9,2.8-7.6C139,20.3,137.4,19,135.9,18z M5.3,8.2L5.3,8.2C5.6,8.1,5.8,8,6.2,7.9c1.9-0.6,3.8-1,5.8-1.6
	c4.7-1.1,9.4-1.8,14.1-2.3c8.8-1.2,17.4-1.3,26.3-1.7s17.5-1.1,26.4-0.9s17.5,1.1,26.2,1.5c4.4,0.3,8.8,1,13.2,1.9
	c3.3,0.6,6.8,0.9,10,1.9c1.9,0.5,3.5,1.7,4.7,3.3c1.4,2-1.4,3.4-2.9,4c-3.4,1.3-7.6,1.3-11.1,1.9c-17.8,3-35.8,3.7-53.8,3.7
	c-5.8,0-11.6,0.1-17.3-0.4s-11.2-1.3-16.8-1.9c-5.8-0.6-11.6-1.8-17.3-2.7c-2.7-0.5-5.3-1.5-7.7-3c-0.5-0.3-1-0.6-1.5-0.9
	C3.4,9.9,4,8.5,5.3,8.2L5.3,8.2z M3,21.4c0.2-0.2,0.2-0.5,0-0.7c-1.8-1.7-1.4-4.6-1-6.8c0.2-0.6,0.4-1.3,0.6-1.9
	c0.1-0.1,0.1-0.2,0.2-0.3c0-0.1,0-0.1,0-0.2c1.2,1.2,3.6,2.1,4.6,2.6c3.4,1.7,7,2.1,10.7,2.6c4.2,0.7,8.4,1.5,12.7,2
	c8.7,1.1,17.6,2.3,26.4,2.3c9.1,0,18.2,0.3,27.3-0.2c8.4-0.5,17.1-0.9,25.4-2.1c4.2-0.6,8.3-1.3,12.4-2c3.2-0.5,6.4-0.6,9.4-1.9
	c2.1-0.9,2.9-2.3,2.8-3.7c2.7,3.6-1.2,9.8-4.3,11.8c-4.7,3.1-11.2,3.4-16.5,4.1C101,28.9,88.2,31,75.5,31.9
	c-6.1,0.3-12.2,0.1-18.3-0.6c-6.3-0.5-12.7-0.4-19-0.9c-6.4-0.6-12.7-1.7-18.9-3.4c-3-0.8-5.9-1.7-8.8-2.6C9.7,24.2,3.2,21.8,3,21.4
	L3,21.4z M132.9,22.6c-1.5,3-5.6,4.4-8.5,5.4c-3.8,1.2-7.7,1.9-11.7,2.2c-5.6,0.4-11.1,1.2-16.6,2.5c-6.4,1.4-13.5,1.1-20.1,1.2
	s-13,0-19.6-0.2c-6.2-0.2-12.1-0.7-18.3-0.3c-6.4,0.4-12-2.2-18.1-4c-4.2-1.3-9.3-2.5-13.1-5.1c10.6,4.1,21.7,6.6,33,7.5
	c7.1,0.6,14.2,0.6,21.3,1.2c7.6,0.6,15.1,0.4,22.7-0.4c7.1-0.8,14.2-1.9,21.3-2.8c6.8-0.9,13.8-1.5,20.4-3.2
	C128.5,25.8,130.9,24.5,132.9,22.6L132.9,22.6z M4.5,23.2C4.5,23.2,4.5,23.2,4.5,23.2l0.6,0.2c3.4,3.3,8.7,4.7,13,6.1
	c5.8,1.9,11.9,4.8,18.1,4.7c3.2-0.1,6.4-0.5,9.6-0.4c3.6,0.1,7.1,0.5,10.7,0.6c7.6,0.3,15.2,0.4,22.8,0.1c6.7-0.2,13.4-0.2,19.8-1.8
	c6.1-1.5,12.3-1.3,18.5-2.4c3.6-0.6,7.2-1.5,10.5-2.9c1.6-0.7,3.1-1.6,4.3-2.9c0.7-1.1,1.3-2.2,1.8-3.4c0,0,0,0,0.1,0
	c0.4,2.3-0.1,4.7-1.5,6.6c-1.7,2.8-5.3,4.1-8.3,5.2c-5.7,2.1-12.1,2.7-18.1,3.7c-13.1,2.1-26,2-39.2,1.7C61,38.1,54.6,38,48.2,37.9
	s-12.6,0-18.9-1.3c-2.8-0.6-5.5-1.2-8.3-1.8s-5.4-0.7-8-1.4c-2.8-0.8-5.4-2.2-7.5-4.2c-1-0.9-1.7-2-1.9-3.3
	C3.2,24.4,3,23.4,4.5,23.2L4.5,23.2z M135.7,22.1c2.4,8.2-10,12.6-16.2,14.5c-4.8,1.4-9.7,2.2-14.7,2.5c-7,0.3-13.9,1.1-20.8,2.1
	c-3.6,0.7-7.2,1-10.8,1c-3.5-0.1-7-0.9-10.6-1.1c-7.2-0.4-14.5-0.6-21.6-1.3c-3.8-0.4-7.4-1.3-11.1-2s-7.6-1.3-11.3-1.9
	c-3.4-0.6-8-0.9-10.5-3.4c-0.3-0.3-0.5-0.6-0.8-0.8c0.5,0.4,1,0.7,1.6,1.1c2.3,1.2,4.7,1.9,7.3,2.2c3.4,0.5,6.8,1.2,10.2,2
	c6.5,1.3,13.1,2,19.8,1.9c7.8,0.1,15.6,0.3,23.4,0.5c7.5,0.2,15,0.4,22.5,0c7.5-0.6,14.9-1.6,22.3-3c5.7-1,13-1.9,17.6-5.9
	C134.3,28.4,135.7,25.3,135.7,22.1L135.7,22.1z M3,26.4c0.5,1.6,1.4,3.1,2.7,4.2l-0.1-0.1c-1.2-0.4-2.2-1.2-2.8-2.4
	c-0.1-0.2-0.3-1.3-0.2-1.3C2.8,26.8,3,26.6,3,26.4L3,26.4z M5.3,33.2H5.2L5,33.1c-2.2-1.4-6.5-5.8-2.3-8.3c0,0,0.1,0.8,0.1,0.9
	s-0.9,0.3-1,0.7c-0.5,2.1,0.6,3.5,2.5,4.6c2.4,1.4,3.7,3.8,6.6,4.4c8.5,1.8,17,3.4,25.6,4.9c7.9,1.4,16.1,1.4,24.1,1.8
	c3.4,0.2,6.8,0.7,10.2,1c-5.5,0.2-11,0.1-16.5-0.1c-7.1-0.3-14-2-21-2.9c-6.5-0.9-13-1.2-19.3-3c-2.9-0.8-5.7-2.1-8.3-3.7
	C5.6,33.3,5.5,33.3,5.3,33.2z M133.2,36.8c-0.3,0.7-0.4,1.5-0.6,2.2c0,1.5,0.9,2.9-0.2,4.3c-0.4,0.5-0.8,1.1-0.9,1.8
	c-0.2,1.3,2.2,4.8,1.5,5.4c-1.7,1.5-2.1,2.9-2.5,5.1c-1.3,6.4-1.6,13.2-2.5,19.7s-2.4,12.7-3,19.1c-0.9,8.5-0.6,17.1-1.6,25.6
	c-0.7,6.2-2.4,13.9-7.9,17.1c-2.9,1.1-5.8,2.1-8.8,2.9c-7.9,2.4-15.6,5.2-24,5.6s-17.1-0.6-25.5-1.5c-3.9-0.4-7.9-1.1-11.8-1.9
	s-8.3-3.2-11.9-5.2s-7.8-4-10.7-6.9c-1.2-1.4-2.2-2.9-3-4.5c-1-1.8-2.3-3.4-3.3-5.2c-4-7.2-4.3-16.4-5.3-24.4
	c-0.3-4-0.3-7.9-0.2-11.9c0-4.1-0.7-8.1-0.8-12.3c-0.1-3.9-0.7-7.8-0.8-11.7c0-1.6-0.2-3.2-0.8-4.8c-0.2-0.4-3.6-3.1-2.3-3.6
	c1.6-0.7,1.3-1.7,1.2-3.4c0.1-1-0.1-2.1-0.3-3.1c-0.2-0.6-0.5-1.1-0.8-1.7c-0.3-0.8,0.4-1.9,0.8-2.6c0.8-1.6-0.1-3.7-0.9-5.1
	c4.7,2.6,10.2,3.9,15.3,4.6c4.4,0.6,8.8,1,13.2,1.6c4.2,0.6,8.5,1.5,12.7,2.1c8.3,1.1,17,0.8,25.4,0.6c4.3-0.1,8.5-0.7,12.7-1.1
	S94.4,43,98.5,43c7.6-0.1,15.2-1.2,22.6-3.1c3.2-0.8,6.3-2,9.1-3.7c1.3-0.8,2.4-1.7,3.4-2.8C133.6,34.5,133.4,35.7,133.2,36.8z
	 M134.2,30.8c-0.2,0-0.3,0.2-0.3,0.4l0,0c-0.8,1.1-1.8,2-2.8,2.9c-4.6,3.4-10.6,4.7-16.1,5.8c-6.4,1.2-12.9,1.8-19.4,1.8
	c-3.5,0-7,0.3-10.5,0.6c4-0.7,8-1.3,12.1-1.6c4.2-0.3,8.5-0.4,12.7-0.9c4.8-0.6,9.4-1.7,13.9-3.4c4.5-1.6,10.3-4.5,12.5-8.7
	C135.6,28.7,135,29.8,134.2,30.8L134.2,30.8z M136.3,27.3c1.1-2.4,1-5.2-0.4-7.5c-0.1-0.2-0.4-0.3-0.6-0.2c0,0,0,0,0,0
	c0.1-0.1,0.1-0.2,0.2-0.3c2.2,1.6,2.8,3.3,1.7,6.2C136.9,26.1,136.6,26.7,136.3,27.3L136.3,27.3z"/>
<path class="st0" d="M117.3,6.9c-0.3-0.7-1.3-0.1-1,0.6c0.4,0.9,0.1,1.9-0.7,2.4c-0.1-0.2-0.3-0.3-0.5-0.3C107,8.6,99,6.6,90.7,6.2
	c-8-0.4-15.9-0.3-23.9,0.1C58.8,6.8,51,8,42.9,8.1c-6.4,0-13.1-0.3-19.1,2.2c-0.3,0.1-0.2,0.5,0.1,0.4c6.2-2.4,13.2-2,19.7-1.9
	c8.1,0.1,16.1-1.1,24.2-1.5c7.9-0.4,15.9-0.4,23.8,0c4.2,0.3,8.5,0.9,12.6,1.7c2.1,0.4,4.3,0.7,6.4,1.1c0.6,0.1,3,0.2,3.7,0.6
	c-2.1,0.9-4.4,1.5-6.7,1.7c-4,0.5-8.1,0.4-12.2,1c-8.7,1.1-17.5,1.4-26.2,0.9c-4-0.2-8-0.9-12-1.2c-4.5-0.3-8.9-0.3-13.4-0.4
	c-4-0.1-7.9-0.3-11.9-0.3c-1.8,0-3.5-0.1-5.3-0.3c-1.1-0.1-2.2-0.3-3.3-0.5c-0.5-0.1-1.1-0.3-1.6-0.4c-0.8-0.1-1.4-0.7-1.5-1.5
	c0.4-0.1,0.2-0.8-0.2-0.6c-0.8,0.3-0.9,0.6-1.1,1.5c0,0.2,0,0.3,0.2,0.4c3.5,1.8,7.2,2.2,11,2.4c4.5,0.2,9.1,0.4,13.7,0.5
	c5.2,0.1,10.3,0.1,15.4,0.6s10,1.2,15.1,1.2s10.3-0.1,15.4-0.3c5-0.2,9.8-1.3,14.8-1.4C107.6,13.6,119.9,12.7,117.3,6.9z"/>
<path class="st0" d="M84.3,80.1c-1.3,2.2-2.4,4.5-5.1,4.5c-0.2-3.9,0-7.8,0-11.7c0-1,0-3.3-1.4-3.6c-2.3-0.5-4.5,2.4-5.8,4.7
	c0-0.7,0-1.4,0-2.1c0-0.2-0.2-0.4-0.4-0.4c-0.1-0.2-0.3-0.4-0.5-0.3c-2.2,0.3-3.5,2.2-5.7,2.5c-0.4,0.1-0.4,0.7,0,0.6
	c0.7-0.1,1.4-0.2,2.1-0.6c0.5-0.2,3.3-2,3.3-1.8c0,0.2,0.2,0.4,0.4,0.4C71,73.5,70.9,74.7,71,76c0,0.3,0.2,0.5,0.4,0.6
	c0.2,0,0.5-0.1,0.6-0.3c1.1-2.1,2.7-4.5,4.8-5.8c1.8-1.1,1.3,5.9,1.3,6.4c-0.1,2.8-0.1,5.6,0.1,8.3c0,0.3,0.3,0.6,0.6,0.6
	c3.6,0.4,5.1-2.3,6.6-5.1c0.1-0.3,0-0.6-0.2-0.7C84.8,79.8,84.4,79.9,84.3,80.1L84.3,80.1z"/>
<path class="st0" d="M76.2,73.6c-0.1-0.1-0.2-0.2-0.4-0.2c-3,0.9-4.1,7.4-3.9,9.9c0.2,3,1.3,6.6-2.4,7.8c-1.4,0.3-2.8,1-4,1.9
	c-0.3,0.1-0.6,0.4-0.6,0.8c-0.1,0.3,0.1,0.7,0.5,0.8c0.3,0.1,0.5,0,0.7-0.3c2-2.8,6.9-1.4,7.3-5.7c0.2-2.2-0.3-4.4-0.4-6.6
	c0.1-1.5,0.4-3,1-4.3c0.2-0.6,1.5-4,2-3.4c0.2,0.3,0.7,0.1,0.5-0.2C76.4,74,76.3,73.8,76.2,73.6z"/>
<path class="st0" d="M90.3,61.7c-3,1.8-5.9,5.9-5.9,9.5c0,0.2,0.1,0.5,0.3,0.6l0.2,0.1c0.1,0.1,0.3,0.1,0.4,0
	c0.7-0.5,0.5-1.5,0.6-2.3c0.4-1.4,1.1-2.8,2.1-4c0.9-1.4,2.2-2.5,3.6-3.3c1.5-0.8,4.5-0.8,4.8,1.4c0,0.4,0.7,0.4,0.7,0
	C96.9,60.2,92.4,60.4,90.3,61.7z"/>
<path class="st0" d="M95.5,67.4c-0.3-0.2-0.6-0.2-0.8,0c-0.1,0.1-0.2,0.2-0.3,0.4c0,0.1-1.3,0.6-1.5,0.7c-1.6,0.9-3.2,1.8-4.8,2.9
	c0.1-1.1,0.5-2.2,1.2-3.1c0.3-0.6,0.8-1.1,1.4-1.5c0.5-0.2,0.9-0.5,1.3-0.8c0,0,0.1-0.1,0-0.2c0,0,0,0,0,0c-1.1-1-3,1.1-3.6,1.9
	c-0.9,1.3-2,3.4-1.1,4.9c0.2,0.3,0.5,0.4,0.8,0.2c2.3-1.6,4.7-2.9,7.2-4.1c0.2-0.1,0.3-0.3,0.3-0.5h-0.1c0.2-0.1,0.3-0.4,0.1-0.6
	C95.6,67.5,95.6,67.4,95.5,67.4z"/>
<path class="st0" d="M97.5,73.4c-1.4-0.6-2.3,1.7-2.8,2.7c-0.7,1.4-1.2,3.1-3.1,3.2s-2.8-1.9-2.9-3.5c0.2-0.1,0.3-0.2,0.3-0.4
	c0-0.2,0-0.4,0-0.5c0.1,0,0.2-0.2,0.2-0.3c0-0.2,0.2-0.2,0.2-0.5c0-0.1,0-0.1-0.1-0.2c-0.1,0-0.1,0-0.2,0.1l-0.3,0.1
	c-0.1,0-0.2,0.1-0.2,0.2c-0.1,0-0.2,0.1-0.3,0.2c-0.1,0.1-0.2,0.3-0.2,0.5c-0.2,0-0.3,0.2-0.4,0.4c-0.4,2.4,1.1,4.7,3.5,5.2
	c0.3,0.1,0.6,0.1,0.9,0.1c1.3-0.2,2.4-1,2.9-2.1c0.4-0.6,0.7-1.3,0.9-2c0.2-0.5,0.5-0.9,0.8-1.3c0.3-0.3-0.2-0.8,0.4-0.4
	c0.2,0.1,0.4,0,0.6-0.2c0-0.1,0.1-0.1,0.1-0.2v-0.4C97.8,73.7,97.7,73.5,97.5,73.4z"/>
<path class="st0" d="M106.7,64.1c-0.7,0.5-1.2,1.3-1.9,1.8c-2.2,1.5-2.3-1.5-2.4-2.8c-0.2-2.4,0.9-4.5-0.2-6.8
	c-0.1-0.2-0.3-0.3-0.5-0.3c-0.8,0.1-1.5,0.4-2.2,0.8c-0.4,0.3-0.8,0.6-1.2,0.9c-0.7,0.4-1.5,0.7-2.3,0.9c0.1,0,0-0.1,0-0.1
	c-0.3,0-0.2,0-0.5,0.3c-0.1,0.1-0.1,0.2,0,0.3c0,0,0,0,0.1,0c1.7,0.4,2.9-0.8,4.3-1.7c2.4-1.6,1.6,1.6,1.4,2.8
	c-0.3,1.2-0.3,2.5-0.2,3.8c0.2,1.2,0.6,4,2.4,4.1c2,0,2.9-1.9,3.7-3.4C107.3,64.3,107,63.8,106.7,64.1z"/>
<path class="st0" d="M119.2,89.7c0-0.2,0-0.3-0.1-0.5c-0.1-0.3-0.6-0.4-0.7,0c-0.9,5.1-5.2,7.7-10.1,7.8c-1.2,0-3.2-0.3-4.5,0
	c5.3-7.4,7.6-17,8.4-25.8c0.5-5.2-0.1-10.3,0.1-15.5c0.1-2.7,2.5-2.6,3.5-4.5c0.5-0.7,0.4-1.6-0.2-2.1c-0.1-0.1-0.3-0.2-0.5-0.1
	c-0.8,0.4-2.1,0.3-2.1,1.4c0,0.3,0.5,0.4,0.5,0.1c0-0.1,0.4,0,0.5-0.1c0.3-0.1,0.5-0.2,0.8-0.4c0.2,0.7-0.1,1.4-0.8,1.6
	c0,0-0.1,0-0.1,0c-0.8,0.5-1.6,1.1-2.2,1.9c-1.7,2.3-0.5,6.9-0.5,9.5c-0.2,9.7-1.5,19.3-5.7,28.1c-4.1,8.6-11.7,14.3-20.4,17.7
	c-4,1.6-8.3,2.5-12.6,2.5c-4.8,0-12.5-1.8-11.5-8.1c0-0.3-0.3-0.5-0.5-0.2c-3.7,8.2,10.2,9.8,15.1,9.4c9.3-0.7,19.6-5.9,25.8-12.8
	c2.1,0.8,4.4,1.2,6.7,1.2c3.3,0,6.5-1.2,9-3.4c2.2-1.7,3.4-3.3,3.3-6.1C120.5,90.4,120,89.5,119.2,89.7z M119.7,92
	c0.1,1.4-0.5,2.8-1.5,3.8c-1.8,1.7-3.9,3.1-6.2,3.9c-2.2,0.6-4.4,0.7-6.6,0.3c-1-0.4-2.1-0.7-3.2-0.9c0.4-0.4,0.8-0.9,1.1-1.4
	c0.9,0.2,1.8,0.3,2.7,0.2c1.9,0.1,3.7,0,5.6-0.2c3-0.4,7.3-3.6,7.7-7C119.8,90.9,119.9,91.3,119.7,92L119.7,92z"/>
<path class="st0" d="M108,65.5c-0.9,0.9-1.5,2.1-2.3,3.1c-0.5,0.6-1.1,1.2-1.8,1.5c-1,0.3-2.1-0.2-2.7-1.1c0-0.1-0.1-0.1-0.2,0
	c-0.1,0-0.1,0.1-0.1,0.2c0.2,0.7,1.1,1.2,1.7,1.5c0.6,0.3,1.4,0.2,1.9-0.2c1.8-1,2.5-3.2,3.8-4.6C108.7,65.7,108.3,65.3,108,65.5z"
	/>
<path class="st0" d="M109.2,65.8c0-0.2-0.1-0.3-0.3-0.3s-0.3,0.1-0.3,0.3l0,0c-0.1,6.2-1,12.3-2.6,18.3c-0.7,2.7-1.7,5.4-3,7.9
	c-1.4,2.4-3.1,4.6-5.2,6.5c-1.1-0.8-2.3-1.4-3.6-1.8c-3.1-1-6.3-1.6-9.5-1.7c-3.4-0.2-6.8,0.2-10.1,1.1c-3.4,1-6.1,3.5-9.2,5.1
	c-0.4,0.2-0.1,0.7,0.3,0.7c1-0.1,0.4-0.3,1.3-0.5c0.1,0,0.2-0.1,0.1-0.2c0,0,0,0,0,0c1.7-1,3.4-2.1,5.1-3.1
	c3.2-1.8,6.8-2.1,10.4-2.2c3,0,6.1,0.4,9.1,1c1.6,0.3,4.1,1,5.4,2.3L97,99.2c-4,4-9.3,8.4-15,9.6c-3.5,0.8-7,1.1-10.5,1.1
	c-2.1,0-3.2-1-5.1-1.4c-0.1,0-0.1,0.1-0.1,0.1c0,0,0,0.1,0.1,0.1c0.8,0.2,1.4,0.7,1.8,1.4c0,0.1,0.1,0.2,0.2,0.2
	c5.7,1,11.6,0.4,17.1-1.7c4.6-2.1,8.8-5.2,12.3-8.9c0.5-0.4,1-1,1.2-1.2C107.1,90.1,109.5,77.3,109.2,65.8z"/>
<path class="st0" d="M91.3,93.9c-1.3-0.5-3.5-1.6-4.9-1.6c-2.1,0-4.2,0.1-6.3,0.2c-4,0.3-7.6,2.1-11.1,3.8c0,0,0,0.1,0,0.1
	c4.1-1.2,7.7-2.9,12-2.9c1.8,0,4.2-0.3,5.9,0.3c1.5,0.5,2.7,1.2,4.4,1C91.8,94.7,91.7,94.1,91.3,93.9z"/>
<path class="st0" d="M62.7,84.4c-0.2-1.9-0.7-4.9-2.1-6.4c-0.2-0.2-0.2-0.2-0.2-0.2c-0.1-0.1-0.1-0.2-0.2-0.2
	c-0.2-0.1-0.4,0-0.6-0.2s-0.2-0.1-0.2-0.1c0-0.2-0.1-0.3-0.3-0.4l-1-0.3c-0.5-0.1-0.7,0.6-0.2,0.8c0.3,0.1,0.7,0.1,0.7,0.3
	c0,0.2,0.1,0.4,0.3,0.4c0.4,0.1,0.9,0.7,0.8,0.3c0,0.3,0.2,0.5,0.5,0.5c0.3,0,1,3.1,1.1,3.5c0.4,1.6,0.5,3.2,0.5,4.9
	c0,3.2-1,7.1-4.9,7.2c-0.4,0-0.6,0.4-0.6,0.7c0,0.3,0.3,0.5,0.6,0.6C62.6,95.8,63.2,88.7,62.7,84.4z"/>
<path class="st0" d="M61.2,74.9c-3-2.6-6.8-0.9-9,1.9s-2.9,7-2.4,10.4c0.5,3.2,3.7,14.4,9,9.8c0.3-0.3,0-0.7-0.4-0.7
	c-2.4,0.4-3.7,0-5-2.1c-1-1.8-1.7-3.8-2.1-5.9c-0.4-2.1-0.4-4.3,0-6.5c0.7-3.7,5-9.6,9.2-6.2C61,76,61.7,75.3,61.2,74.9z"/>
<path class="st0" d="M55.4,78.1c-1.2,0.3-1.8,1.9-1.9,2.9c0,0.3,0.4,0.3,0.5,0c0-1.1,0.6-2,1.6-2.5c0.1-0.1,0.1-0.2,0.1-0.3
	C55.5,78.1,55.4,78.1,55.4,78.1z"/>
<path class="st0" d="M32.3,60.1c-2.7,1.4-4.8,3.8-6.8,6c-0.1,0.2-0.1,0.4,0.1,0.5c0.1,0.1,0.3,0.1,0.4,0c2.2-2,4.2-4.2,6.9-5.6
	C33.5,60.8,32.9,59.8,32.3,60.1z"/>
<path class="st0" d="M40.5,97.8c-0.7-3.2-1.8-6.3-2-9.6c0-1.8,0.1-3.7,0.3-5.5c0-0.2-0.2-0.2-0.3,0L38.2,83c-0.1,0-0.1,0.1-0.1,0.2
	c-0.3,3.4-0.1,6.8,0.5,10.1c0.9,4.1,2.2,8.1,1.6,12.4c-0.6,3.1-2.4,5.8-5.1,7.5c-1.4,1-5.7,3.4-6.2,1c3.9-0.2,7-3.6,8.6-6.9
	c2.3-4.6,0.3-11.2-0.5-15.9c-1.3-7.2-2.8-14.4-3.5-21.6c-0.1-1.6,1.1-6.6-2.1-5.4c-0.2,0-0.2,0.2-0.2,0.4c0,0.1,0.2,0.2,0.3,0.2
	c1.7,0,0.9,2.9,0.8,3.8c0,2.2,0.2,4.4,0.7,6.6c0.7,4.9,1.7,9.7,2.4,14.6s2.2,10.1,1.5,15.1c-0.6,3.9-4.3,7.4-8.1,8.1
	c-0.2-0.2-0.5-0.1-0.7,0.1c0,0,0,0.1-0.1,0.1c-0.2,0.2-0.2,0.6,0,0.8c0.2,2,1.7,2.5,3.7,1.9c3-1,5.5-2.9,7.3-5.4
	C41.9,106.7,41.3,101.9,40.5,97.8z"/>
<path class="st0" d="M37.7,78.3L37.7,78.3C37.7,78.3,37.7,78.3,37.7,78.3z"/>
<path class="st0" d="M50.8,49.6c-2.9,0.9-5.5,2.7-7.3,5.2c-1.7,2.1-0.4,5.6-0.3,7.9c0.2,3.6,1.1,7.4,0.3,11
	c-0.4,1.9-1.6,2.9-2.8,4.2c-0.4,0.4-2,2.3-2.6,1.8c-0.1-0.4-0.2-0.9-0.4-1.3c0,0,0,0-0.1,0c0,0,0,0,0,0c-0.6,1.5-0.1,2.5,1.6,2
	c1.1-0.3,1.9-1.6,2.7-2.3c1.1-0.9,1.9-2,2.4-3.3c1.2-3.7,0.3-7.4,0.1-11.2c-0.1-2.1-0.4-4.1-0.5-6.2c-0.1-3.4,4.6-5.8,7.2-6.8
	C51.7,50.3,51.5,49.4,50.8,49.6z"/>
<path class="st0" d="M56.9,105.5c-2.5-0.6-4.1-1.1-5.7-3.4c-1.2-1.9-2.1-3.9-2.7-6c-0.9-2.5-1.5-5.1-2.1-7.6
	c-0.8-3.3-0.6-6.7-1.5-9.9c-0.1-0.2-0.3-0.4-0.6-0.3c0,0,0,0,0,0c-0.7,0.2-1.4,0.7-1.8,1.4c-0.2,0.2,0.2,0.4,0.3,0.3
	c2.1-2.2,1.5,1.6,1.5,2.9c0.1,2,0.4,4,0.8,6c0.6,3.2,1.5,6.3,2.5,9.4c1.2,3.2,4.5,10,9,8.2c0.2-0.1,0.3-0.4,0.2-0.6
	C57,105.6,57,105.5,56.9,105.5z"/>
<path class="st0" d="M113,130.1c-4.4,4.6-13.1,5.6-19.1,6c-3.3,0.3-6.7,0.2-10,0.4c-3.5,0.3-7,0.7-10.5,0.9
	c-7,0.3-14.3-0.5-21.3-1.2c-3.9-0.3-7.7-1.2-11.3-2.7c-1-0.4-1.9-1.3-2.5-0.3c0,0,0,0.1,0,0.1c0,0,0,0,0.1,0
	c0.2-0.1,1.1,0.6,1.2,0.6c1.4,0.5,2.7,1.3,4.1,1.7c3.2,1.1,7,1.4,10.4,1.7c7.7,0.8,15.7,1.5,23.4,0.9c6.8-0.5,13.7-0.4,20.4-1.3
	c5-0.7,12.7-1.8,15.9-6.3C114.1,130.3,113.4,129.8,113,130.1z"/>
</svg>
