<svg id="OBJECTS" xmlns="http://www.w3.org/2000/svg" viewBox="0 0 210 207.1"><defs><style>.cls-1{fill:#fff;}.cls-2{fill:none;}</style></defs><title>logo</title><path class="cls-1" d="M743.8,161.46c.07.88.13,1.77.18,2.66" transform="translate(-541.24 -57.03)"/><path class="cls-1" d="M550.69,161.46c-.07.88-.13,1.77-.18,2.66H744c-.05-.89-.11-1.78-.18-2.66Z" transform="translate(-541.24 -57.03)"/><path class="cls-1" d="M720.78,87.36a103.23,103.23,0,1,0,30.46,73.22A103.54,103.54,0,0,0,720.78,87.36ZM647.24,260.59c-55.47,0-100.44-44.78-100.44-100s45-100,100.44-100,100.44,44.77,100.44,100S702.71,260.59,647.24,260.59Z" transform="translate(-541.24 -57.03)"/><polygon class="cls-2" points="80.52 96.52 80.52 89.12 76.75 92.82 80.52 96.52"/><rect class="cls-2" x="83.01" y="85.74" width="11.11" height="13.94"/><rect class="cls-2" x="116.65" y="38.69" width="27.12" height="3.52"/><polygon class="cls-2" points="71.38 98.1 79.6 98.1 75.49 94.06 71.38 98.1"/><polygon class="cls-2" points="70.47 89.12 70.47 96.52 74.23 92.82 70.47 89.12"/><polygon class="cls-2" points="96.58 89.12 96.58 96.52 100.35 92.82 96.58 89.12"/><polygon class="cls-2" points="106.28 87 96.94 87 101.61 91.59 106.28 87"/><rect class="cls-2" x="116.65" y="33.74" width="27.12" height="3.51"/><polygon class="cls-2" points="106.63 96.52 106.63 89.12 102.86 92.82 106.63 96.52"/><polygon class="cls-2" points="80.15 87.01 70.83 87.01 75.49 91.59 80.15 87.01"/><polygon class="cls-2" points="97.62 97.98 105.6 97.98 101.61 94.06 97.62 97.98"/><path class="cls-2" d="M664,133.88h18.48a14.43,14.43,0,0,1-2.34-3.51H664Z" transform="translate(-541.24 -57.03)"/><rect class="cls-2" x="116.65" y="43.64" width="27.12" height="3.51"/><rect class="cls-2" x="122.72" y="93.14" width="21.05" height="3.51"/><rect class="cls-2" x="122.72" y="83.24" width="21.05" height="3.51"/><path class="cls-2" d="M664,138.83h21v-2.68c-.38-.26-.74-.54-1.1-.83H664Z" transform="translate(-541.24 -57.03)"/><rect class="cls-2" x="122.72" y="88.19" width="21.05" height="3.51"/><rect class="cls-2" x="116.65" y="28.79" width="27.12" height="3.51"/><path class="cls-2" d="M665.65,119h13.53a21.26,21.26,0,0,1,1.17-3.51H660.67Z" transform="translate(-541.24 -57.03)"/><path class="cls-2" d="M681,114.08a21,21,0,0,1,2.25-3.51H657.89v3l.75.53Z" transform="translate(-541.24 -57.03)"/><path class="cls-2" d="M685,108.63v-3H657.89v3.51h26.62Z" transform="translate(-541.24 -57.03)"/><path class="cls-2" d="M669.72,121.91a.5.5,0,0,1,.19.56.52.52,0,0,1-.48.34H664V124h14.66c0-.12,0-.24,0-.36a18.81,18.81,0,0,1,.28-3.15h-11.2Z" transform="translate(-541.24 -57.03)"/><path class="cls-2" d="M664,128.93h15.55a16,16,0,0,1-.81-3.51H664Z" transform="translate(-541.24 -57.03)"/><path class="cls-2" d="M598.11,127.43a13.93,13.93,0,0,0-.26-2.62,18.23,18.23,0,0,0-.52-2,18.93,18.93,0,0,0-2.66-5.22c-2.27-3.11-5.46-5.37-8.91-5.37-6.71,0-11.92,8.17-11.92,15.2A11.61,11.61,0,0,0,585,139.29l.09-2.7-5.55-3.3.4-.37,5.18,2.73v-.06h0l.08-3.3v-.58l-5.09-2.83.25-.44,4.84,2.25v-5.36l-3.31-2.29.63-.21,3.39,2.23,3.33-2.26.44-.29.33.29.07.07-3.2,2.28,0,2.49,4.91-2.54.48.46-5.38,3.29L587,133l5.43-2.71.48.45L587,134.2l.12,5.05a12.25,12.25,0,0,0,8.5-4.59,11.63,11.63,0,0,0,2.24-4.76A11.83,11.83,0,0,0,598.11,127.43Z" transform="translate(-541.24 -57.03)"/><path class="cls-2" d="M687.34,130.52l-.57-.33.45-.41.12.06,5.69,3v-.06h0l.08-3.7v-.65l-5.69-3.17.27-.49,5.42,2.52v-6l-3.7-2.57.7-.24,3.81,2.51,4.22-2.87.45.4L695,121.08l.06,2.79,5.5-2.84.53.51-6,3.68.1,4.63,6.09-3,.53.52-6.6,3.88.14,5.71a13.39,13.39,0,0,0,12.36-13.3c0-7.69-6.4-17.08-13.87-17.08a10.56,10.56,0,0,0-6.48,2.39,15.37,15.37,0,0,0-2.32,2.25,19.11,19.11,0,0,0-2,2.9c-.26.47-.51,1-.74,1.44A21,21,0,0,0,681,119c-.13.48-.23,1-.32,1.44a17.84,17.84,0,0,0-.29,3.15c0,.12,0,.24,0,.36a14.53,14.53,0,0,0,1,5,13,13,0,0,0,5.92,6.52A13.9,13.9,0,0,0,692.9,137l.09-3.07Z" transform="translate(-541.24 -57.03)"/><path class="cls-2" d="M686.7,71.94a7.66,7.66,0,0,1,.61,2.46h0v32.38a11.87,11.87,0,0,1,6.48-2c8.68,0,15.67,10.32,15.67,18.87a15.18,15.18,0,0,1-14.12,15.1l.32,13.68.94,6.55h-5.16l.94-6.55.44-13.65a15.91,15.91,0,0,1-5.5-1.31v21.5H596.73a1.12,1.12,0,0,1-1.12-1.12V137.17a14.11,14.11,0,0,1-8.46,3.77l.29,12.16.84,5.85h-4.61l.84-5.85L584.9,141a13.25,13.25,0,0,1-12.74-13.53c0-7.81,5.94-16.88,13.6-16.88,4.11,0,7.79,2.58,10.35,6.14l35-22.07c-.1-.1.18-.11,0,0h0l24.28,17.15V74.41h0c.4-5.65,6.32-8.71,13.85-9.17a101.39,101.39,0,0,0-27.34-3.74c-55.62,0-100.7,44.89-100.7,100.27S586.32,262,641.94,262s100.7-44.89,100.7-100.27A100.23,100.23,0,0,0,686.7,71.94Z" transform="translate(-541.24 -57.03)"/><path class="cls-2" d="M597.85,134.38v22.33h12.06V142.26a.5.5,0,0,1,.5-.5h12.64a.51.51,0,0,1,.35.15.49.49,0,0,1,.35-.15h12.11a.46.46,0,0,0,.66,0h12.64a.5.5,0,0,1,.5.5v14.45h12.06V123.28l-3.83-2.64-2.5-1.73-24.17-16.68L599,122.57a16.91,16.91,0,0,1,.76,4.86A13.38,13.38,0,0,1,597.85,134.38Zm49.57-8.77a.21.21,0,0,1,.21-.2h6.5a.2.2,0,0,1,.2.2v6.5a.2.2,0,0,1-.2.21h-6.5a.21.21,0,0,1-.21-.21Zm-10.55,0a.21.21,0,0,1,.21-.2h6.5a.2.2,0,0,1,.21.2v6.5a.21.21,0,0,1-.21.21h-6.5a.21.21,0,0,1-.21-.21Zm-10.54,0a.2.2,0,0,1,.21-.2H633a.2.2,0,0,1,.2.2v6.5a.2.2,0,0,1-.2.21h-6.5a.21.21,0,0,1-.21-.21Zm-10.55,0a.2.2,0,0,1,.21-.2h6.5a.2.2,0,0,1,.21.2v6.5a.21.21,0,0,1-.21.21H616a.21.21,0,0,1-.21-.21Zm-10.54,0a.2.2,0,0,1,.2-.2H612a.2.2,0,0,1,.2.2v6.5a.2.2,0,0,1-.2.21h-6.51a.2.2,0,0,1-.2-.21Z" transform="translate(-541.24 -57.03)"/><rect class="cls-2" x="116.65" y="23.84" width="27.12" height="3.51"/><rect class="cls-2" x="116.65" y="18.89" width="27.12" height="3.51"/><path class="cls-1" d="M655.43,74.41h31.88a7.66,7.66,0,0,0-.61-2.46,100.23,100.23,0,0,0-17.42-6.7C661.75,65.7,655.83,68.76,655.43,74.41Z" transform="translate(-541.24 -57.03)"/><rect class="cls-1" x="116.65" y="22.41" width="27.12" height="1.44"/><rect class="cls-1" x="116.65" y="32.31" width="27.12" height="1.44"/><rect class="cls-1" x="116.65" y="37.26" width="27.12" height="1.43"/><rect class="cls-1" x="116.65" y="42.21" width="27.12" height="1.44"/><rect class="cls-1" x="116.65" y="47.16" width="27.12" height="1.44"/><path class="cls-1" d="M684.51,109.13H657.89v1.44h25.38C683.66,110.07,684.08,109.59,684.51,109.13Z" transform="translate(-541.24 -57.03)"/><path class="cls-1" d="M660.67,115.52h19.68c.2-.49.43-1,.67-1.44H658.64Z" transform="translate(-541.24 -57.03)"/><path class="cls-1" d="M664,125.42H678.7c0-.47-.07-1-.08-1.44H664Z" transform="translate(-541.24 -57.03)"/><path class="cls-1" d="M664,130.37H680.1a15,15,0,0,1-.59-1.44H664Z" transform="translate(-541.24 -57.03)"/><path class="cls-1" d="M667.68,120.47h11.2q.12-.72.3-1.44H665.65Z" transform="translate(-541.24 -57.03)"/><path class="cls-1" d="M664,135.32h19.95a14.28,14.28,0,0,1-1.47-1.44H664Z" transform="translate(-541.24 -57.03)"/><rect class="cls-1" x="122.72" y="81.8" width="21.05" height="1.44"/><rect class="cls-1" x="122.72" y="86.75" width="21.05" height="1.44"/><rect class="cls-1" x="122.72" y="91.7" width="21.05" height="1.44"/><rect class="cls-1" x="116.65" y="27.36" width="27.12" height="1.44"/><path class="cls-1" d="M655.43,74.41h0v37.37l2.5,1.77V75.92H685v32.71a16.81,16.81,0,0,1,2.32-1.85V74.4h-31.9Z" transform="translate(-541.24 -57.03)"/><path class="cls-1" d="M685,138.83v17.41H664v1.59a1.12,1.12,0,0,1-1.12,1.12h24.51v-21.5a15.94,15.94,0,0,1-2.33-1.29Z" transform="translate(-541.24 -57.03)"/><path class="cls-1" d="M684.51,109.13c-.43.46-.85.94-1.24,1.44a21,21,0,0,0-2.25,3.51c-.24.47-.47,1-.67,1.44a21.26,21.26,0,0,0-1.17,3.51q-.18.72-.3,1.44a18.81,18.81,0,0,0-.28,3.15c0,.12,0,.24,0,.36,0,.49,0,1,.08,1.44a16,16,0,0,0,.81,3.51,15,15,0,0,0,.59,1.44,14.43,14.43,0,0,0,2.34,3.51,14.28,14.28,0,0,0,1.47,1.44c.36.29.72.57,1.1.83a15.37,15.37,0,0,0,7.83,2.6l.06-1.79a13.9,13.9,0,0,1-5.56-1.51,12.74,12.74,0,0,1-2.33-1.58,13,13,0,0,1-3.59-4.94,14.53,14.53,0,0,1-1-5c0-.12,0-.24,0-.36a17.84,17.84,0,0,1,.29-3.15c.09-.48.19-1,.32-1.44a21,21,0,0,1,1.26-3.51c.23-.49.48-1,.74-1.44a19.11,19.11,0,0,1,2-2.9,15.37,15.37,0,0,1,2.32-2.25,10.56,10.56,0,0,1,6.48-2.39c7.47,0,13.87,9.39,13.87,17.08a13.39,13.39,0,0,1-12.36,13.3l0,1.8a15.18,15.18,0,0,0,14.12-15.1c0-8.55-7-18.87-15.67-18.87a11.87,11.87,0,0,0-6.48,2,16.81,16.81,0,0,0-2.32,1.85Z" transform="translate(-541.24 -57.03)"/><polygon class="cls-1" points="153.95 74.18 160.54 70.3 160.01 69.78 153.92 72.83 153.83 68.19 159.85 64.51 159.31 64 153.81 66.84 153.75 64.06 157.34 61.49 156.89 61.09 152.67 63.96 148.87 61.45 148.16 61.69 151.87 64.26 151.87 70.27 146.45 67.74 146.17 68.23 151.87 71.41 151.87 72.05 151.78 75.76 151.79 75.75 151.79 75.81 146.1 72.81 145.98 72.75 145.53 73.16 146.1 73.5 151.76 76.86 151.66 79.93 151.6 81.72 151.16 95.37 150.23 101.92 155.38 101.92 154.45 95.37 154.13 81.69 154.08 79.89 153.95 74.18"/><path class="cls-1" d="M664,157.83v-35h-1.74a.47.47,0,0,1-.28-.09l-30.83-21.61L598.8,121.9c.08.22.15.44.22.67l32.2-20.34,24.17,16.68,2.5,1.73,3.83,2.64v33.43H649.66v.14a.5.5,0,0,1-.5.5H636.52a.41.41,0,0,1-.16,0v.15a.51.51,0,0,1-.5.5H623.75a.51.51,0,0,1-.51-.5v-.11a.41.41,0,0,1-.19,0H610.41a.5.5,0,0,1-.5-.5v-.19H597.85V134.38a13.39,13.39,0,0,1-2.24,2.79v20.66a1.12,1.12,0,0,0,1.12,1.12h66.11A1.12,1.12,0,0,0,664,157.83Z" transform="translate(-541.24 -57.03)"/><path class="cls-1" d="M631.11,101.11l30.83,21.61a.47.47,0,0,0,.28.09h7.21a.52.52,0,0,0,.48-.34.5.5,0,0,0-.19-.56l-2-1.44-2-1.44-5-3.51-2-1.44-.75-.53-2.5-1.77L631.11,94.63h0l-35,22.07a20.29,20.29,0,0,1,2.69,5.21Z" transform="translate(-541.24 -57.03)"/><path class="cls-1" d="M631.1,94.62h0C631.28,94.51,631,94.52,631.1,94.62Z" transform="translate(-541.24 -57.03)"/><path class="cls-1" d="M636,156.85V142.26a.49.49,0,0,1,.17-.36.5.5,0,0,0-.33-.14H623.75a.49.49,0,0,0-.35.15.49.49,0,0,1,.15.35V156.9a.49.49,0,0,1-.31.46v.11a.51.51,0,0,0,.51.5h12.11a.51.51,0,0,0,.5-.5v-.15A.5.5,0,0,1,636,156.85Zm-.66-.14V157H624.25v-14.2h11.11Z" transform="translate(-541.24 -57.03)"/><path class="cls-1" d="M623.55,156.9V142.26a.49.49,0,0,0-.15-.35.51.51,0,0,0-.35-.15H610.41a.5.5,0,0,0-.5.5V156.9a.5.5,0,0,0,.5.5h12.64a.41.41,0,0,0,.19,0A.49.49,0,0,0,623.55,156.9ZM621.38,144l-4.65,4.57L612.07,144Zm-9.68,2.11,3.77,3.7-3.77,3.7Zm.92,9,4.11-4,4.11,4Zm9.13-1.58-3.76-3.7,3.76-3.7Z" transform="translate(-541.24 -57.03)"/><path class="cls-1" d="M649.16,141.76H636.52a.53.53,0,0,0-.5.5v14.59a.5.5,0,0,0,.34.47.41.41,0,0,0,.16,0h12.64a.5.5,0,0,0,.5-.5V142.26A.5.5,0,0,0,649.16,141.76ZM647.51,144l-4.67,4.58L638.17,144Zm-9.69,2.12,3.76,3.7-3.76,3.7Zm1,8.86,4-3.92,4,3.92Zm9-1.46-3.77-3.7,3.77-3.7Z" transform="translate(-541.24 -57.03)"/><rect class="cls-1" x="64.41" y="68.79" width="6.09" height="6.09"/><path class="cls-1" d="M605.44,132.32H612a.2.2,0,0,0,.2-.21v-6.5a.2.2,0,0,0-.2-.2h-6.51a.2.2,0,0,0-.2.2v6.5A.2.2,0,0,0,605.44,132.32Zm.21-6.5h6.09v6.09h-6.09Z" transform="translate(-541.24 -57.03)"/><rect class="cls-1" x="74.96" y="68.79" width="6.09" height="6.09"/><path class="cls-1" d="M616,132.32h6.5a.21.21,0,0,0,.21-.21v-6.5a.2.2,0,0,0-.21-.2H616a.2.2,0,0,0-.21.2v6.5A.21.21,0,0,0,616,132.32Zm.2-6.5h6.1v6.09h-6.1Z" transform="translate(-541.24 -57.03)"/><rect class="cls-1" x="85.5" y="68.79" width="6.09" height="6.09"/><path class="cls-1" d="M626.54,132.32H633a.2.2,0,0,0,.2-.21v-6.5a.2.2,0,0,0-.2-.2h-6.5a.2.2,0,0,0-.21.2v6.5A.21.21,0,0,0,626.54,132.32Zm.2-6.5h6.09v6.09h-6.09Z" transform="translate(-541.24 -57.03)"/><rect class="cls-1" x="96.05" y="68.79" width="6.09" height="6.09"/><path class="cls-1" d="M637.08,132.32h6.5a.21.21,0,0,0,.21-.21v-6.5a.2.2,0,0,0-.21-.2h-6.5a.21.21,0,0,0-.21.2v6.5A.21.21,0,0,0,637.08,132.32Zm.21-6.5h6.09v6.09h-6.09Z" transform="translate(-541.24 -57.03)"/><rect class="cls-1" x="106.6" y="68.79" width="6.09" height="6.09"/><path class="cls-1" d="M647.63,132.32h6.5a.2.2,0,0,0,.2-.21v-6.5a.2.2,0,0,0-.2-.2h-6.5a.21.21,0,0,0-.21.2v6.5A.21.21,0,0,0,647.63,132.32Zm.2-6.5h6.09v6.09h-6.09Z" transform="translate(-541.24 -57.03)"/><path class="cls-1" d="M592.88,130.73l-.48-.45L587,133l-.09-4.13,5.38-3.29-.48-.46-4.91,2.54,0-2.49,3.2-2.28-.07-.07-.33-.29-.44.29-3.33,2.26-3.39-2.23-.63.21,3.31,2.29v5.36l-4.84-2.25-.25.44,5.09,2.83v.58l-.08,3.3h0v.06l-5.18-2.73-.4.37,5.55,3.3-.09,2.7c.27,0,.54,0,.81,0a11.94,11.94,0,0,0,1.35-.08L587,134.2Z" transform="translate(-541.24 -57.03)"/><path class="cls-1" d="M584.9,141l-.39,12.14-.84,5.85h4.61l-.84-5.85-.29-12.16c-.45,0-.92.07-1.39.07C585.47,141,585.19,141,584.9,141Z" transform="translate(-541.24 -57.03)"/><path class="cls-1" d="M599.78,127.43a16.91,16.91,0,0,0-.76-4.86c-.07-.23-.14-.45-.22-.67a20.29,20.29,0,0,0-2.69-5.21c-2.56-3.56-6.24-6.14-10.35-6.14-7.66,0-13.6,9.07-13.6,16.88A13.25,13.25,0,0,0,584.9,141c.29,0,.57,0,.86,0,.47,0,.94,0,1.39-.07a14.11,14.11,0,0,0,8.46-3.77,13.43,13.43,0,0,0,4.17-9.74Zm-12.67,11.82a11.94,11.94,0,0,1-1.35.08c-.27,0-.54,0-.81,0a11.61,11.61,0,0,1-11.11-11.86c0-7,5.21-15.2,11.92-15.2,3.45,0,6.64,2.26,8.91,5.37a18.93,18.93,0,0,1,2.66,5.22,18.23,18.23,0,0,1,.52,2,13.93,13.93,0,0,1,.26,2.62,11.83,11.83,0,0,1-.26,2.47,11.63,11.63,0,0,1-2.24,4.76A12.25,12.25,0,0,1,587.11,139.25Z" transform="translate(-541.24 -57.03)"/><path class="cls-1" d="M659.77,167l47.89,69.11c.71-.58,1.42-1.18,2.11-1.78L662.57,167Z" transform="translate(-541.24 -57.03)"/><path class="cls-1" d="M631.47,167l-47,67.14c.7.61,1.4,1.21,2.11,1.8L634.27,167Z" transform="translate(-541.24 -57.03)"/><path class="cls-1" d="M622.61,167l-52.69,51.09c.52.72,1.05,1.44,1.6,2.15L625.42,167Z" transform="translate(-541.24 -57.03)"/><path class="cls-1" d="M613.14,167l-54.43,30.7c.33.82.67,1.62,1,2.43L616,167Z" transform="translate(-541.24 -57.03)"/><path class="cls-1" d="M677.77,167l56.76,33.71c.43-1,.84-2,1.24-3L680.57,167Z" transform="translate(-541.24 -57.03)"/><path class="cls-1" d="M668.62,167l54.22,53.44c.55-.71,1.08-1.43,1.61-2.15l-53-51.29Z" transform="translate(-541.24 -57.03)"/><path class="cls-1" d="M648.46,167l12.89,89.67c.94-.14,1.88-.29,2.81-.46L651.27,167Z" transform="translate(-541.24 -57.03)"/><path class="cls-1" d="M642.78,167,630,256.19c.94.17,1.87.33,2.81.47L645.58,167Z" transform="translate(-541.24 -57.03)"/><path class="cls-1" d="M653.77,167l34,81.7c.85-.4,1.7-.81,2.53-1.24L656.58,167Z" transform="translate(-541.24 -57.03)"/><path class="cls-1" d="M637.47,167,604,247.36c.83.43,1.68.84,2.53,1.24L640.27,167Z" transform="translate(-541.24 -57.03)"/></svg>