<?xml version="1.0" encoding="utf-8"?>
<!-- Generator: Adobe Illustrator 23.0.1, SVG Export Plug-In . SVG Version: 6.00 Build 0)  -->
<svg version="1.1" id="svg2" xmlns="http://www.w3.org/2000/svg" xmlns:xlink="http://www.w3.org/1999/xlink" x="0px" y="0px"
	 viewBox="0 0 69.1 81.3" style="enable-background:new 0 0 69.1 81.3;" xml:space="preserve">
<style type="text/css">
	.st0{fill:#101010;}
</style>
<title>meat</title>
<path class="st0" d="M72.4,26.9c0.1-1.2,0-2.4-0.3-3.5c-0.2-1.1,0.7-1.9,0.4-3c-0.3-0.7-0.7-1.3-1.2-1.8c-1-1-2.1-2-3.3-2.8
	c-4.8-3.6-10.3-5.4-15.9-7.4c-1.9-0.7-3.7-1.6-5.6-2.2c-0.8-0.3-1.6-0.4-2.4-0.3c-0.9,0.1-1.8,0.6-2.2,1.5C40.5,9.5,37.5,9,35.4,8
	c-0.9-0.4-1.6-1.2-1.9-2.2c0-1,0.3-1.9,0.7-2.8c0.5-1.4-0.8-1.9-1.7-2.6c-1.2-0.8-2.4-1.6-3.6-2.4C26.5-3.6,24-5,21.4-6.3
	c-1.3-0.6-2.7-1.1-4.1-1.4c-0.9-0.3-1.9-0.4-2.8-0.4c-1.2,0.2-1.9,1.5-2.5,2.4C11-4.5,10.3-3.2,9.6-1.9c-0.6,1.4-1.3,2.7-2,4
	C6.9,3.3,6.3,4.5,5.7,5.8c-1.2,2.8-2.3,5.6-3.3,8.4c-1.9,5.4-1,10.8-0.2,16.3c0.2,1,0.4,2.1,0.4,3.1c0.1,1.3,0,2.7-0.2,4
	c-0.2,1.2-0.2,2.4-0.1,3.6c0.2,0.6,0.3,1.2,0.3,1.8c0,0.6-0.1,1.3-0.3,1.9c-0.2,1.3-0.2,2.7,0,4c0.1,0.6,0.4,1.1,0.5,1.7
	s0.1,1.3,0.3,2c1,3.3,4.3,0,5.6-1.2c1-0.9,1.9-1.9,2.8-3c-0.1,0.8-0.5,1.6-1.1,2.2c-0.7,0.6-1.5,1.2-2.2,1.9c-1.7,1.4-3.2,3-4.5,4.8
	c-1.3,2-1.7,4.4-2.2,6.6c-0.5,2.1-0.3,4.3,0.4,6.3c0.6,1.8,1.1,3.6,3.2,3.9c2.1,0.2,4.3,0.2,6.4,0c1.8-0.2,3.6-0.6,5.3-1.2
	c0.8-0.3,1.6-0.7,2.3-1.1c0.9-0.5,1.6-1.2,2.4-1.7c0.8-0.5,1.7-0.8,2.6-0.9c1-0.3,2-0.7,2.9-1.4c0.6-0.5,1-1.1,1.5-1.6
	c0.8-0.8,1.7-1.5,2.6-2.2c3.7-2.6,8.1-3.9,11.7-6.6c1.6-1.2,3.2-2.5,4.8-3.7c1.8-1.4,3.3-3.1,5.2-4.4c1.9-1.3,3.7-2.8,5.4-4.4
	c1.8-1.8,3.6-3.6,5.4-5.4c1.9-1.8,3.4-3.8,4.7-6.1c0.6-1.2,1.2-2.4,1.9-3.5C71.1,29,72.2,28.2,72.4,26.9
	C72.6,26.1,72.2,27.9,72.4,26.9z M15.7-7.3c4.2,0.7,7.9,2.8,11.5,5.1C29-1,30.8,0.3,32.6,1.4C33.5,2,34,2.2,33.5,3.1
	c-0.4,0.6-0.6,1.3-0.7,2.1c-0.2,3.5,4.8,5,7.6,4.2c0.8-0.2,1.5-0.7,2-1.3c0.6-0.7,0.8-1.4,1.8-1.5c1.4,0,2.9,0.4,4.1,1.1
	c3.9,1.7,8,2.8,11.9,4.5c4,1.6,7.7,4.1,10.7,7.2c0.5,0.4,0.8,1,0.9,1.7c0,0.3-0.1,0.5-0.2,0.8c-0.2,0.4-0.4,0.8-0.6,1.2
	c-1.2,1.4-3.4-1.6-4.2-2.3c-3.1-2.8-6.8-4.8-10.7-6c-4-1-8.1-1.6-12.3-1.6c-3.5-0.2-7.3,0.1-10.1,2.5c-2.9,2.6-4.1,6.6-6.2,9.8
	c-1.2,1.9-2.6,3.7-3.7,5.6c-1.1,2-2,3.9-3.1,5.9c-1.9,3.8-3.9,8-6.9,11.1c-0.3,0.3-1.2,1.5-1.3,0.5c-0.1-1,0.7-2.3,1.1-3.1
	c0.9-1.8,1.8-3.5,2.7-5.2c1.7-3.3,3.3-6.8,4.8-10.2c0.8-1.8,1.5-3.6,2.4-5.3c1-1.9,2.2-3.8,3.2-5.7c1.5-3,2.6-6.4,1.8-9.8
	s-3.3-5.9-5.7-8.2c-2.3-2.1-4.6-4.3-6.8-6.3c-0.7-0.5-1.3-1.2-1.8-2C14.8-7.4,15.2-7.4,15.7-7.3C21-6.4,15.1-7.4,15.7-7.3z
	 M30.3,25.7c0.2,0.1,0.3,0.1,0.5,0.1c-2-0.1-2.9,1.7-3.9,3.1c-1.2,1.7-2.5,3.2-3.7,4.9c0.9-1.7,1.9-3.4,2.9-5.1
	c1.1-1.6,2.2-3.1,3.2-4.8c-0.3,0.7,0.1,1.5,0.8,1.7C30.2,25.7,30.2,25.7,30.3,25.7L30.3,25.7z M8.6,50.7c0.2-0.3,0.4-0.5,0.6-0.8
	c-0.4,0.2-0.7,0.5-1.1,0.8c0.3-0.4,0.6-0.8,0.8-1.3c-0.8,0.8-1.7,1.5-2.6,2.2c-0.7,0.4-0.8-0.4-0.6-1c-0.3,0.4-0.5,1.7,0.3,1.6
	c-1.1,0.6-1.1-0.3-1-1.2c0.1-0.9,0.2-1.9-0.5-2.6c0.5,1-0.1,2.1-0.2,3.1s0.3,1.9,1.5,1.7C5,53.7,4.3,53.5,4,52.4
	c-0.1-0.5-0.1-0.9-0.2-1.4c-0.1-0.5-0.3-1.1-0.5-1.6c-0.6-2,0.1-4,0.2-5.9c-0.1-0.9-0.2-1.9-0.4-2.8c0-1.1,0-2.1,0.1-3.2
	c0.2-2,0.2-3.9-0.1-5.9c-0.7-4.3-1.6-8.6-1-13c0.3-2,0.9-4,1.7-5.9c0.8-2.2,1.6-4.4,2.6-6.5s2.4-4.2,3.4-6.4c1-2.4,2.3-4.6,4-6.5
	c0.4,0.7,1,1.4,1.7,1.9c-3,0.1-4.5,3.6-5.9,5.8c-0.5,0.8-1,1.6-1.4,2.3C7.8,3.8,7.5,4.5,7.3,5.3C7.1,5.7,7,6.2,6.7,6.7
	c0.1,0.1,0.8-1.5,0.8-1.5c0.3-0.7,0.6-1.4,1.1-2.1c0.6-0.8,1.1-1.7,1.7-2.5c0.8-1.4,1.8-2.7,2.9-3.8c0.5-0.5,1.2-0.8,1.9-0.9
	c0.3,0,1.3,0.3,1.4,0.2l4.7,4.3c2.5,2.3,5.3,4.8,6.4,8.2c0.7,2.4,0.5,5-0.4,7.3c0.4-1.8,0.4-3.6,0-5.4c0.1,3.2-0.7,6.3-2.4,9.1
	c-0.4,0.7-0.8,1.5-1.2,2.1c-0.3,0.6-0.7,1-1.3,1.4c-0.4,0.2-0.5-0.2-0.7-0.6c-0.3-0.7-0.4-1.4-0.4-2.1c-0.2,0.9-0.2,2.4,0.5,3.1
	s1.8-0.8,2.2-1.3c-1.8,3.4-3.5,6.9-5,10.5c0.5-1.8-0.3-3.8-0.7-5.5c-0.5-2-1-3.9-1.7-5.9c0.2,1.9,0.6,3.9,0.9,5.8
	c-0.6-1.2-1.1-2.5-1.3-3.8c-0.6,2.5,1.7,4.5,1.7,6.9c0.1-0.2,0.1-0.5,0.1-0.7c0.4,1.2,0.4,2.5,0.1,3.7c-0.4,1.3-1,2.6-1.6,3.8
	c0.5-0.6,1-1.3,1.4-2c-1.4,3-2.9,5.9-4.5,8.8c-0.5,1-1.1,2-1.7,3c-1,1.3-2.1,2.6-3.3,3.7C8.8,50.4,10,49.4,8.6,50.7L8.6,50.7z
	 M70.7,28.5c-1.2,1.5-2.1,3-2.9,4.8c-0.8,1.5-1.8,2.9-3,4.2c-1.5,1.6-3.1,3.2-4.7,4.8c-1.7,1.8-3.6,3.5-5.5,5
	c-1.5,1.1-3.1,2.2-4.5,3.4c-1,0.9-1.9,1.9-3,2.7l-3.5,2.7c-2.8,2.2-6,3.6-9.2,5.2c-1.6,0.8-3.1,1.7-4.5,2.8
	c-1.2,0.9-2.1,2.1-3.2,3.1c-1.3,1.2-2.9,1.2-4.3,1.8c-1.5,0.6-2.7,1.9-4.1,2.6c-3.1,1.4-6.5,2.1-9.9,1.9c-1.6,0-4,0.2-4.9-1.3
	c-0.4-0.8-0.7-1.6-1-2.5c-0.3-0.9-0.5-1.9-0.6-2.9c0,0.4,0.2,0.8,0.3,1.1c0.2,0.3,0.5,0.5,0.6,0.7c0.4,0.6,0.4,1.3,0.9,1.9
	c-0.3-0.5-0.4-1-0.5-1.6c-0.1-0.4-0.2-0.8-0.5-1.1c-0.4-1-0.4-2.1-0.1-3.2c0.3-2.4,1.1-4.7,2.2-6.9c-0.9,1-1.7,2.2-2.2,3.5
	c0.5-2.2,1.7-4.2,3.3-5.8c1.5-1.5,3-3,4.7-4.3c-0.7,0.8-1.6,1.5-2.3,2.3c-0.3,0.4-0.6,0.8-0.9,1.2c0,0.1-0.6,1.5-0.4,1.5
	c0.4-0.6,0.7-1.2,1.2-1.8c0.3-0.4,0.7-0.7,1.1-1c0.7-0.5,1.4-1.1,2-1.7c0.3-0.3,0.6-0.7,0.9-1.1c0-0.1,0.4-0.9,0.5-0.9
	c-0.3,0.9-0.4,1.8-0.7,2.7c-0.3,0.9-0.8,1.8-1.4,2.5c1-0.8,1.8-1.9,2.2-3.1c0.2-0.7,0.4-1.4,0.7-2.1c0.3-0.6,0.7-1.1,1.2-1.5
	c0.9-0.8,1.7-1.8,2.4-2.8c0.7-1.2,1.5-2.4,2.4-3.4c-0.6,0.4-1.1,0.9-1.6,1.4c1.3-2.2,2.5-4.5,3.6-6.8c-0.5,1-0.5,2.3-0.1,3.3
	c0.7,1.1,1.8,1.9,3,2.5c-1-0.6-1.9-1.5-2.5-2.4c-0.4-0.9-0.4-1.9,0.1-2.7c0.8-2.4,2.6-4.3,4.1-6.3c0.7-1,1.4-2,2.1-3
	c0.5-0.9,1.3-1.5,2.3-1.7c1.2,0,2.3,0.2,3.5,0.4c1.2,0.1,2.4,0.1,3.6,0c-1.1,0-2.3-0.1-3.4-0.3c-1-0.2-2.1-0.5-3.1-0.6
	c0.7,0,1.5,0,2.2,0.1c0.8,0.2,1.7,0.3,2.5,0.3c1.6,0,3.3-0.3,4.7-1.1c-0.5,0.1-0.9,0.2-1.4,0.3c0.5-0.1,0.9-0.4,1.3-0.7
	c-1,0.3-2.1,0.4-3.1,0.1c-0.6-0.1-1.3-0.1-1.9-0.1c-0.4,0-1,0.2-1.3,0c0.3,0.4,1.6,0.4,2,0.5c0.8,0.2,1.7,0.3,2.5,0.3
	c-1,0.1-2.1,0.1-3.1,0c-1.1-0.1-2.1-0.5-3.2-0.6l0.6-0.2c-0.6-0.1-1.9,0.2-2.4-0.2c-0.5-0.4,0.2-1.2,0.4-1.7c-0.5,0.5-1.5,1.3-0.9,2
	c-0.8-0.4-0.1-1.5,0.2-2.1c0.4-0.9,1-1.8,1.5-2.7c-0.7,0.7-1.3,1.5-1.9,2.3c1.3-2.6,2.6-5.4,5.1-7c2.5-1.6,5.5-1.6,8.4-1.5
	c3.4,0,6.7,0.3,10,0.9c3.2,0.7,6.3,1.9,9.1,3.7c1.6,1,3.1,2.1,4.4,3.4c0.5,0.5,1,1,1.5,1.4c0.5,0.5,0.3,0.3,0.1,0.8
	c-0.2,0.4-0.3,0.8-0.5,1.2c-0.6-3.3-4.4-4.5-7.3-3.8c-1.6,0.4-2.8,1.3-4.3,2c-1.6,0.7-3.3,1.2-5.1,1.6c2.2-0.2,4.5-0.7,6.5-1.7
	c1.8-1.1,3.8-1.5,5.9-1.3c1.8,0.3,3.9,1.7,4,3.6C67.8,27,67.5,28,67.1,29c-0.4,1.1-0.8,2.2-1.3,3.2c0.5-1.6,0.6-3.2,1.3-4.7
	c-1.3,1.7-1.4,4-2.4,5.9c-1,1.8-3,2.7-3.9,4.5c0.6-0.8,1.4-1.5,2.2-2c-1,1.1-1.9,2.3-2.9,3.4c-0.4,0.4-4.9,4.9-5,4.8
	c0.2,0.3,5.1-4.3,5.5-4.8c1.1-1.2,2.1-2.5,3.2-3.6c1.9-2.1,3.4-4.6,4.1-7.3c0.3-1.2,0.7-2.5,1.2-3.6c0.1-0.2,0.2-0.4,0.3-0.5
	c0.3-0.3,0-0.1,0.4-0.2c0.4-0.1,1,0,1.4-0.4C71.8,25.5,72,27,70.7,28.5L70.7,28.5z"/>
<path class="st0" d="M45.9,52.4c3.2-1.2,5.2-4.1,7.5-6.4C50.4,47.6,48.4,50.3,45.9,52.4C47.5,51.8,47.2,51.3,45.9,52.4z"/>
<path class="st0" d="M39.2,56.5c-3.1,1.5-6.1,3.2-8.9,5.3c-1.3,1-2.4,2.2-3.7,3.2c-1.3,1-2.8,1.3-4,2.2c0.8-0.4,1.7-0.8,2.6-1
	c1-0.4,2-1,2.8-1.7c1.8-1.3,3.5-2.7,5.4-4c1.9-1.3,4-2.4,6-3.6c2-1.1,4.1-2.1,5.6-3.7C43.5,54.8,41.2,55.6,39.2,56.5
	C37.3,57.4,40.2,56.1,39.2,56.5z"/>
<path class="st0" d="M19.9,67.9c-2,1.4-4.3,2.4-6.7,3c-2.5,0.4-5.1,0.5-7.6,0.8c3.3,0.1,6.9,0.6,10-0.6c1.5-0.6,3-1.4,4.3-2.4
	c1.5-1.1,3-2,4.5-3.1C22.9,66.3,21.4,67.1,19.9,67.9C18.5,68.8,21.3,67,19.9,67.9z"/>
<path class="st0" d="M60.4,18.1c-0.1,0.8-1.2,1.6-1.8,2.1c-0.7,0.6-1.4,1.2-2.2,1.6c-1.8,0.8-3.7,1.5-5.7,2.1
	c2.4-0.3,5.1-0.6,7.1-2.1c0.9-0.7,1.7-1.5,2.4-2.4c0.4-0.4,0.5-1,0.4-1.5c-0.2-0.6-0.9-0.6-1.3-1C59.7,17.3,60.5,17.5,60.4,18.1
	C60.4,18.7,60.4,17.9,60.4,18.1z"/>
<path class="st0" d="M27.8,44.5c1,0.5,2.1,1,3.2,1.4c1.1,0.4,2.2,0.8,3.3,1.1c1,0.4,2,0.5,3,0.2c-1.6,0.3-3.2-0.8-4.6-1.4
	c-1.1-0.5-2.2-0.9-3.4-1.4c-0.7-0.3-1.3-0.6-2-0.9c-1.6-0.6-3.2-1.1-4.9-1.3C24.2,42.8,26,43.6,27.8,44.5z"/>
<path class="st0" d="M48.5,46.2c-3.3,0.5-6.7,0.7-10.1,0.6c2.2,0.6,4.5,0.8,6.8,0.6c2.3-0.2,4.4-1.2,6.7-1.3
	C50.8,45.9,49.6,45.9,48.5,46.2L48.5,46.2z"/>
<path class="st0" d="M5,30.3c-0.2-1.2-0.5-2.4-0.9-3.6c-0.3-1.1-0.5-2.2-0.6-3.4c-0.3-2.3-0.3-4.6-0.1-7c-0.8,3.1-0.9,6.3-0.3,9.4
	c0.3,1.5,0.9,3,1.3,4.5c0.2,1.6,0.4,3.3,0.4,4.9C5,33.5,5.1,31.9,5,30.3L5,30.3z"/>
<path class="st0" d="M4.7,39.1c-0.3,1.6-0.3,3.3,0.2,4.9C5.4,42.4,5.3,40.6,4.7,39.1z"/>
<path class="st0" d="M14.3,37.9c-0.1-1.2-0.2-2.4-0.4-3.5c-0.1,2.3,0.1,4.7-0.4,7c-0.6,2.2-1.4,4.2-2.5,6.2c1.1-1.3,2.1-2.8,2.8-4.5
	C14.4,41.4,14.5,39.6,14.3,37.9C14.1,36.7,14.4,39,14.3,37.9z"/>
<path class="st0" d="M11.6,21c-1-1.8-1.8-3.7-2.3-5.7c0.2,1.9,0.7,3.7,1.5,5.5c0.8,2,1.4,4,1.8,6.1c0.8,4,1.1,8.3-0.5,12.1
	C15.1,33.6,14.1,26.3,11.6,21C10.7,19.1,12.5,22.9,11.6,21z"/>
<path class="st0" d="M10.5,6.7c0.5,1.2,0.8,2.5,0.9,3.8c0,1.3,0.3,2.6,1.1,3.6c-0.3-1.3-0.3-2.6-0.2-3.9c0-1.1,0.2-2.5-0.5-3.4
	c0.1,1,0.1,2-0.2,2.9c0.1-0.6,0.1-1.3,0-2c-0.1-0.6-0.3-1.1-0.4-1.6c-0.3-1.2-0.3-2.5-0.1-3.7c0.5-2.5,2-4.6,4.1-5.9
	c-4,1.6-6,6-4.5,10L10.5,6.7z"/>
<path class="st0" d="M11.9,0.7c-0.6,1.2-1.3,2.6-0.7,3.9c-0.2-1.3,0.6-2.5,1.2-3.7c0.5-1.2,1.3-2.3,2.4-3
	C13.4-1.6,12.4-0.6,11.9,0.7C11.6,1.3,12.2,0.1,11.9,0.7z"/>
<path class="st0" d="M11.7,5.6c0.2-2.4,1-4.6,2.4-6.5C12.2,0.6,11.2,3.1,11.7,5.6C11.8,4.4,11.2,3.2,11.7,5.6z"/>
<path class="st0" d="M13.3,9C13,6.1,12.5,3,13.8,0.3C11.7,2.8,12.4,6.2,13.3,9C13.1,7.5,12.8,7.5,13.3,9z"/>
<path class="st0" d="M13.7,4.5c0.1,1.8,0.3,3.7,0.9,5.4C14.4,6.4,13.8,2.6,15-0.8C14.1,0.8,13.7,2.6,13.7,4.5
	C13.7,6.3,13.7,2.7,13.7,4.5z"/>
<path class="st0" d="M15.9,12.4c-0.4-1.1-0.6-2.3-0.7-3.4c-0.1-1,0.1-2.4-0.5-3.3c0.3,1.1-0.1,2.3,0,3.4
	C14.8,10.3,15.2,11.5,15.9,12.4C15.5,11.3,15.2,11.5,15.9,12.4z"/>
<path class="st0" d="M18.4,15.6c-0.4-0.8-0.7-1.6-0.9-2.4c0.2,1.6,0.6,3.2,1.1,4.8c0.4,1.7,0.7,3.4,0.9,5.1
	C19.7,20.5,19.4,17.9,18.4,15.6z"/>
<path class="st0" d="M19,11.9c0.4,2,0.7,4,0.9,6c0.1,1.9-0.1,3.9,0.7,5.7c-0.4-1.9,0-3.9-0.2-5.9C20.2,15.7,19.7,13.8,19,11.9
	C19.4,13.9,19.7,13.8,19,11.9z"/>
<path class="st0" d="M21,13.5c0.3,1.5,0.4,3,0.4,4.6c0,1.4,0.3,2.8,1,4c-0.2-0.8-0.4-1.6-0.5-2.4c0-0.7,0-1.4,0-2.1
	C21.9,16.2,21.6,14.8,21,13.5C21.3,15,21.7,14.9,21,13.5z"/>
<path class="st0" d="M22.1,13c-0.1,1.4,0.1,2.8,0.6,4.2C23,15.7,22.8,14.3,22.1,13z"/>
<path class="st0" d="M16.7,0.3c-1.6,2.1-0.4,5.6,0.5,7.8c-0.2-1.3-0.4-2.7-0.6-4C16.3,2.8,16.3,1.5,16.7,0.3
	C16.3,0.9,16.2,1.6,16.7,0.3z"/>
<path class="st0" d="M18,6.5c-0.2-1-0.5-1.9-0.8-2.9c-0.2,2,0.6,3.9,0.6,5.8C18.2,8.5,18.2,7.5,18,6.5C17.8,5.5,18.2,7.4,18,6.5z"/>
<path class="st0" d="M18.8,5.8c-0.1-0.3-0.3-0.6-0.4-0.9c0,1.3,0.1,2.6,0.4,3.9C19.1,7.8,19.1,6.7,18.8,5.8
	C18.6,5.4,18.9,6.1,18.8,5.8z"/>
<path class="st0" d="M11.1,14.6c0.4,1,0.9,1.9,1.5,2.9c-0.9-1.8-1.4-3.8-1.6-5.8c-0.2-2.2-0.7-4.3-1.5-6.3c0.3,1.6,0.7,3.2,0.9,4.8
	C10.4,11.7,10.6,13.2,11.1,14.6L11.1,14.6z"/>
<path class="st0" d="M13.5,18.6c0.6,0.8,1.1,1.7,1.4,2.7c0-1.1-0.3-2.1-1-3c-0.3-0.5-0.6-1-0.8-1.5c-0.1-0.5-0.3-0.9-0.5-1.3
	c0.1,0.5,0.2,1.1,0.3,1.6C13,17.6,13.3,18.1,13.5,18.6L13.5,18.6z"/>
<path class="st0" d="M14.3,26.6c0.4,3.3,0.6,6.2,0.7,9.6C15.6,33,15.3,29.7,14.3,26.6z"/>
<path class="st0" d="M15,37.9c1.3-2.5,1.6-5.3,0.7-8C15.9,32.6,15.7,35.3,15,37.9C16.3,35.5,15.4,36.6,15,37.9z"/>
<path class="st0" d="M14.7,39.4c1.7-2.1,2.5-4.7,2-7.4C16.5,34.6,15.8,37.1,14.7,39.4C16.4,37.4,15.3,38.2,14.7,39.4z"/>
<path class="st0" d="M10.2,20.3c-0.7-1.8-2-3.7-1.7-5.7c-0.6,1.9,0.4,4,1.2,5.8c0.7,1.9,1.1,4,1.1,6.1
	C11.1,24.3,10.9,22.3,10.2,20.3z"/>
<path class="st0" d="M10,21.3c-0.7-1.2-1.3-2.5-1.6-3.9c-0.4-1.3-0.4-2.8,0-4.1c-0.9,1.1-0.8,3-0.5,4.2C8.3,19,9,20.3,10,21.3
	C9.3,20.1,9,20.3,10,21.3z"/>
<path class="st0" d="M5.3,10.8c0.1-0.6,0.3-1.3,0.5-1.9c-0.7,1-1.2,2.2-1.5,3.4c-0.4,1.3-0.7,2.6-0.9,4C4.2,14.5,4.9,12.7,5.3,10.8
	C5.5,10.1,5.2,11.4,5.3,10.8z"/>
<path class="st0" d="M4.3,21c0.2,0.9,0.5,1.7,0.8,2.5c-0.4-1.6-0.6-3.2-0.4-4.9c0.2-1.8,0.5-3.5,0.7-5.3C4.8,15.7,3.9,18.5,4.3,21
	L4.3,21z"/>
<path class="st0" d="M9,6.8c0-0.4,0-0.8-0.1-1.2C8.6,6.3,8.6,7.1,8.7,7.8C8.9,8.6,9.2,9.3,9.6,10C9.5,8.9,9.1,7.9,9,6.8z"/>
<path class="st0" d="M5.8,13.2C6.6,11.1,7.3,9,7.7,6.8C6.6,8.8,6,11,5.8,13.2z"/>
<path class="st0" d="M11,45.1c-0.7,1-1.4,2-2.1,2.9c-0.4,0.5-1.4,2.2-2.3,1.5c1.2,1.3,4.3-3.3,4.8-4.1c1.3-1.9,1.9-4.2,1.7-6.5
	C12.9,41.1,12.2,43.2,11,45.1C10.4,46,12.1,43.3,11,45.1z"/>
<path class="st0" d="M7.4,48.2c3-1.7,4.9-4.7,5.1-8.1C11.7,43.2,9.9,46,7.4,48.2C10.4,46.5,8.7,47.1,7.4,48.2z"/>
<path class="st0" d="M11.2,41.1c-1.1,2-2.3,3.9-3.6,5.8C9.4,45.3,10.9,43.4,11.2,41.1C10.2,43.2,11.1,42.2,11.2,41.1z"/>
<path class="st0" d="M5.3,45.7c0.2-0.7,0.5-1.5,0.7-2.2c0.2-0.7,0.3-1.4,0.3-2.1c-0.1-1.4,0-2.9,0.3-4.3c-0.8,1.6-0.7,3.5-0.8,5.2
	c-0.1,0.8-0.3,1.6-0.5,2.4c-0.2,0.7-0.3,1.6,0.4,2.1C5.4,46.4,5.3,46,5.3,45.7C5.4,45.3,5.3,46.1,5.3,45.7z"/>
<path class="st0" d="M6.8,43.7c0-0.4,0-0.7-0.1-1C6.5,43.3,6.3,44,6,44.7c-0.2,0.5-0.4,1.3,0,1.8C5.9,45.4,6.8,44.6,6.8,43.7
	C6.8,43.3,6.8,44,6.8,43.7z"/>
<path class="st0" d="M12,27c0.2,3.7,0.1,7.4-0.3,11C12.8,34.4,12.9,30.6,12,27z"/>
<path class="st0" d="M11.1,27.8c0.3,1.3,0.2,2.7,0.3,4.1C12,30.6,11.9,29,11.1,27.8C11.2,28.5,11.5,28.4,11.1,27.8z"/>
<path class="st0" d="M5.5,22.2c-0.2-2.6,0.3-5.1,0.6-7.6C5.2,17,4.6,19.7,5.5,22.2C5.3,19.5,5,20.9,5.5,22.2z"/>
<path class="st0" d="M4.6,26.3c1,2.9,1.2,5.9,0.8,8.9C6.5,32.3,6.2,29,4.6,26.3C5.1,27.8,6.3,29,4.6,26.3z"/>
<path class="st0" d="M10.9,38.7c-0.6,2-1.3,4-2.2,5.9C10.2,43.1,11,40.9,10.9,38.7z"/>
<path class="st0" d="M9.7,38.5c-0.5,1.7-1.1,3.4-1.9,5.1C9,42.2,10,40.4,9.7,38.5C9.5,39.4,9.9,39.5,9.7,38.5z"/>
<path class="st0" d="M6.8,37.9c-0.1,1.1,0.3,2.4-0.2,3.4c0.7-0.8,0.6-2.4,0.7-3.5c0.1-1.1,0.5-2.1,1-3.1C7.5,35.6,6.9,36.7,6.8,37.9
	C6.8,38.5,7,36.8,6.8,37.9z"/>
<path class="st0" d="M8.3,39.7c0.1-0.8,0-1.7-0.2-2.5C8,38.8,7.7,40.5,7.3,42C7.9,41.4,8.3,40.6,8.3,39.7z"/>
<path class="st0" d="M18-2.1c1.8,1.8,3.5,3.6,5.2,5.5c1.4,1.6,3.6,3.6,3.7,5.9c0-1.3-0.4-2.7-1.3-3.7c-0.8-1.2-1.7-2.3-2.7-3.4
	c-1-1.1-2-2.1-3.1-3.1c-1-0.9-2.1-2.2-3.5-2.4C16.9-3.1,17.5-2.7,18-2.1L18-2.1z"/>
<path class="st0" d="M26.2,8.4c-0.4-2.6-2.9-4.9-4.9-6.4c0.9,1.1,1.8,2.2,2.7,3.2C24.9,6.2,25.6,7.3,26.2,8.4
	C26,7,25.7,7.1,26.2,8.4z"/>
<path class="st0" d="M16.9-2.6c1.3,1.1,2.1,2.6,3.8,3.4C19.6-0.4,18.5-2,16.9-2.6C17.5-2,17.7-2.3,16.9-2.6z"/>
<path class="st0" d="M26.9,13c-0.5,2-1.1,3.9-1.9,5.8C26.4,17.2,27,15.1,26.9,13z"/>
<path class="st0" d="M37.2,15.6c1.6-0.4,3.3-0.7,5-0.8c-1.8-0.3-3.6-0.1-5.3,0.3c-1.6,0.6-3,1.7-3.8,3.2
	C34.2,17.1,35.6,16.1,37.2,15.6z"/>
<path class="st0" d="M52.8,22.2c1.3,0.1,2.7-0.2,3.8-0.9c1.2-0.8,2.2-1.8,2.9-3c-1,0.9-2.1,1.8-3.2,2.5
	C55.3,21.5,54.1,21.9,52.8,22.2C53.5,22.1,53.5,22,52.8,22.2z"/>
<path class="st0" d="M56.8,19.9c-0.9,0.3-1.8,0.8-2.6,1.3C55.3,21.3,56.3,20.8,56.8,19.9z"/>
<path class="st0" d="M48,15.4c2.1,0.3,4.1,0.4,6.1,0.7c0.9,0.1,1.8,0.3,2.7,0.7c0.9,0.4,1,0.9,0.4,1.7c0.8-0.7,0.8-1.5-0.2-2
	c0.7,0.2,1.8,0.3,1.8,1.2s-1,1.6-1.7,2c1-0.4,2.9-1.6,1.7-2.9c-0.6-0.5-1.4-0.8-2.1-0.9c-0.9-0.2-1.7-0.5-2.6-0.6
	c-3.3-0.7-6.7-0.9-10-0.6c2.5,0,5.1,0.3,7.6,0.7C50.4,15.4,49.2,15.4,48,15.4C49.9,15.8,49.2,15.4,48,15.4z"/>
<path class="st0" d="M38.4,16.3c-2.2,0.4-4.8,1.4-5.3,3.8C34.2,18.1,36.4,17.3,38.4,16.3C37.2,16.5,37.3,16.8,38.4,16.3z"/>
<path class="st0" d="M44.3,25.2c-0.6,0.2-1.2,0.4-1.8,0.4c1.1,0.3,2.4-0.1,3.5-0.4s2.5-0.5,3.8-0.8c-1.1,0-2.1-0.2-3.1-0.3
	c-0.9-0.2-1.8,0.1-2.5,0.6c0.8-0.2,1.6-0.2,2.5-0.1C45.9,24.7,45.1,24.9,44.3,25.2C43.7,25.5,44.9,25,44.3,25.2z"/>
<path class="st0" d="M32.6,21.6c1.1-1.6,2.6-2.9,4.3-3.9C34.8,18.2,33.2,19.7,32.6,21.6C33.2,20.8,33.1,19.7,32.6,21.6z"/>
<path class="st0" d="M34.5,20.1c-0.9,0.2-3.4,2.8-1.9,3.6c-0.4-0.6,0.2-1.2,0.5-1.7C33.5,21.4,34,20.7,34.5,20.1
	C33.7,20.3,33.9,20.6,34.5,20.1z"/>
<path class="st0" d="M64.8,21.5c0.6,0.1,1.1,0.4,1.5,0.8c-0.5-1-1.9-1.5-3-1.6c-1.2-0.2-2.3,0.1-3.4,0.6
	C61.5,21,63.2,21.1,64.8,21.5L64.8,21.5z"/>
<path class="st0" d="M62,23c2.1-0.7,3.6,0.8,5,2.3c-1.1-1.7-2.5-3.3-4.7-2.9c-1,0.3-2,0.7-2.9,1.2c-1,0.4-2.1,0.8-3.2,1
	c1-0.1,2-0.3,3-0.5C60.2,23.7,61.1,23.3,62,23C63,22.7,61.1,23.2,62,23z"/>
<path class="st0" d="M63.9,23.1c-1.7-0.5-2.8,0.5-4,1.7c0.8-0.5,1.7-0.9,2.6-1.3c0.9-0.2,1.9-0.1,2.7,0.4
	C64.8,23.5,64.4,23.2,63.9,23.1L63.9,23.1z"/>
<path class="st0" d="M30.5,27.4c1.7-0.4,3.7,0.2,5.5,0.3c1.9,0.1,3.8-0.2,5.6-1c-2.5,0.6-5.1,0.7-7.6,0.3c-1.2-0.2-2.5-0.2-3.7,0.1
	c-1.1,0.6-1.9,1.6-2.3,2.7C28.5,28.9,29.3,27.7,30.5,27.4L30.5,27.4z"/>
<path class="st0" d="M47.2,26.2c-0.6,0-1.1,0.2-1.6,0.5c1.1-0.3,2.3,0.1,3.4,0c1.1-0.1,2.2-0.4,3.1-1C50.4,26,48.8,26.2,47.2,26.2z"
	/>
<path class="st0" d="M39.4,28.5c-2.8,0.2-5.6,0.2-8.3,0C33.8,29.4,36.7,29.4,39.4,28.5z"/>
<path class="st0" d="M33.7,23.7c1.2,0.2,2.4,0.3,3.5,0.3c1.1,0,2.2-0.1,3.3,0C38.4,23.2,35.9,23.4,33.7,23.7
	C34.9,23.9,34.9,23.5,33.7,23.7z"/>
<path class="st0" d="M35.2,22.2c2.5,0.7,5.1,0.8,7.6,0.2C40.2,22.3,37.8,22.3,35.2,22.2z"/>
<path class="st0" d="M35.5,21.3c-0.2,0.4,1.8,0.5,2,0.5c0.9,0,1.9,0,2.8-0.2c-0.9-0.2-1.8-0.3-2.8-0.3
	C37.3,21.3,35.4,21.5,35.5,21.3C35.4,21.4,35.5,21.4,35.5,21.3z"/>
<path class="st0" d="M36,20.8c1.1-0.3,2.2-0.1,3.2-0.6C38.3,20,36.7,19.9,36,20.8C36.6,20.6,36.2,20.5,36,20.8z"/>
<path class="st0" d="M44.7,16.6c-2.4-0.7-5.2-0.7-7.2,1C39.7,16.5,42.2,16.6,44.7,16.6C43.4,16.3,43.4,16.6,44.7,16.6z"/>
<path class="st0" d="M45.7,17.3c-0.9-0.2-1.7-0.3-2.6-0.2c-0.8-0.1-1.7-0.1-2.5,0.1c1,0,1.8,0.5,2.8,0.5
	C44.1,17.6,44.9,17.4,45.7,17.3C44.8,17,44.8,17.3,45.7,17.3z"/>
<path class="st0" d="M51.4,17.3c1.8,0,3.6,0.3,5.3,0.8C55.2,16.9,53.2,16.6,51.4,17.3C52.3,17.3,53.2,16.6,51.4,17.3z"/>
<path class="st0" d="M41.9,26.4c-1.5-0.2-3,0-4.3,0.8C39,27,40.5,26.8,41.9,26.4C41.1,26.2,41.1,26.5,41.9,26.4z"/>
<path class="st0" d="M42,26.6c1.4,0,3.4,0.2,4.5-0.7C45.8,26,45,26.1,44.2,26C43.4,26.1,42.7,26.3,42,26.6
	C42.8,26.6,42.7,26.2,42,26.6z"/>
<path class="st0" d="M30.6,44c-1.5-1-3.2-1.2-4.8-2c-1.2-0.6-3.2-1.7-3.5-3.1c-0.1,1.6,2,3,3.2,3.6C27.1,43.3,29,43.3,30.6,44
	C29.1,43,29,43.3,30.6,44z"/>
<path class="st0" d="M23,38.9c0.4,1,1.1,1.8,2,2.3c1,0.4,1.9,0.6,2.9,0.8c-1.2-0.8-2.5-0.9-3.5-1.9c-0.7-0.7-2.1-2.1-1.3-3.2
	C22.6,37.4,22.6,38.2,23,38.9C23.3,39.5,22.8,38.5,23,38.9z"/>
<path class="st0" d="M24.8,39.6c1,1,2.3,1.5,3.7,1.6c-1.3-0.4-2.5-1.2-3.5-2.2c-0.9-0.8-1.4-1.9-1.4-3.1
	C23.2,37.3,23.7,38.8,24.8,39.6C25.8,40.5,24.3,39.2,24.8,39.6z"/>
<path class="st0" d="M26.9,39.2c-1.3-0.8-2.2-2.1-2.7-3.5C24,37.4,25.2,39,26.9,39.2C26.2,38.8,25.2,39,26.9,39.2z"/>
<path class="st0" d="M38.9,30.1c-3-0.1-6.1-0.6-9-1.2C32.7,30.2,35.9,30.6,38.9,30.1z"/>
<path class="st0" d="M31.8,29.9c-0.6,0-1.2-0.1-1.7-0.2c1.1,0.5,2.2,0.8,3.3,1.1c1.1,0.5,2.3,0.7,3.4,0.6
	C35.1,31,33.6,30.1,31.8,29.9C31.3,29.9,32.4,30,31.8,29.9z"/>
<path class="st0" d="M29,30.3c0.6,0,1.1,0.1,1.6,0.5c0.6,0.3,1.2,0.6,1.8,0.9c1.1,0.5,2.4,0.8,3.6,0.7c-1.2-0.2-2.4-0.6-3.5-1.2
	C31.6,30.8,29.9,29.8,29,30.3C29.3,30.2,29.2,30.1,29,30.3z"/>
<path class="st0" d="M34.4,33.2c-1.4-0.6-2.8-1.2-4.3-1.7C31.3,32.6,32.8,33.2,34.4,33.2C32.9,32.4,33.6,33.1,34.4,33.2z"/>
<path class="st0" d="M64,24.4c-1.2-0.2-2.4,0.1-3.2,1c0.7-0.3,1.4-0.4,2.1-0.5c0.7-0.2,1.4-0.2,2.1,0.1C64.8,24.7,64.4,24.5,64,24.4
	z"/>
<path class="st0" d="M60.2,36.5c1.2-0.8,2.3-1.8,3.1-3c0.4-0.5,0.8-1.1,1-1.7c0.1-0.8,0.4-1.6,0.8-2.3c-0.5,0.5-0.8,1-1,1.7
	c-0.3,0.7-0.6,1.3-1.1,1.9C62.2,34.3,61.2,35.4,60.2,36.5C61.5,35.8,61.3,35.5,60.2,36.5z"/>
<path class="st0" d="M50.3,44.4c-4,1-8.1,1.3-12.2,0.8c2.8,0.7,5.6,0.8,8.4,0.4c2.6-0.4,5.5-1.1,7.5-2.9
	C52.9,43.6,51.6,44.1,50.3,44.4C49,44.8,51.6,44.1,50.3,44.4z"/>
<path class="st0" d="M58.4,40.1c-1.3,0.7-2.3,1.9-3.5,2.7c-1.2,0.8-2.5,1.6-3.7,2.4c1.4-0.5,2.7-1.2,4-2
	C56.5,42.4,57.2,41,58.4,40.1C57.7,40.4,57.8,40.6,58.4,40.1z"/>
<path class="st0" d="M54.8,41.6c1.8-0.6,3.3-2.3,4.5-3.8C57.6,38.9,56.4,40.4,54.8,41.6C55.8,41.3,55.6,41,54.8,41.6z"/>
<path class="st0" d="M51.8,43c-3.6,0.9-7.3,1.5-11.1,1.8C44.5,45.2,48.3,44.5,51.8,43z"/>
<path class="st0" d="M46.4,43.1c1.9,0.1,4.1,0.1,5.7-1C50.3,42.6,48.3,42.6,46.4,43.1C47.4,43.2,47.4,42.8,46.4,43.1z"/>
<path class="st0" d="M56.4,37.9c-2,0.4-4,1.1-5.9,2c2.1-0.7,4.2-1,6.3-1.6s3.4-2.2,4.6-3.8C60,35.9,58.4,37.4,56.4,37.9
	C55.5,38.1,58.4,37.4,56.4,37.9z"/>
<path class="st0" d="M58.6,36.6c1.2-0.7,2.3-1.7,3-3c-1.8,2-4.4,3.2-6.9,4.3C56.1,37.7,57.4,37.2,58.6,36.6z"/>
<path class="st0" d="M61.9,32.1c-1.2,1.3-2.6,2.5-4,3.5C59.8,35.2,61.2,33.9,61.9,32.1z"/>
<path class="st0" d="M59.8,33.3c1.2-0.3,2.2-1.3,2.6-2.4C61.4,31.6,60.6,32.4,59.8,33.3z"/>
<path class="st0" d="M18.6,25.1c-0.2,0.9-0.2,1.8,0.1,2.6c0.1,0.7,0.3,1.3,0.7,1.9c0.4,0.5,0.8,0.1,0.9-0.4c0.2-0.9,0.4-1.9,0.6-2.8
	c-0.2,0.2-0.3,0.4-0.4,0.6c0-0.3,0-0.6,0-0.8c-0.3,0.7-0.6,1.5-0.8,2.2c-0.2-0.6-0.4-1.1-0.7-1.7c0,0.4,0.1,0.7,0.1,1.1
	C18.9,27,18.7,26,18.6,25.1C18.3,26.5,18.6,26.1,18.6,25.1z"/>
<path class="st0" d="M20.1,50c-0.3-2-0.3-4,0-5.9c-1.2,3.9-0.6,8.2,1.6,11.6C20.9,53.8,20.3,51.9,20.1,50C19.8,48,20.3,51.9,20.1,50
	z"/>
<path class="st0" d="M19,45.5c-0.9,3.3-0.5,6.9,1.3,9.9C19.2,52.2,18.7,48.8,19,45.5C18,48.9,18.9,47.3,19,45.5z"/>
<path class="st0" d="M17.5,51c-0.1-1.5,0.1-3,0.6-4.4c-0.8,1.3-1.2,2.8-1.1,4.3c0,1.5,0.1,3,0.4,4.5C17.4,54,17.4,52.5,17.5,51
	C17.5,49.5,17.4,52.4,17.5,51z"/>
<path class="st0" d="M16,55.7c0.1-2.6,0.3-5.2,0.8-7.8C15.7,50.3,15.4,53.1,16,55.7z"/>
<path class="st0" d="M15.3,49.4c-1.3,2.8-1.5,6-0.6,9C14.5,55.4,14.7,52.3,15.3,49.4z"/>
<path class="st0" d="M13.4,55c-0.1-1.3,0.1-2.7,0.5-4c-0.8,1.2-1.2,2.6-1,4c0,1.3-0.2,2.7-0.4,4C13.1,57.8,13.4,56.4,13.4,55
	C13.5,53.7,13.4,56.4,13.4,55z"/>
<path class="st0" d="M20.7,49.7c0.3,1.6,1.2,3.1,2.5,4.2c-2.1-2.5-2.4-5.9-2.6-9.1C20.3,46.4,20.3,48.1,20.7,49.7L20.7,49.7z"/>
<path class="st0" d="M22.8,48.5c-0.5-1-0.8-2.1-1.1-3.2c-0.2,2.4,0.9,4.7,2.8,6.1C23.9,50.5,23.3,49.6,22.8,48.5
	C22.4,47.5,23.3,49.5,22.8,48.5z"/>
<path class="st0" d="M27.1,47.8c-1.9-0.8-3.7-2-5.3-3.3c2.8,3.3,6.9,5.1,11.2,5C31.1,49.2,29.1,48.7,27.1,47.8L27.1,47.8z"/>
<path class="st0" d="M24.8,44.4c0.9,0.5,1.9,0.8,2.9,1c-1.4-0.5-2.5-1.5-3.9-2c-0.9-0.3-2.9-1.2-3.7-0.5c0.7-0.3,1.5,0.2,2.1,0.4
	C23,43.6,23.9,44,24.8,44.4L24.8,44.4z"/>
<path class="st0" d="M31.1,46.6c1.6,1.1,3.5,1.4,5.4,1C34.6,47.3,33,47,31.1,46.6z"/>
<path class="st0" d="M31.5,44.2c2.1,1.2,4.4,1.7,6.8,1.4c-1.3-0.3-2.6-0.5-3.9-0.8c-0.6-0.1-1.2-0.3-1.8-0.4
	c-0.3-0.1-1.2-0.6-1.5-0.4C31.2,44,31.3,44.1,31.5,44.2C31.6,44.3,31.3,44.1,31.5,44.2z"/>
<path class="st0" d="M39.6,48.4c3.4,0.6,7-0.2,10.3-1.1C46.4,47.5,43,48.3,39.6,48.4C41.3,48.7,41.3,48.4,39.6,48.4z"/>
<path class="st0" d="M39.4,50.3c3,0.1,6.1-0.2,8.6-1.9C45.2,49.4,42.2,49.7,39.4,50.3C40.9,50.4,42.4,49.7,39.4,50.3z"/>
<path class="st0" d="M41.7,51.7c2,0.2,3.9-0.6,5.2-2.1C45.3,50.5,43.5,51.2,41.7,51.7z"/>
<path class="st0" d="M35.4,57.5c1.6-1.3,3.4-2.3,5.3-3.2c1.9-1,3.6-2.2,5.3-3.5c-1.9,1.1-3.9,2.1-5.9,3.2
	C38.3,54.9,36.7,56.1,35.4,57.5C37,56.1,36.8,55.8,35.4,57.5z"/>
<path class="st0" d="M8.8,55.9C6.1,58.8,5.1,63,6.4,66.8C5.8,63,6.7,59.1,8.8,55.9C6.1,58.8,7.7,57.6,8.8,55.9z"/>
<path class="st0" d="M5.2,62.1c0,1.2,0.2,2.4,0.6,3.5c-0.1-2.3-0.2-4.6,0.6-6.8C5.6,59.7,5.2,60.9,5.2,62.1
	C5.1,63.3,5.2,60.9,5.2,62.1z"/>
<path class="st0" d="M4.9,60.7c-1.5,1.8-0.8,4.2,0.2,6.1C4.8,64.8,4.2,62.7,4.9,60.7C4.2,61.5,4.5,61.7,4.9,60.7z"/>
<path class="st0" d="M8.2,61.2c0.2-1.6,0.4-2.9,0.7-4.4C8,58,7.7,59.7,8.2,61.2z"/>
<path class="st0" d="M35.8,51.8c1.4,0.2,2.9,0.1,4.2-0.3c-2.8,0-5.6-0.3-8.4-0.7C33,51.3,34.4,51.7,35.8,51.8L35.8,51.8z"/>
<path class="st0" d="M37.9,52.7c0.6,0,1.2-0.1,1.7-0.5c-1,0.4-2.2,0-3.3-0.1c-1.1-0.1-2.2-0.1-3.4,0C34.5,52.6,36.2,52.7,37.9,52.7
	L37.9,52.7z"/>
<path class="st0" d="M38.6,53.4l-5.9,0.3C34.7,54.3,36.8,54.2,38.6,53.4z"/>
<path class="st0" d="M36.6,54.8c-1.2,0.1-2.4,0.3-3.5,0.6C34.2,55.8,35.5,55.6,36.6,54.8z"/>
<path class="st0" d="M29.4,59.6c-1.3,0.5-2.6,0.8-3.9,1c2.8,0.2,5.6-0.8,7.6-2.7C31.9,58.5,30.6,59.1,29.4,59.6L29.4,59.6z"/>
<path class="st0" d="M31.1,59.8c-2.2,1.6-5,2.1-7.6,2.5C26.1,62.6,29.2,62,31.1,59.8C29.9,60.7,30.1,60.9,31.1,59.8z"/>
<path class="st0" d="M27.1,62.9c-1.6,0.2-2.8,0.3-4.3,0.5C24.2,63.9,25.8,63.7,27.1,62.9z"/>
<path class="st0" d="M10.6,68.9c2.3,0.5,4.9,0.7,7-0.7C15.3,68.9,12.9,68.8,10.6,68.9C11.8,69.2,13.1,68.7,10.6,68.9z"/>
<path class="st0" d="M12.6,69.9c-1.3-0.1-2.6-0.2-3.9-0.5c2.4,1.1,5.5,1.6,7.8-0.1C15.2,69.8,13.9,70,12.6,69.9
	C11.3,69.9,13.8,70,12.6,69.9z"/>
<path class="st0" d="M11,59c0.5-1.4,0.8-2.9,0.9-4.3C11.2,56,10.8,57.5,11,59z"/>
<path class="st0" d="M10.1,53.8c0.8-0.4,1.4-1.2,1.7-2.1c-0.9,1.4-3.4,1.9-3.4,3.9C8.8,54.9,9.4,54.2,10.1,53.8
	C10.5,53.5,9.4,54.3,10.1,53.8z"/>
<path class="st0" d="M20.5,41c0.2,0.5,0.7,0.9,1.3,0.9c-0.7-0.6-1.1-1.5-1-2.5C20.4,39.9,20.2,40.5,20.5,41
	C20.7,41.6,20.3,40.5,20.5,41z"/>
<path class="st0" d="M36.3,41.4c2.6,2.1,6.1,1.8,9.2,1.2C42.4,42.6,39.1,42.9,36.3,41.4C37.6,42.5,37.8,42.2,36.3,41.4z"/>
<path class="st0" d="M50.8,41.3c-4.1-0.2-7.7-0.5-11.8-1.1C42.8,41.4,46.9,41.8,50.8,41.3z"/>
<path class="st0" d="M48.5,40.7c1.5,0.2,3.1,0,4.5-0.6c-1.5,0.3-3.1,0.3-4.6,0c-1.4-0.3-2.8-0.4-4.2-0.3
	C45.6,40,47.1,40.3,48.5,40.7z"/>
<path class="st0" d="M52.1,28.2c3.6-0.5,7.2-1.3,10.9-1.4C59.3,26.2,55.6,27,52.1,28.2C55.8,27.7,53.9,27.6,52.1,28.2z"/>
<path class="st0" d="M57.2,28.7c2.1-0.3,4.1-0.7,6.1-1.2C61.2,27.3,59.1,27.7,57.2,28.7z"/>
<path class="st0" d="M63.9,28.4c-1.5,0-3,0.2-4.5,0.6C61,29.2,62.6,29,63.9,28.4z"/>
<path class="st0" d="M34.7,36.5c-2.1-1.4-4.4-2.7-6.8-3.7C30,34.5,32.3,35.7,34.7,36.5z"/>
<path class="st0" d="M40,37.5c-3.5-0.2-7.3-0.8-10.2-2.9C32.4,37.3,36.4,38,40,37.5C38.2,37.4,38.2,37.8,40,37.5z"/>
<path class="st0" d="M36.8,38.7c-0.5,0-1.1-0.2-1.5-0.4c0.8,0.7,1.9,1.2,3,1.2c1.1,0.1,2.2,0,3.3-0.3C40,39,38.4,38.9,36.8,38.7
	L36.8,38.7z"/>
<path class="st0" d="M25.7,34.1c-0.4,1.8,0.7,3.5,2.4,4C26.9,37.1,26,35.6,25.7,34.1C25.3,35.8,25.8,34.9,25.7,34.1z"/>
<path class="st0" d="M31.9,39.7c-1.7-1.3-3.4-2.6-5.2-3.8C28,37.7,29.8,39,31.9,39.7z"/>
<path class="st0" d="M43.7,28.5c-0.9,0.1-1.8,0.3-2.7,0.4c2,0,4,0.1,5.9,0c1.7,0,3.3-0.4,4.8-1.3C49.1,28.6,46.4,28.2,43.7,28.5
	C42.8,28.6,44.6,28.4,43.7,28.5z"/>
<path class="st0" d="M52.5,27.1c2.5-0.4,4.5-0.8,7-1.1C57.1,25.6,54.7,26,52.5,27.1z"/>
<path class="st0" d="M29.9,10.4c-0.1-1.3-0.3-2.6-0.8-3.8c0.2,1.2,0.4,2.5,0.5,3.7c0,1.3-0.2,2.5-0.5,3.7
	C29.6,12.9,29.9,11.7,29.9,10.4C29.8,9.1,29.9,11,29.9,10.4z"/>
<path class="st0" d="M29.5,14.2c-0.4,1.2-1.3,2.3-1.4,3.6c0.3-1.3,1.2-2.4,1.7-3.6c0.4-1.2,0.6-2.4,0.6-3.7
	C30.3,11.8,30,13,29.5,14.2C29.3,14.8,29.9,13,29.5,14.2z"/>
<path class="st0" d="M27,19.1c-0.6,1.2-1,2.5-1.7,3.6s-1.6,2.2-1.8,3.5c0.4-1.3,1.4-2.2,2.1-3.4C26.1,21.8,26.6,20.5,27,19.1
	C26.7,19.8,26.6,20.5,27,19.1z"/>
<path class="st0" d="M19.3,35.6c1.1-2.7,2-5,3.2-7.7C21.1,30.3,20,32.9,19.3,35.6z"/>
<path class="st0" d="M13.3,47.7c-0.1,0.2,0.1-0.5,0.2-0.6c0.3-0.5,0.5-1,0.7-1.5c0.5-1,1-2.1,1.5-3.2c1-2,2-4.1,3.1-6.1
	c-1.2,2-2.4,4.1-3.4,6.3c-0.5,1-1,2-1.4,3c-0.3,0.6-1.2,1.9-0.8,2.6c0,0,0.8-1,0.9-1.1c0.5-0.5,1-1,1.5-1.5
	C14.7,46.1,13.9,46.9,13.3,47.7L13.3,47.7z"/>
<path class="st0" d="M17.4,42.7c1.1-1.8,2.1-3.7,2.9-5.7C19.1,38.8,18.2,40.7,17.4,42.7z"/>
<path class="st0" d="M27.4,24.6c-0.8,1.5-2.1,2.8-2.9,4.4c1-1.4,2.3-2.7,3.1-4.2c0.8-1.6,1.7-3.1,2.6-4.6
	C29.1,21.5,28.1,23,27.4,24.6z"/>
<path class="st0" d="M41.8,9.2c1.1-0.7,2.1-2.2,3.6-2c-1.5-0.4-2.6,1-3.7,1.7c-1.2,0.8-2.6,1.1-4,0.9C39,10.2,40.5,10,41.8,9.2
	C42.4,8.9,40.5,10,41.8,9.2z"/>
<path class="st0" d="M51.8,13.2c-3.6-1-7.4-1.2-11.2-0.9C44.3,12.3,48.1,12.6,51.8,13.2z"/>
<path class="st0" d="M46.5,7.7c2.7,1.1,5.4,2.1,8.2,2.9C52,9.5,49.3,8.5,46.5,7.7z"/>
<path class="st0" d="M70.8,20.5c0.1,0.1,0.2,0.2,0.2,0.3c-0.2,0.1-0.3,0.3-0.3,0.5c-0.2-0.1-0.5,0-0.6,0.2c-0.2,0.4,0.1,0.2,0.2,0.4
	c0.1,0.2-0.1,0.5-0.5,0.5c-0.4-0.1-0.5-0.4-0.8-0.7c-1.1-1.2-2.4-2.2-3.7-3c-2.7-2-5.7-3.5-8.9-4.5c3.2,1.2,6.3,2.8,9,4.9
	c0.7,0.5,1.4,1,2.1,1.5c0.7,0.5,1.1,1.2,1.7,1.7c0.3,0.3,1.5,0.5,1.2-0.3c-0.1-0.2-0.3-0.3-0.3-0.4c0.1-0.2,0.4-0.2,0.6-0.1
	c0-0.3,0.2-0.5,0.4-0.6c-0.4-0.5-0.9-0.9-1.4-1.2C70.1,19.8,70.5,20.1,70.8,20.5L70.8,20.5z"/>
<path class="st0" d="M60.8,12.9c3.1,1.7,6.1,3.7,8.8,5.9C67.1,16.3,64.1,14.3,60.8,12.9z"/>
<path class="st0" d="M60.7,13.5c-1.1-0.9-2.4-1.5-3.8-1.8C58.1,12.3,59.4,12.9,60.7,13.5z"/>
<path class="st0" d="M43.1,8.7c-0.5,0.6-1.2,1-1.9,1.4c1.7-0.2,2.4-2.1,4.1-2.4C44.5,7.7,43.7,8.1,43.1,8.7
	C42.5,9.2,43.7,8.2,43.1,8.7z"/>
<path class="st0" d="M43.5,9.5c0.9-1.2,2.7-0.9,4-0.7C46.3,8.3,44.2,7.9,43.5,9.5C44,8.8,43.8,8.7,43.5,9.5z"/>
<path class="st0" d="M48.2,8.9c0.9,0.5,1.9,0.8,2.9,1.1C50.3,9.4,49.3,9.1,48.2,8.9z"/>
<path class="st0" d="M32.5,3c-0.2,0.7-0.7,1.3-0.6,2.1c0,0.7,0.4,1.3,1,1.7c-0.7-0.6-0.9-1.5-0.7-2.4c0.2-0.6,1.1-2.2-0.2-2.5
	C32.5,2.1,32.6,2.6,32.5,3C32.4,3.5,32.6,2.8,32.5,3z"/>
<path class="st0" d="M31.8,3c-0.1,0.7-0.2,1.5-0.3,2.2C31.8,4.4,32,3.6,32,2.8c-0.1-0.7-0.5-1.3-1.1-1.6C31.4,1.7,31.9,2.2,31.8,3
	C31.6,3.8,31.8,2.7,31.8,3z"/>
<path class="st0" d="M37.3,10.2c-1.3-0.4-2.6-1-3.7-1.8C34.5,9.5,35.9,10.1,37.3,10.2z"/>
<path class="st0" d="M37.7,10.5c0.6,0.2,1.3,0.2,1.9-0.1C38.9,10.4,38.3,10.4,37.7,10.5z"/>
<path class="st0" d="M24.9,1.9c1.7,1.5,3.1,3.4,3.9,5.5C28.2,5.1,26.8,3.2,24.9,1.9z"/>
<path class="st0" d="M16.3-6.2c0.4,0.6,0.9,1,1.5,1.4c0.8,0.7,1.5,1.4,2.2,2c1.5,1.4,3.1,2.7,4.7,4c-2-1.9-4-3.7-6-5.6l-1.5-1.4
	c-0.1-0.1-0.7-0.5-0.7-0.6s0.5,0,0.7,0l1.8,0.6l-1.8-0.8C16.9-6.5,15.9-6.8,16.3-6.2L16.3-6.2z"/>
<path class="st0" d="M21-4.9c3.4,1.7,6.6,3.7,9.8,5.8C27.8-1.5,24.5-3.5,21-4.9z"/>
<path class="st0" d="M30.7,1.8c-0.2-0.6-0.7-1-1.3-1.2c0.8,0.8,1.4,1.8,1.6,3C31.1,3,30.9,2.4,30.7,1.8z"/>
<path class="st0" d="M31.2,18c1.6-3.1,4.8-5,8.3-5.2C35.9,12.6,32.6,14.7,31.2,18C32,16.4,32.5,14.7,31.2,18z"/>
</svg>
