<svg id="Шар_1" data-name="Шар 1" xmlns="http://www.w3.org/2000/svg" xmlns:xlink="http://www.w3.org/1999/xlink" viewBox="0 0 52.86 53.7"><defs><style>.cls-1{fill:none;}.cls-2{clip-path:url(#clip-path);}</style><clipPath id="clip-path" transform="translate(-279 -369.06)"><rect class="cls-1" x="279" y="369" width="52.8" height="54.72"/></clipPath></defs><title>search</title><g class="cls-2"><path d="M297.7,369.06a18.71,18.71,0,1,0,11.58,33.38l19.85,19.85a1.59,1.59,0,0,0,2.26,0,1.59,1.59,0,0,0,0-2.26l-19.78-19.78a18.69,18.69,0,0,0-13.91-31.19Zm-15.5,18.7a15.51,15.51,0,1,1,26.37,11,1.48,1.48,0,0,0-.39.28,1.78,1.78,0,0,0-.21.27,15.48,15.48,0,0,1-25.77-11.59Zm0,0" transform="translate(-279 -369.06)"/></g></svg>