<?xml version="1.0" encoding="utf-8"?>
<!-- Generator: Adobe Illustrator 23.0.1, SVG Export Plug-In . SVG Version: 6.00 Build 0)  -->
<svg version="1.1" id="Шар_1" xmlns="http://www.w3.org/2000/svg" xmlns:xlink="http://www.w3.org/1999/xlink" x="0px" y="0px"
	 viewBox="0 0 71 54.5" style="enable-background:new 0 0 71 54.5;" xml:space="preserve">
<style type="text/css">
	.st0{clip-path:url(#SVGID_2_);}
	.st1{fill:#FFFFFF;}
</style>
<title>shopping-cart</title>
<g>
	<defs>
		<rect id="SVGID_1_" y="-0.4" width="70.8" height="55.9"/>
	</defs>
	<clipPath id="SVGID_2_">
		<use xlink:href="#SVGID_1_"  style="overflow:visible;"/>
	</clipPath>
	<g class="st0">
		<path class="st1" d="M0,1.6c0,0.9,0.7,1.6,1.6,1.6h12.3l2.8,11.4c0,0.3-0.1,0.7-0.1,1c0,0.1,0,0.2,0,0.3l3.9,21.4
			c0,0.1,0,0.1,0,0.2c0.5,1.6,1.6,5,4.7,5.8c-2.3,3.2-1.6,7.6,1.5,9.9c1.2,0.9,2.7,1.4,4.2,1.4c3.9-0.1,7.1-3.3,7.1-7.2
			c-0.1-1.5-0.5-2.9-1.2-4.1h14.7c-0.7,1.3-1.2,2.7-1.2,4.1c0,3.9,3.1,7.1,7.1,7.1c3.9,0,7-3.1,7.1-6.9c0-1.5-0.5-3.1-1.4-4.3
			c1.6-0.5,3.6-2,4.7-5.9c0-0.1,0-0.1,0-0.2L71,15.8c0-0.1,0-0.3,0-0.4c0-3.5-2.8-6.5-6.3-6.6H23c-1.5,0.1-2.9,0.6-4,1.6l-2.3-9.2
			C16.5,0.6,15.9,0,15.2,0H1.6C0.7,0,0,0.7,0,1.6z M31,51.3c-2.1,0-3.9-1.7-3.9-3.9s1.7-3.9,3.9-3.9c2.1,0,3.9,1.7,3.9,3.9
			c0,0,0,0,0,0C34.9,49.6,33.2,51.3,31,51.3z M57.4,51.3c-2.1,0-3.9-1.7-3.9-3.9c0-2.1,1.7-3.9,3.9-3.9c2.1,0,3.9,1.7,3.9,3.9
			c0,0,0,0,0,0C61.3,49.6,59.6,51.3,57.4,51.3z M23,12h41.7c1.7,0.1,3.1,1.6,3.1,3.3l-3.1,21.1c-0.5,1.7-1.5,3.6-3.1,3.6H26.9
			c-1.2,0-2.1-0.5-3.2-3.6l-3.9-21c0-0.2,0-0.3,0.1-0.5c0-0.1,0-0.2,0-0.3C20.2,13.2,21.5,12.2,23,12L23,12z"/>
	</g>
</g>
</svg>
