<svg id="Capa_1" data-name="Capa 1" xmlns="http://www.w3.org/2000/svg" viewBox="0 0 512 432"><title>sprout</title><path d="M64,339.88a10,10,0,0,0-10,10V350a10,10,0,0,0,20,0v-.13A10,10,0,0,0,64,339.88Z" transform="translate(0 -40)"/><path d="M501.14,313.53A38.65,38.65,0,0,0,451.85,309a9,9,0,0,0-.78.6l-26,22a178.59,178.59,0,0,0-132.16-70.41V192.4c20.51-1.07,66.63-6.93,93.77-37.27,32.22-36.06,26.23-94.23,24.67-105.56a10,10,0,0,0-17.44-6.25c-.15.18-16.93,17.85-63.88,33.52-21.4,7.15-37.51,23.28-47.13,47-9.63-23.73-25.74-39.86-47.14-47C188.85,61.17,172,43.44,171.91,43.32a10,10,0,0,0-17.41,6.09c-1.54,11-7.73,69.5,24.65,105.72,27.15,30.36,73.3,36.21,93.79,37.27v68.84A178.08,178.08,0,0,0,194.87,284l-1.33-1.33a59.61,59.61,0,0,0-42.42-17.57H74v-5.39a10,10,0,0,0-10-10H10a10,10,0,0,0-10,10v180a10,10,0,0,0,10,10H64a10,10,0,0,0,10-10v-4.67L100.28,451a145.1,145.1,0,0,0,75.23,21H333.63a124.53,124.53,0,0,0,78.17-27.69l.3-.24L499,367.94a37.08,37.08,0,0,0,2.13-54.41ZM336.39,95.82c27-9,45.15-18.84,56.53-26.4.45,19.61-2.23,51.24-21.12,72.37-21.67,24.23-60.57,29.46-78.73,30.55C294.06,152,300.43,107.82,336.39,95.82Zm-142.34,46C175.16,120.66,172.48,89,172.93,69.42c11.38,7.56,29.53,17.38,56.53,26.4,36,12,42.33,56.17,43.33,76.52C254.64,171.25,215.73,166,194.05,141.8Zm88.7,139.14a158.63,158.63,0,0,1,127.07,63.67l-25.65,21.75a34.3,34.3,0,0,0-8.76-15.57A29.8,29.8,0,0,0,354.19,342H260.87a19.87,19.87,0,0,1-14.13-5.84l-37.17-37.35A158.42,158.42,0,0,1,282.75,280.94ZM486,352.76l-.11.09-86.81,76A104.55,104.55,0,0,1,333.63,452H175.51a125.17,125.17,0,0,1-64.87-18.11L74,411.7V383.61a10,10,0,0,0-20,0v46.14H20v-160H54v44.39a10,10,0,0,0,20,0v-29h77.12a39.69,39.69,0,0,1,28.26,11.7l53.2,53.45A39.73,39.73,0,0,0,260.87,362h93.32a9.91,9.91,0,0,1,7.07,2.93c4.59,4.58,5,12.13,3,16.91a10.48,10.48,0,0,1-1.7,2.86,7.45,7.45,0,0,1-5,2.26H224.75a35.62,35.62,0,0,1-19.42-5.76l-32.21-21A10,10,0,1,0,162.2,377l32.23,21a55.44,55.44,0,0,0,30.32,9H357.53a26.07,26.07,0,0,0,18.69-7.64l87.36-74.07A18.66,18.66,0,0,1,487,327.67a17.08,17.08,0,0,1-1,25.09Z" transform="translate(0 -40)"/></svg>