<svg id="Capa_1" data-name="Capa 1" xmlns="http://www.w3.org/2000/svg" viewBox="0 0 512 488"><title>farmer</title><path d="M10.14,480H10a10,10,0,0,0,0,20h.14a10,10,0,0,0,0-20Z" transform="translate(0 -12)"/><path d="M512,392.73c0-18.48-12.92-35.88-31.42-42.31l-.44-.14L397.4,325.73c-2.23-.83-3.79-2.36-4-3.86V297.33c0-.33,0-.65-.05-1l31.54-18.09c.19-.1.36-.22.54-.33,14.48-9.56,24-26.59,25.43-45.54,0-.26,0-.51,0-.77V221.26a35.32,35.32,0,0,0,17.6-56c4.49,1.42,8.91,2.9,13.23,4.48a10,10,0,0,0,11.57-15.2L447,89.68V41.23a10,10,0,0,0-6.44-9.34C438.47,31.08,387.94,12,339,12S239.61,31.08,237.48,31.89a10,10,0,0,0-6.43,9.34V89.7L185,154.58a10,10,0,0,0,11.59,15.18c4.22-1.54,8.55-3,12.93-4.38a35.33,35.33,0,0,0,17.67,55.88v10.37c0,.26,0,.51,0,.77,1.46,19,10.9,36.06,25.25,45.54l.55.34,31.91,18.24c0,.27,0,.54,0,.81V317.4a9.37,9.37,0,0,0-.17,1.76v2.41c0,1.59-1.64,3.28-4,4.16l-82.81,24.55-.44.14c-18.5,6.43-31.42,23.83-31.42,42.31V480H102V382h19a35,35,0,0,0,35-35V210a10,10,0,0,0-20,0V347a15,15,0,0,1-15,15H110.71V209a10,10,0,0,0-20,0V362H65.43V209a10,10,0,0,0-20,0V362H35a15,15,0,0,1-15-15V210a10,10,0,0,0-20,0V347a35,35,0,0,0,35,35H54v98H40a10,10,0,0,0,0,20H502a10,10,0,0,0,10-10Zm-20,0V480H465V366.65l9.21,2.73C484.37,373,492,383,492,392.73ZM339,32c35.48,0,73.23,11.36,88,16.32v32c-16-3.19-46.71-7.81-90.32-7.81-42.2,0-70.5,4.34-85.65,7.55V48.31C265.79,43.36,303.48,32,339,32Zm-91.86,69.53c9.05-2.39,38.72-9,89.52-9,51.35,0,84.29,6.77,94.31,9.15l28.64,40.15c-36.77-9.95-77.85-15.15-120.5-15.15s-83.81,5.21-120.61,15.18Zm0,129.71V212.7a10,10,0,0,0-10-10,15.36,15.36,0,0,1,0-30.71,10,10,0,0,0,10-9.5l.34-6.93a477,477,0,0,1,183.42,0V162a10,10,0,0,0,10,10,15.36,15.36,0,1,1,0,30.71,10,10,0,0,0-10,10v18.53c-1.06,12.59-7.1,23.7-16.24,29.86L353.85,296a5.84,5.84,0,0,0-.53.33,25.24,25.24,0,0,1-28.56,0l-.55-.34-61-34.87C254.2,255,248.23,243.89,247.16,231.24ZM314,313.17a45.26,45.26,0,0,0,50,0l9.36-5.36v10.63c0,.24,0,.49,0,.73v2.41c0,.3,0,.6,0,.89v6.46L339.18,363l-34.32-34.09v-21Zm-27.4,31.66c.15-.05.3-.09.44-.15a29.15,29.15,0,0,0,3.7-1.57l41.38,41.09a10,10,0,0,0,14.11,0l41.2-41a29.71,29.71,0,0,0,3.56,1.51l.44.15L445,360.71V480H433.31V409.64a10,10,0,0,0-20,0V480H264.65V409.64a10,10,0,1,0-20,0V480H233V360.73ZM186,392.73c0-9.72,7.63-19.72,17.79-23.35l9.17-2.72V480H186ZM74,480V382h8v98Z" transform="translate(0 -12)"/><path d="M380.32,200A11.33,11.33,0,1,0,369,188.68,11.34,11.34,0,0,0,380.32,200Z" transform="translate(0 -12)"/><path d="M297.76,177.35a11.34,11.34,0,1,0,11.33,11.33A11.35,11.35,0,0,0,297.76,177.35Z" transform="translate(0 -12)"/><path d="M254.65,389.71a10,10,0,0,0,10-10v-.14a10,10,0,1,0-20,0v.14A10,10,0,0,0,254.65,389.71Z" transform="translate(0 -12)"/><path d="M423.31,389.71a10,10,0,0,0,10-10v-.14a10,10,0,0,0-20,0v.14A10,10,0,0,0,423.31,389.71Z" transform="translate(0 -12)"/><path d="M355.51,249.38a10,10,0,0,0-12.36-15.71,10.24,10.24,0,0,1-4.11.66,9.9,9.9,0,0,1-4-.62,10,10,0,0,0-12.54,15.56c1.36,1.19,6.54,5.06,16.5,5.06S354.14,250.54,355.51,249.38Z" transform="translate(0 -12)"/></svg>