<svg id="Capa_1" data-name="Capa 1" xmlns="http://www.w3.org/2000/svg" viewBox="0 0 512 511.95"><title>sprinkler</title><path d="M397.24,422.78a10,10,0,0,0-6.74-3.37c-3.34-.29-26.75-1.78-41.42,12.61a35.85,35.85,0,0,0-3.09,3.47A36,36,0,0,0,342.9,432c-14.65-14.36-38-12.9-41.35-12.6a10,10,0,0,0-9.26,9.13c-.54,5.12-2,28.15,12.36,42.28C314,480,326.84,482.54,336,483.09V502a10,10,0,0,0,20,0V483.09c9.15-.55,22-3.12,31.34-12.27,14.31-14,12.92-36.87,12.37-42.18A9.94,9.94,0,0,0,397.24,422.78Zm-78.58,33.77h0c-4.22-4.14-5.9-11.07-6.45-17,5.7.69,12.4,2.51,16.68,6.71s6.1,10.95,6.77,16.7C329.83,462.43,322.94,460.75,318.66,456.55Zm54.66,0c-4.28,4.2-11.16,5.88-17,6.44.67-5.74,2.49-12.51,6.76-16.7s11-6,16.68-6.71C379.22,445.48,377.54,452.41,373.32,456.55Z" transform="translate(0 -0.02)"/><path d="M511.69,428.64a10,10,0,0,0-9.2-9.23c-3.34-.29-26.75-1.78-41.42,12.61a35.85,35.85,0,0,0-3.09,3.47,36,36,0,0,0-3.09-3.48c-14.64-14.36-38-12.9-41.35-12.6a10,10,0,0,0-9.26,9.13c-.54,5.12-2,28.15,12.36,42.28C426,480,438.83,482.54,448,483.09V502a10,10,0,0,0,20,0V483.09c9.15-.55,22-3.12,31.34-12.27C513.63,456.78,512.24,434,511.69,428.64Zm-81,27.91h0c-4.22-4.14-5.9-11.07-6.45-17,5.7.69,12.4,2.51,16.68,6.71s6.09,10.95,6.76,16.7C441.81,462.43,434.93,460.75,430.65,456.55Zm54.66,0c-4.28,4.2-11.17,5.88-17,6.44.67-5.74,2.49-12.51,6.76-16.7s11-6,16.68-6.71C491.21,445.48,489.53,452.41,485.31,456.55Z" transform="translate(0 -0.02)"/><polygon points="68.68 348.65 68.68 348.65 68.68 348.65 68.68 348.65"/><path d="M120,379.83V360.94c9.16-.55,22-3.11,31.34-12.27,14.32-14,12.92-36.89,12.37-42.18a10,10,0,0,0-9.22-9.23c-3.48-.31-26.75-1.76-41.39,12.61a36,36,0,0,0-3.1,3.47,34.57,34.57,0,0,0-3.09-3.47c-14.52-14.25-37.51-12.94-41.3-12.62a10,10,0,0,0-9.31,9.17c-.54,5.17-2,28.15,12.37,42.25C78,357.83,90.86,360.39,100,360.94v18.89a10,10,0,1,0,20,0Zm7.1-55.69c4.28-4.2,11-6,16.68-6.71-.54,5.9-2.22,12.83-6.44,17s-11.17,5.89-17,6.44C121,335.1,122.84,328.34,127.11,324.14ZM82.68,334.4h0c-4.22-4.14-5.9-11.07-6.44-17,5.69.69,12.39,2.51,16.67,6.71s6.1,11,6.77,16.7C93.85,340.29,87,338.6,82.68,334.4Z" transform="translate(0 -0.02)"/><polygon points="362.13 348.65 362.13 348.65 362.13 348.65 362.13 348.65"/><path d="M413.47,379.83V360.94c9.15-.55,22-3.11,31.34-12.27,14.31-14,12.92-36.89,12.37-42.19a10,10,0,0,0-9.22-9.22c-3.48-.31-26.75-1.76-41.4,12.61a37.23,37.23,0,0,0-3.09,3.47,35.85,35.85,0,0,0-3.09-3.47c-14.51-14.23-37.48-12.94-41.29-12.62a10,10,0,0,0-9.32,9.17c-.54,5.17-2,28.15,12.36,42.25,9.33,9.16,22.19,11.72,31.34,12.27v18.89a10,10,0,0,0,20,0Zm7.1-55.69c4.28-4.2,11-6,16.68-6.71-.55,5.9-2.23,12.83-6.45,17s-11.16,5.89-17,6.44C414.48,335.1,416.3,328.34,420.57,324.14ZM376.14,334.4h0c-4.22-4.14-5.9-11.07-6.45-17,5.7.69,12.4,2.51,16.68,6.71s6.1,11,6.77,16.7C387.31,340.29,380.42,338.6,376.14,334.4Z" transform="translate(0 -0.02)"/><path d="M105.27,422.78a10,10,0,0,0-6.74-3.37c-3.35-.29-26.75-1.78-41.42,12.61A35.85,35.85,0,0,0,54,435.49,37.34,37.34,0,0,0,50.93,432c-14.65-14.36-38-12.9-41.35-12.6a10,10,0,0,0-9.26,9.13c-.54,5.12-2,28.15,12.36,42.28C22,480,34.87,482.54,44,483.09V502a10,10,0,0,0,20,0V483.09c9.15-.55,22-3.12,31.34-12.27,14.31-14,12.91-36.87,12.37-42.18A10,10,0,0,0,105.27,422.78ZM26.69,456.55h0c-4.22-4.14-5.9-11.07-6.45-17,5.69.69,12.4,2.51,16.68,6.71S43,457.24,43.68,463C37.85,462.43,31,460.75,26.69,456.55Zm54.66,0c-4.28,4.2-11.17,5.88-17,6.44.67-5.74,2.49-12.51,6.77-16.7s11-6,16.68-6.71C87.25,445.48,85.57,452.41,81.35,456.55Z" transform="translate(0 -0.02)"/><path d="M217.26,422.78a10,10,0,0,0-6.74-3.37c-3.35-.29-26.75-1.78-41.42,12.61a34.57,34.57,0,0,0-3.09,3.47,36.07,36.07,0,0,0-3.1-3.48c-14.64-14.36-38-12.9-41.34-12.6a10,10,0,0,0-9.26,9.13c-.54,5.12-2,28.15,12.36,42.28C134,480,146.86,482.54,156,483.09V502a10,10,0,0,0,20,0V483.09c9.15-.55,22-3.12,31.34-12.27,14.3-14,12.91-36.87,12.37-42.18A10,10,0,0,0,217.26,422.78Zm-78.58,33.77h0c-4.22-4.14-5.9-11.07-6.45-17,5.69.69,12.39,2.51,16.68,6.71s6.09,10.95,6.76,16.7C149.84,462.43,143,460.75,138.68,456.55Zm54.66,0c-4.28,4.2-11.17,5.88-17,6.44.67-5.74,2.49-12.51,6.77-16.7s11-6,16.68-6.71C199.24,445.48,197.56,452.41,193.34,456.55Z" transform="translate(0 -0.02)"/><path d="M308.2,104.11A10,10,0,0,0,322.3,103a237.81,237.81,0,0,1,24.33-24.64,10,10,0,1,0-13.17-15A257,257,0,0,0,307.08,90,10,10,0,0,0,308.2,104.11Z" transform="translate(0 -0.02)"/><path d="M368.77,59.17a10,10,0,0,0,5.42-1.6c6.28-4,12.83-7.85,19.46-11.28a10,10,0,0,0-9.19-17.76c-7.2,3.72-14.3,7.84-21.12,12.24a10,10,0,0,0,5.43,18.4Z" transform="translate(0 -0.02)"/><path d="M419.6,34.15a9.85,9.85,0,0,0,3.35-.58c4.35-1.54,8.8-3,13.22-4.26a10,10,0,1,0-5.56-19.2c-4.8,1.39-9.64,2.94-14.35,4.62a10,10,0,0,0,3.34,19.42Z" transform="translate(0 -0.02)"/><path d="M463.92,23a10.08,10.08,0,0,0,1.54-.12q3.18-.49,6.46-.91a10,10,0,0,0-2.35-19.86l-.21,0c-2.32.3-4.66.63-7,1A10,10,0,0,0,463.92,23Z" transform="translate(0 -0.02)"/><path d="M501.83,20H502a10,10,0,0,0,0-20h-.15a10,10,0,0,0,0,20Z" transform="translate(0 -0.02)"/><path d="M304.1,238.22a10,10,0,0,0-14.78-13.46,210,210,0,0,0-15,18.43,245.2,245.2,0,0,1,24.14-45.61,10,10,0,0,0-16.59-11.16Q276.79,194,272.22,202a234.65,234.65,0,0,1,26.59-66.11,10,10,0,1,0-17.2-10.2A254.27,254.27,0,0,0,256,185a254.27,254.27,0,0,0-25.61-59.31,10,10,0,0,0-17.2,10.2A235,235,0,0,1,239.78,202q-4.58-7.92-9.69-15.53a10,10,0,0,0-16.59,11.16,244.88,244.88,0,0,1,24.14,45.61,213.74,213.74,0,0,0-15-18.43,10,10,0,0,0-14.79,13.46A190.27,190.27,0,0,1,224,258.58V502a10,10,0,0,0,10,10h44a10,10,0,0,0,10-10V258.58A192.82,192.82,0,0,1,304.1,238.22ZM268,492H244V312h12a10,10,0,1,0,0-20H244V266h24V492Z" transform="translate(0 -0.02)"/><path d="M347.44,180a210.39,210.39,0,0,0-34.83,22.83,10,10,0,1,0,12.57,15.55,189.62,189.62,0,0,1,31.5-20.64A10,10,0,0,0,347.44,180Z" transform="translate(0 -0.02)"/><path d="M404.81,160.08a209.11,209.11,0,0,0-21.49,5.27,10,10,0,1,0,5.79,19.14,190.26,190.26,0,0,1,19.42-4.76,10,10,0,0,0-3.72-19.65Z" transform="translate(0 -0.02)"/><path d="M433.88,166.43a10,10,0,0,0,10,10A191.75,191.75,0,0,1,468,178a11.13,11.13,0,0,0,1.28.08,10,10,0,0,0,1.25-19.92,211.26,211.26,0,0,0-26.64-1.68A10,10,0,0,0,433.88,166.43Z" transform="translate(0 -0.02)"/><path d="M498.25,184.37l.8.24a10,10,0,1,0,5.84-19.13l-.87-.26a10,10,0,1,0-5.77,19.15Z" transform="translate(0 -0.02)"/><path d="M314.5,161a10,10,0,0,0,14.14,0,247,247,0,0,1,35.8-29.62,10,10,0,1,0-11.24-16.54,266.58,266.58,0,0,0-38.7,32A10,10,0,0,0,314.5,161Z" transform="translate(0 -0.02)"/><path d="M429.07,89.53a10,10,0,0,0-12.7-6.24,264.43,264.43,0,0,0-26.88,10.86,10,10,0,1,0,8.5,18.1,244.62,244.62,0,0,1,24.84-10A10,10,0,0,0,429.07,89.53Z" transform="translate(0 -0.02)"/><path d="M455.91,93.31a10.12,10.12,0,0,0,1.8-.16c5.71-1.05,11.54-1.89,17.32-2.53a10,10,0,1,0-2.17-19.87c-6.26.68-12.56,1.6-18.74,2.72a10,10,0,0,0,1.79,19.84Z" transform="translate(0 -0.02)"/><path d="M501.82,89.16H502a10,10,0,0,0,0-20h-.16a10,10,0,0,0,0,20Z" transform="translate(0 -0.02)"/><path d="M165.38,78.35A237.82,237.82,0,0,1,189.71,103a10,10,0,1,0,15.21-13A257,257,0,0,0,178.54,63.3a10,10,0,0,0-13.16,15Z" transform="translate(0 -0.02)"/><path d="M118.35,46.29c6.63,3.43,13.18,7.23,19.46,11.28a10,10,0,1,0,10.85-16.8c-6.82-4.4-13.92-8.52-21.12-12.24a10,10,0,0,0-9.19,17.76Z" transform="translate(0 -0.02)"/><path d="M75.83,29.31C80.25,30.6,84.7,32,89.05,33.57a9.85,9.85,0,0,0,3.35.58,10,10,0,0,0,3.35-19.42C91,13.05,86.2,11.5,81.39,10.11a10,10,0,1,0-5.56,19.2Z" transform="translate(0 -0.02)"/><path d="M40.11,21.92c2.14.27,4.31.58,6.43.91A10,10,0,1,0,49.6,3.07c-2.3-.36-4.64-.69-6.93-1l-.24,0a10,10,0,0,0-2.32,19.86Z" transform="translate(0 -0.02)"/><path d="M10,20h.15a10,10,0,1,0,0-20H10a10,10,0,0,0,0,20Z" transform="translate(0 -0.02)"/><path d="M199.39,202.8A210.39,210.39,0,0,0,164.56,180a10,10,0,1,0-9.24,17.73,190.31,190.31,0,0,1,31.5,20.65,10,10,0,1,0,12.57-15.55Z" transform="translate(0 -0.02)"/><path d="M103.47,179.73a190.26,190.26,0,0,1,19.42,4.76,10,10,0,0,0,12.47-6.68,10,10,0,0,0-6.68-12.46,209.11,209.11,0,0,0-21.49-5.27,10,10,0,1,0-3.72,19.65Z" transform="translate(0 -0.02)"/><path d="M32.82,169.3A10,10,0,0,0,42.73,178,10.83,10.83,0,0,0,44,178a191.91,191.91,0,0,1,24.12-1.53,10,10,0,1,0,0-20,211.26,211.26,0,0,0-26.64,1.68A10,10,0,0,0,32.82,169.3Z" transform="translate(0 -0.02)"/><path d="M8,165.22l-.87.27A10,10,0,1,0,13,184.61l.8-.24A10,10,0,1,0,8,165.22Z" transform="translate(0 -0.02)"/><path d="M144.91,117.47a10,10,0,0,0,2.65,13.89A247,247,0,0,1,183.36,161a10,10,0,1,0,14.14-14.13,266.58,266.58,0,0,0-38.7-32A10,10,0,0,0,144.91,117.47Z" transform="translate(0 -0.02)"/><path d="M118.25,113.2a10,10,0,0,0,4.26-19A263.5,263.5,0,0,0,95.63,83.29a10,10,0,1,0-6.46,18.93,244.62,244.62,0,0,1,24.84,10A10.05,10.05,0,0,0,118.25,113.2Z" transform="translate(0 -0.02)"/><path d="M37,90.62c5.78.64,11.61,1.48,17.32,2.53a10.12,10.12,0,0,0,1.8.16,10,10,0,0,0,1.79-19.84c-6.18-1.12-12.48-2-18.73-2.73A10,10,0,0,0,37,90.62Z" transform="translate(0 -0.02)"/><path d="M10,89.16h.16a10,10,0,1,0,0-20H10a10,10,0,0,0,0,20Z" transform="translate(0 -0.02)"/></svg>